ply
format ascii 1.0
comment Created in Blender version 4.1.1
element vertex 316
property float x
property float y
property float z
property float s
property float t
element face 284
property list uchar uint vertex_indices
end_header
0.66370225 -0.9325002 1.1450541 1 0.6666666
0.66092575 -0.9383517 1.1480707 0.96875 0.6666666
0.6806083 -0.9366934 1.1694034 0.96875 0.8333333
0.68338484 -0.9308419 1.1663868 1 0.8333333
0.66729665 -0.9275571 1.1413535 0.03125 0.6666666
0.66370225 -0.9325002 1.1450541 0 0.6666666
0.68338484 -0.9308419 1.1663868 0 0.8333333
0.6869792 -0.9258988 1.1626862 0.03125 0.8333333
0.65907377 -0.9448866 1.1502874 0.9375 0.6666666
0.6787563 -0.9432283 1.1716201 0.93749994 0.8333333
0.65821755 -0.9518538 1.1516191 0.90625 0.6666666
0.6779001 -0.95019555 1.1729517 0.90625 0.8333333
0.6583899 -0.9589856 1.1520144 0.875 0.6666666
0.67807245 -0.95732737 1.1733471 0.875 0.8333333
0.65958434 -0.96600795 1.1514583 0.84375 0.6666666
0.67926687 -0.9643497 1.172791 0.84374994 0.8333333
0.66175485 -0.9726509 1.149972 0.8125 0.6666666
0.6814374 -0.9709926 1.1713047 0.8125 0.8333333
0.66481805 -0.9786592 1.1476128 0.78125 0.6666666
0.6845006 -0.9770009 1.1689454 0.78125 0.8333333
0.66865623 -0.98380196 1.1444713 0.75 0.6666666
0.68833876 -0.9821437 1.165804 0.75 0.8333333
0.67312187 -0.98788154 1.1406682 0.71875 0.6666666
0.69280446 -0.9862232 1.1620009 0.71875 0.8333333
0.6780434 -0.9907412 1.1363497 0.6875 0.6666666
0.69772595 -0.9890829 1.1576823 0.6875 0.8333333
0.6832317 -0.99227095 1.1316817 0.65625 0.6666666
0.70291424 -0.9906126 1.1530143 0.65625 0.8333333
0.6884873 -0.9924121 1.1268436 0.625 0.6666666
0.7081698 -0.9907538 1.1481762 0.625 0.8333333
0.6936083 -0.9911592 1.1220212 0.59375 0.6666666
0.7132908 -0.9895009 1.1433539 0.59375 0.8333333
0.6983979 -0.9885604 1.1174002 0.5625 0.6666666
0.7180804 -0.98690206 1.1387328 0.5625 0.8333333
0.7179785 -0.9927409 1.0996591 0.5625 0.6666666
0.73766106 -0.9910826 1.1209917 0.5625 0.8333333
0.702672 -0.9847155 1.1131577 0.53125 0.6666666
0.723293 -0.9878515 1.0943756 0.53125 0.6666666
0.7467785 -1.0000553 1.0736554 0.5625 0.6666666
0.7664611 -0.998397 1.0949881 0.5625 0.8333333
0.75147194 -0.9929496 1.0687727 0.53125 0.6666666
0.7790514 -1.0134014 1.0449164 0.5625 0.6666666
0.79873395 -1.0117431 1.066249 0.5625 0.8333333
0.72784173 -0.9931873 1.0442032 0.53125 0.6666666
0.7231483 -1.000293 1.049086 0.5625 0.6666666
0.7554212 -1.0136391 1.0203469 0.5625 0.6666666
0.6987271 -0.9982278 1.0250672 0.5625 0.6666666
0.731 -1.0115739 0.9963282 0.5625 0.6666666
0.7034205 -0.9911221 1.0201845 0.53125 0.6666666
0.7322335 -0.9840349 1.0394397 0.5 0.6666666
0.7078123 -0.98196965 1.0154209 0.5 0.6666666
0.7558637 -0.9837972 1.0640091 0.5 0.6666666
0.7376487 -0.9943687 0.98885626 0.5 0.6666666
0.7345823 -1.0042512 0.9924537 0.53125 0.6666666
0.7703365 -0.9928941 0.95858234 0.5 0.6666666
0.76856613 -1.0032175 0.96101826 0.53125 0.6666666
0.7659873 -1.011207 0.96401876 0.5625 0.6666666
0.80198294 -0.98472494 0.92874885 0.5 0.6666666
0.8015336 -0.9953933 0.92999274 0.53125 0.6666666
0.79994726 -1.0039386 0.9321207 0.5625 0.6666666
0.8322912 -0.9672196 0.8994242 0.5 0.6666666
0.8333193 -0.9780368 0.8993165 0.53125 0.6666666
0.8328933 -0.98682076 0.9003924 0.5625 0.6666666
0.8243685 -1.0060037 0.9561393 0.5625 0.6666666
0.85731447 -0.9888859 0.92441106 0.5625 0.6666666
0.7904085 -1.0132722 0.98803747 0.5625 0.6666666
0.86229587 -0.9630778 0.8714186 0.5625 0.6666666
0.8867171 -0.96514297 0.89543724 0.5625 0.6666666
0.8613976 -0.95400786 0.8715422 0.53125 0.6666666
0.8866221 -0.92987716 0.84639317 0.5625 0.6666666
0.9110433 -0.93194234 0.8704119 0.5625 0.6666666
0.8844663 -0.9207879 0.8476756 0.53125 0.6666666
0.9050525 -0.88930196 0.82623434 0.5625 0.6666666
0.9294737 -0.89136714 0.850253 0.5625 0.6666666
0.90166473 -0.8813322 0.8287404 0.53125 0.6666666
0.9162479 -0.8498777 0.8128403 0.5625 0.6666666
0.94066906 -0.8519429 0.8368589 0.5625 0.6666666
0.91172326 -0.84346884 0.81651676 0.53125 0.6666666
0.92067146 -0.8114907 0.80577487 0.5625 0.6666666
0.9450927 -0.8135559 0.8297936 0.5625 0.6666666
0.9153586 -0.806147 0.8102613 0.53125 0.6666666
0.9195993 -0.77115756 0.8036288 0.5625 0.6666666
0.9440205 -0.77322274 0.82764745 0.5625 0.6666666
0.9138328 -0.76646435 0.8085844 0.53125 0.6666666
0.9160459 -0.7312012 0.80380136 0.5625 0.6666666
0.93933284 -0.72996426 0.8286098 0.5625 0.6666666
0.90947247 -0.731273 0.80987185 0.53125 0.6666666
0.93275946 -0.730036 0.8346803 0.53125 0.6666666
0.90180093 -0.73334706 0.8171112 0.5 0.6666666
0.9250879 -0.7321101 0.84191966 0.5 0.6666666
0.9064348 -0.7620007 0.8150632 0.5 0.6666666
0.8946543 -0.73743564 0.8240228 0.46875 0.6666666
0.91794133 -0.73619866 0.8488313 0.46875 0.6666666
0.8988186 -0.7589289 0.82185143 0.46875 0.6666666
0.88933253 -0.7423111 0.82931197 0.4375 0.6666666
0.91261953 -0.7410742 0.8541205 0.4375 0.6666666
0.89219886 -0.75826526 0.82790756 0.4375 0.6666666
0.9166201 -0.76033044 0.8519262 0.4375 0.6666666
0.89438975 -0.7941133 0.8286728 0.4375 0.6666666
0.9188109 -0.7961784 0.85269153 0.4375 0.6666666
0.90079933 -0.7965691 0.8229499 0.46875 0.6666666
0.89197266 -0.827737 0.83351666 0.4375 0.6666666
0.9163939 -0.82980216 0.8575353 0.4375 0.6666666
0.8982831 -0.8313115 0.8279722 0.46875 0.6666666
0.8840767 -0.8609128 0.8433807 0.4375 0.6666666
0.908498 -0.862978 0.8673994 0.4375 0.6666666
0.89002997 -0.8655863 0.83825123 0.46875 0.6666666
0.8701665 -0.8948647 0.8588542 0.4375 0.6666666
0.8945877 -0.8969298 0.8828729 0.4375 0.6666666
0.8753252 -0.9013359 0.8545975 0.46875 0.6666666
0.8505635 -0.92564815 0.8793338 0.4375 0.6666666
0.87498474 -0.92771333 0.9033525 0.4375 0.6666666
0.8548691 -0.9331986 0.87594813 0.46875 0.6666666
0.8805246 -0.9105178 0.8505141 0.5 0.6666666
0.85884774 -0.9432792 0.8730609 0.5 0.6666666
0.8964003 -0.8728476 0.83293813 0.5 0.6666666
0.82971495 -0.95669264 0.90098286 0.46875 0.6666666
0.8008826 -0.974033 0.9289329 0.46875 0.6666666
0.8264359 -0.9484422 0.903367 0.4375 0.6666666
0.7987721 -0.96542966 0.9302114 0.4375 0.6666666
0.7696246 -0.9733726 0.9577217 0.4375 0.6666666
0.77062064 -0.9823855 0.9575033 0.46875 0.6666666
0.73941714 -0.97497886 0.9857174 0.4375 0.6666666
0.7392732 -0.9838907 0.986543 0.46875 0.6666666
0.71201026 -0.96384305 1.0101388 0.4375 0.6666666
0.7107167 -0.9725918 1.0120122 0.46875 0.6666666
0.7364314 -0.9659082 1.0341574 0.4375 0.6666666
0.73513794 -0.974657 1.0360309 0.46875 0.6666666
0.76383835 -0.97704405 1.0097361 0.4375 0.6666666
0.7600617 -0.9656705 1.0587269 0.4375 0.6666666
0.7587682 -0.9744193 1.0606004 0.46875 0.6666666
0.78746855 -0.97680634 1.0343056 0.4375 0.6666666
0.7940458 -0.97543776 0.9817404 0.4375 0.6666666
0.81767607 -0.97520006 1.0063099 0.4375 0.6666666
0.8231933 -0.96749485 0.95423007 0.4375 0.6666666
0.8468236 -0.96725714 0.9787996 0.4375 0.6666666
0.8744874 -0.9502697 0.9519551 0.4375 0.6666666
0.85085714 -0.9505074 0.9273856 0.4375 0.6666666
0.89861494 -0.92747563 0.92792195 0.4375 0.6666666
0.8941699 -0.9486114 0.9732878 0.4375 0.8333333
0.91829747 -0.9258173 0.94925463 0.4375 0.8333333
0.8665061 -0.9655988 1.0001322 0.4375 0.8333333
0.9379005 -0.89503384 0.928775 0.4375 0.8333333
0.9182179 -0.89669216 0.90744233 0.4375 0.6666666
1.0449723 -0.8127025 0.93355334 0.5625 0.8333333
1.0455768 -0.77725035 0.9302398 0.5625 0.8333333
1.0401381 -0.77351165 0.9349671 0.53125 0.8333333
1.0400033 -0.80835974 0.9378004 0.53125 0.8333333
1.0349255 -0.8414821 0.94506025 0.53125 0.8333333
1.0333251 -0.8040911 0.9436302 0.5 0.8333333
1.0289805 -0.8360321 0.95012164 0.5 0.8333333
0.9518107 -0.861082 0.9133015 0.4375 0.8333333
0.9321282 -0.8627403 0.89196885 0.4375 0.6666666
1.0390812 -0.846817 0.9416406 0.5625 0.8333333
1.0068774 -0.91931075 0.97698873 0.5625 0.8333333
1.0265353 -0.8823091 0.9559752 0.5625 0.8333333
1.0235536 -0.8755215 0.95819855 0.53125 0.8333333
1.0051445 -0.9114526 0.97797674 0.53125 0.8333333
1.0187603 -0.8684089 0.9620681 0.5 0.8333333
1.001716 -0.90267676 0.98045784 0.5 0.8333333
1.0128373 -0.8624496 0.96706975 0.46874997 0.8333333
1.0222994 -0.8316948 0.9559488 0.46874997 0.8333333
1.0162839 -0.82897866 0.961288 0.4375 0.8333333
1.0072155 -0.8587411 0.9719684 0.4375 0.8333333
0.97920805 -0.9330184 1.0035833 0.5 0.8333333
0.99701494 -0.89494556 0.9841943 0.46874997 0.8333333
0.9757358 -0.92441195 1.006118 0.46874997 0.8333333
0.9922426 -0.8895991 0.9881819 0.4375 0.8333333
0.9718406 -0.91805655 1.0092179 0.4375 0.8333333
0.9642993 -0.8517052 0.8614284 0.5625 0.6666666
0.96872294 -0.8133182 0.85436296 0.5625 0.6666666
0.98840547 -0.81165993 0.8756957 0.5625 0.8333333
0.98398185 -0.8500469 0.8827611 0.5625 0.8333333
0.9531039 -0.89112943 0.87482244 0.5625 0.6666666
0.9727864 -0.8894711 0.8961551 0.5625 0.8333333
0.9676508 -0.77298504 0.85221696 0.5625 0.6666666
0.9873333 -0.7713268 0.8735496 0.5625 0.8333333
0.95021176 -0.94682914 1.0314103 0.46874997 0.8333333
0.94734764 -0.93978685 1.0335054 0.4375 0.8333333
0.9629631 -0.72972655 0.85317934 0.5625 0.6666666
0.98264563 -0.72806823 0.87451196 0.5625 0.8333333
0.8337212 -1.0113761 1.0339396 0.5625 0.8333333
0.8676812 -1.0041077 1.0020415 0.5625 0.8333333
0.89830357 -1.0015277 1.0352311 0.5625 0.8333333
0.86434364 -1.0087962 1.0671293 0.5625 0.8333333
0.95638967 -0.7297983 0.85924983 0.53125 0.6666666
0.9760722 -0.72814 0.8805825 0.53125 0.8333333
0.9487182 -0.7318724 0.8664892 0.5 0.6666666
0.9684007 -0.73021406 0.88782185 0.5 0.8333333
0.8373586 -0.97354174 1.0276426 0.4375 0.8333333
0.80715114 -0.975148 1.0556383 0.4375 0.8333333
0.8377735 -0.97256804 1.088828 0.4375 0.8333333
0.86798096 -0.97096175 1.0608323 0.4375 0.8333333
0.94157153 -0.73596096 0.8734008 0.46875 0.6666666
0.96125406 -0.73430264 0.8947335 0.46874997 0.8333333
0.95970666 -0.82790613 0.9034375 0.4375 0.8333333
0.9824331 -0.85850203 0.94649124 0.4375 0.8333333
0.990329 -0.82532614 0.93662715 0.4375 0.8333333
1.0146042 -0.8474669 0.9159508 0.5625 0.8333333
1.0034088 -0.8868911 0.92934483 0.5625 0.8333333
0.9918764 -0.73172265 0.9279232 0.46874997 0.8333333
0.9990231 -0.7276341 0.92101157 0.5 0.8333333
0.9599328 -0.7584344 0.8978284 0.4375 0.8333333
0.96212363 -0.79428244 0.89859366 0.4375 0.8333333
0.99274606 -0.7917024 0.9317833 0.4375 0.8333333
0.9905552 -0.7558544 0.9310181 0.4375 0.8333333
1.0190278 -0.8090799 0.90888536 0.5625 0.8333333
0.8293563 -1.009163 1.0994387 0.5625 0.8333333
0.79708344 -0.995817 1.1281778 0.5625 0.8333333
0.9402503 -0.76009274 0.8764957 0.4375 0.6666666
0.9424411 -0.79594076 0.877261 0.4375 0.6666666
0.94002414 -0.82956445 0.88210475 0.4375 0.6666666
0.93624973 -0.7408365 0.87868994 0.4375 0.6666666
0.95593226 -0.7391782 0.9000226 0.4375 0.8333333
0.93467355 -0.93170464 0.8949813 0.5625 0.6666666
0.9543561 -0.9300463 0.916314 0.5625 0.8333333
0.9103473 -0.96490526 0.92000675 0.5625 0.6666666
0.9300298 -0.963247 0.94133943 0.5625 0.8333333
0.8809447 -0.98864824 0.94898057 0.5625 0.6666666
0.90062726 -0.9869899 0.97031325 0.5625 0.8333333
0.8479987 -1.005766 0.98070884 0.5625 0.6666666
0.9606522 -0.96066695 0.9745291 0.5625 0.8333333
0.9312496 -0.9844099 1.003503 0.5625 0.8333333
1.0066946 -0.72556 0.9137722 0.53125 0.8333333
0.8140387 -1.0130345 1.0126069 0.5625 0.6666666
0.89712846 -0.96301883 1.0333219 0.4375 0.8333333
0.9247923 -0.9460314 1.0064775 0.4375 0.8333333
1.013268 -0.72548825 0.9077017 0.5625 0.8333333
0.9865547 -0.73659813 0.9332123 0.4375 0.8333333
0.96852285 -0.89245385 0.9619647 0.4375 0.8333333
1.0179557 -0.76874673 0.9067393 0.5625 0.8333333
0.94891983 -0.9232373 0.9824443 0.4375 0.8333333
0.7711545 -0.99129134 1.0901053 0.53125 0.8333333
0.8017769 -0.9887113 1.1232951 0.53125 0.8333333
0.98497844 -0.92746633 0.9495037 0.5625 0.8333333
0.7755463 -0.9821389 1.0853418 0.5 0.8333333
0.8061687 -0.9795589 1.1185315 0.5 0.8333333
0.7784507 -0.972761 1.081933 0.46874997 0.8333333
0.8090731 -0.970181 1.1151228 0.46874997 0.8333333
0.7797442 -0.9640122 1.0800595 0.4375 0.8333333
0.8103666 -0.9614322 1.1132492 0.4375 0.8333333
0.752582 -0.96988803 1.1055773 0.46874997 0.8333333
0.7549414 -0.9618033 1.1027721 0.4375 0.8333333
0.7484553 -0.97853726 1.1100572 0.5 0.8333333
0.72872543 -0.9722626 1.1277733 0.46874997 0.8333333
0.73057735 -0.9657277 1.1255566 0.4375 0.8333333
0.72594887 -0.97811407 1.1307899 0.5 0.8333333
0.72235453 -0.9830572 1.1344905 0.53125 0.8333333
0.74297553 -0.98619324 1.1157082 0.53125 0.8333333
0.6715708 -0.9237122 1.1371112 0.0625 0.6666666
0.6912533 -0.92205393 1.1584438 0.0625 0.8333333
0.67636037 -0.92111343 1.13249 0.09375 0.6666666
0.6960429 -0.9194551 1.1538228 0.09375 0.8333333
0.68148136 -0.9198604 1.1276677 0.125 0.6666666
0.7011639 -0.91820216 1.1490004 0.125 0.8333333
0.68673694 -0.9200016 1.1228297 0.15625 0.6666666
0.7064195 -0.91834337 1.1441623 0.15625 0.8333333
0.6919252 -0.92153144 1.1181617 0.1875 0.6666666
0.71160775 -0.9198732 1.1394943 0.1875 0.8333333
0.6968467 -0.9243911 1.1138431 0.21875 0.6666666
0.7165293 -0.9227328 1.1351758 0.21875 0.8333333
0.7013124 -0.9284707 1.11004 0.25 0.6666666
0.72099495 -0.92681235 1.1313727 0.25 0.8333333
0.7051506 -0.9336134 1.1068984 0.28125 0.6666666
0.72483313 -0.9319551 1.1282312 0.28125 0.8333333
0.7082138 -0.93962175 1.1045393 0.3125 0.6666666
0.72789633 -0.9379634 1.125872 0.3125 0.8333333
0.7103843 -0.9462647 1.1030531 0.34375 0.6666666
0.73006684 -0.94460636 1.1243857 0.34375 0.8333333
0.7115787 -0.9532869 1.1024969 0.375 0.6666666
0.73126125 -0.9516286 1.1238296 0.375 0.8333333
0.7117511 -0.96041876 1.1028923 0.40625 0.6666666
0.73143363 -0.95876044 1.1242249 0.40625 0.8333333
0.7108948 -0.967386 1.1042238 0.4375 0.6666666
0.7352589 -0.96346164 1.0814394 0.4375 0.6666666
0.7328995 -0.9715463 1.0842447 0.46875 0.6666666
0.70904285 -0.97392094 1.1064405 0.46875 0.6666666
0.72877276 -0.9801955 1.0887246 0.5 0.6666666
0.70626634 -0.9797724 1.1094571 0.5 0.6666666
0.90535474 -0.8367859 0.82187307 0.5 0.6666666
0.9082932 -0.80075103 0.8163608 0.5 0.6666666
1.0427705 -0.7394693 0.92989206 0.5625 0.8333333
0.8301432 -0.97744596 1.1445712 0.5 0.8333333
0.8333632 -0.96898687 1.1409427 0.46874997 0.8333333
0.9817644 -0.9502208 1.002562 0.5625 0.8333333
0.95208174 -0.97314835 1.0317309 0.5625 0.8333333
0.8349844 -0.9611923 1.138841 0.4375 0.8333333
0.91921026 -0.99048316 1.0634072 0.5625 0.8333333
0.8612904 -0.9691229 1.1151863 0.4375 0.8333333
0.8908527 -0.9656383 1.0876399 0.4375 0.8333333
0.9196394 -0.95664495 1.0603808 0.4375 0.8333333
1.019349 -0.7677722 0.95370203 0.4375 0.8333333
1.0162311 -0.75108534 0.9552817 0.4375 0.8333333
1.0216272 -0.74642634 0.9499408 0.46874997 0.8333333
0.8515731 -1.0019327 1.1267024 0.5625 0.8333333
0.8206061 -0.9923887 1.1545322 0.5625 0.8333333
1.028773 -0.7423354 0.9430297 0.5 0.8333333
0.82548004 -0.98580843 1.1495237 0.53125 0.8333333
1.0200206 -0.79919714 0.95552516 0.4375 0.8333333
0.88575196 -0.9992122 1.0949559 0.5625 0.8333333
1.0363488 -0.73998296 0.93585694 0.53125 0.8333333
1.033097 -0.7700869 0.9411974 0.5 0.8333333
1.0257858 -0.76790315 0.9477733 0.46874997 0.8333333
1.0261788 -0.8009211 0.9499773 0.46874997 0.8333333
0.98125863 -0.9422935 1.0024123 0.53125 0.8333333
0.9528574 -0.9653822 1.0304115 0.53125 0.8333333
0.9211091 -0.9828478 1.0610616 0.53125 0.8333333
0.88859725 -0.9919983 1.0917699 0.53125 0.8333333
0.85537094 -0.99523735 1.1226779 0.53125 0.8333333
0.9219847 -0.97342026 1.059521 0.5 0.8333333
0.8907486 -0.98278415 1.0890688 0.5 0.8333333
0.8587698 -0.9863227 1.118849 0.5 0.8333333
0.860785 -0.97698236 1.1162636 0.46874997 0.8333333
0.89145625 -0.97350866 1.0876948 0.46874997 0.8333333
0.921348 -0.9640782 1.0593822 0.46874997 0.8333333
0.9522964 -0.9559248 1.0301939 0.5 0.8333333
4 0 1 2 3
4 4 5 6 7
4 1 8 9 2
4 8 10 11 9
4 10 12 13 11
4 12 14 15 13
4 14 16 17 15
4 16 18 19 17
4 18 20 21 19
4 20 22 23 21
4 22 24 25 23
4 24 26 27 25
4 26 28 29 27
4 28 30 31 29
4 30 32 33 31
4 32 34 35 33
4 36 37 34 32
4 34 38 39 35
4 37 40 38 34
4 38 41 42 39
4 40 43 44 38
4 38 44 45 41
4 44 46 47 45
4 43 48 46 44
4 49 50 48 43
4 51 49 43 40
4 50 52 53 48
4 48 53 47 46
4 52 54 55 53
4 53 55 56 47
4 54 57 58 55
4 55 58 59 56
4 57 60 61 58
4 58 61 62 59
4 63 59 62 64
4 65 56 59 63
4 64 62 66 67
4 61 68 66 62
4 67 66 69 70
4 68 71 69 66
4 70 69 72 73
4 71 74 72 69
4 73 72 75 76
4 74 77 75 72
4 76 75 78 79
4 77 80 78 75
4 79 78 81 82
4 80 83 81 78
4 82 81 84 85
4 83 86 84 81
4 85 84 86 87
4 87 86 88 89
4 90 88 86 83
4 89 88 91 92
4 93 91 88 90
4 92 91 94 95
4 96 94 91 93
4 95 94 96 97
4 97 96 98 99
4 98 96 93 100
4 99 98 101 102
4 101 98 100 103
4 102 101 104 105
4 104 101 103 106
4 105 104 107 108
4 107 104 106 109
4 108 107 110 111
4 110 107 109 112
4 112 109 113 114
4 109 106 115 113
4 113 115 74 71
4 114 113 71 68
4 116 112 114 60
4 60 114 68 61
4 117 116 60 57
4 118 110 112 116
4 119 118 116 117
4 120 119 117 121
4 121 117 57 54
4 122 120 121 123
4 123 121 54 52
4 124 122 123 125
4 125 123 52 50
4 126 124 125 127
4 127 125 50 49
4 128 122 124 126
4 129 126 127 130
4 131 128 126 129
4 132 120 122 128
4 133 132 128 131
4 134 119 120 132
4 135 134 132 133
4 136 137 134 135
4 137 118 119 134
4 111 110 118 137
4 138 111 137 136
4 139 140 138 136
4 141 139 136 135
4 140 142 143 138
4 143 108 111 138
4 144 145 146 147
4 148 147 149 150
4 142 151 152 143
4 153 144 147 148
4 154 155 156 157
4 155 153 148 156
4 157 156 158 159
4 156 148 150 158
4 160 161 162 163
4 158 150 161 160
4 164 159 165 166
4 159 158 160 165
4 165 160 163 167
4 166 165 167 168
4 169 170 171 172
4 173 169 172 174
4 170 175 176 171
4 177 166 168 178
4 175 179 180 176
4 181 182 183 184
4 179 185 186 180
4 185 187 188 186
4 189 190 191 192
4 187 193 194 188
4 195 151 196 197
4 174 172 198 199
4 188 194 200 201
4 202 203 204 205
4 172 171 206 198
4 39 42 207 208
4 203 195 197 204
4 203 202 209 210
4 195 203 210 211
4 151 195 211 152
4 211 102 105 152
4 210 99 102 211
4 152 105 108 143
4 209 97 99 210
4 212 95 97 209
4 202 213 212 209
4 193 92 95 212
4 193 212 213 194
4 187 89 92 193
4 185 87 89 187
4 179 85 87 185
4 175 82 85 179
4 170 79 82 175
4 169 76 79 170
4 173 73 76 169
4 214 70 73 173
4 214 173 174 215
4 216 67 70 214
4 216 214 215 217
4 218 216 217 219
4 218 64 67 216
4 220 63 64 218
4 220 218 219 182
4 219 217 221 222
4 186 188 201 223
4 224 220 182 181
4 182 219 222 183
4 139 141 225 226
4 41 224 181 42
4 180 186 223 227
4 213 202 205 228
4 141 189 192 225
4 151 142 229 196
4 194 213 228 200
4 176 180 227 230
4 142 140 231 229
4 232 39 208 233
4 140 139 226 231
4 215 174 199 234
4 235 232 233 236
4 217 215 234 221
4 237 235 236 238
4 190 239 240 191
4 171 176 230 206
4 42 181 184 207
4 239 237 238 240
4 189 141 135 133
4 190 189 133 131
4 241 237 239 242
4 243 235 237 241
4 244 241 242 245
4 246 243 241 244
4 247 248 243 246
4 248 232 235 243
4 33 35 248 247
4 249 4 7 250
4 251 249 250 252
4 253 251 252 254
4 255 253 254 256
4 257 255 256 258
4 259 257 258 260
4 261 259 260 262
4 263 261 262 264
4 265 263 264 266
4 267 265 266 268
4 269 267 268 270
4 271 269 270 272
4 273 271 272 245
4 245 242 274 273
4 273 274 275 276
4 242 239 129 274
4 274 129 130 275
4 275 130 51 277
4 276 275 277 278
4 130 127 49 51
4 277 51 40 37
4 278 277 37 36
4 35 39 232 248
4 239 190 131 129
4 41 45 65 224
4 224 65 63 220
4 45 47 56 65
4 106 103 279 115
4 115 279 77 74
4 103 100 280 279
4 279 280 80 77
4 100 93 90 280
4 280 90 83 80
4 230 227 281 145
4 238 236 282 283
4 222 221 284 285
4 240 238 283 286
4 183 222 285 287
4 192 191 288 289
4 206 230 145 144
4 199 198 153 155
4 198 206 144 153
4 226 225 290 178
4 234 199 155 154
4 225 192 289 290
4 228 205 291 292
4 221 234 154 284
4 200 228 292 293
4 196 229 167 163
4 208 207 294 295
4 201 200 293 296
4 229 231 168 167
4 197 196 163 162
4 233 208 295 297
4 231 226 178 168
4 205 204 298 291
4 207 184 299 294
4 223 201 296 300
4 236 233 297 282
4 204 197 162 298
4 184 183 287 299
4 227 223 300 281
4 191 240 286 288
4 145 281 300 146
4 146 300 296 301
4 301 296 293 302
4 149 301 302 303
4 147 146 301 149
4 302 293 292 291
4 303 302 291 298
4 161 303 298 162
4 150 149 303 161
4 285 284 304 305
4 287 285 305 306
4 299 287 306 307
4 294 299 307 308
4 307 306 309 310
4 308 307 310 311
4 295 294 308 297
4 297 308 311 282
4 282 311 312 283
4 311 310 313 312
4 312 313 289 288
4 283 312 288 286
4 313 314 290 289
4 310 309 314 313
4 314 177 178 290
4 309 315 177 314
4 306 305 315 309
4 305 304 164 315
4 315 164 166 177
4 304 157 159 164
4 284 154 157 304
32 246 244 245 272 270 268 266 264 262 260 258 256 254 252 250 7 3 2 9 11 13 15 17 19 21 23 25 27 29 31 33 247
32 4 249 251 253 255 257 259 261 263 265 267 269 271 273 276 278 36 32 30 28 26 24 22 20 18 16 14 12 10 8 1 0
