ply
format ascii 1.0
comment Created in Blender version 4.1.1
element vertex 258
property float x
property float y
property float z
property float s
property float t
element face 141
property list uchar uint vertex_indices
end_header
-0.09394066 -0.6693233 0.51152134 0.6279961 0.940709
-0.06833015 -0.68530554 0.51152134 0.6667813 0.940709
-0.06833015 -0.68530554 0.61731696 0.6667813 0.8217959
-0.098836266 -0.66472346 0.61731696 0.6279961 0.8217959
-0.11594112 -0.64865184 0.6240345 0.6034771 0.0054225996
-0.098836266 -0.66472346 0.61731696 0.6308491 -0.0019913837
-0.098836266 -0.66472346 0.8068193 0.6276381 0.21101686
-0.11594112 -0.64865184 0.8068193 0.60136986 0.21113881
-0.09399961 -0.66136825 0.6240345 0.246273 0.66233873
-0.12115696 -0.46002167 0.6240345 -0.0046210364 0.66233873
-0.12115696 -0.46002167 0.8068193 -0.0066205114 0.3390685
-0.09480688 -0.66266185 0.8068193 0.24427351 0.3390685
-0.133486 -0.6240855 0.51152134 0.56885827 0.940709
-0.11594112 -0.64865184 0.51152134 0.60342556 0.940709
-0.11594112 -0.64865184 0.6240345 0.60342556 0.8217959
-0.133486 -0.6240855 0.6240345 0.56885827 0.8217959
-0.14590113 -0.59656835 0.51152134 0.5342909 0.940709
-0.14590113 -0.59656835 0.6240345 0.5342909 0.8217959
-0.15270935 -0.5671578 0.51152134 0.4997235 0.940709
-0.15270935 -0.5671578 0.6240345 0.4997235 0.8217959
-0.15364908 -0.53698426 0.51152134 0.46515617 0.940709
-0.15364908 -0.53698426 0.6240345 0.46515617 0.8217959
-0.14868414 -0.5072071 0.51152134 0.43058872 0.940709
-0.14868414 -0.5072071 0.6240345 0.43058872 0.8217959
-0.13800539 -0.4789707 0.51152134 0.3960213 0.940709
-0.13800539 -0.4789707 0.6240345 0.3960213 0.8217959
-0.07678536 -0.41381484 0.51152134 0.29812932 0.940709
-0.10135173 -0.43135977 0.51152134 0.33259773 0.940709
-0.10135173 -0.43135977 0.61731696 0.33259773 0.8217959
-0.07678536 -0.41381484 0.617317 0.29812932 0.8217959
-0.12202318 -0.4533602 0.51152134 0.37138626 0.940709
-0.12653467 -0.45816174 0.61731696 0.37138626 0.8217959
-0.049268194 -0.40139973 0.51152134 0.26366097 0.940709
-0.049268194 -0.40139973 0.617317 0.26366097 0.8217959
-0.04009376 -0.6959843 0.51152134 0.7012496 0.940709
-0.04009376 -0.6959843 0.617317 0.7012496 0.8217959
-0.019857682 -0.3945915 0.51152134 0.22919267 0.940709
-0.019857682 -0.3945915 0.617317 0.22919267 0.8217959
-0.010316625 -0.7009492 0.51152134 0.7357179 0.940709
0.019856978 -0.7000095 0.51152134 0.7701862 0.940709
0.019856978 -0.7000095 0.617317 0.7701862 0.8217959
-0.010316625 -0.7009492 0.617317 0.7357179 0.8217959
-0.11085906 -0.64420927 0.8135369 0.59215605 0.25150624
-0.10302307 -0.6515719 0.8135369 0.6011877 0.2591543
-0.12626375 -0.47284403 0.8135369 0.39957654 0.25908425
-0.13195617 -0.48196578 0.8135369 0.4086163 0.25143847
-0.14216688 -0.50896454 0.8135369 0.43698776 0.23584273
-0.14691415 -0.5374364 0.8135369 0.46799374 0.2261245
-0.14601564 -0.5662874 0.8135369 0.5003767 0.22271493
-0.13950583 -0.59440875 0.8135369 0.5327774 0.2261487
-0.12763491 -0.6207198 0.8135369 0.5637913 0.23589137
0.04926748 -0.6932013 0.51152134 0.73587006 0.940709
0.04926748 -0.6932013 0.617317 0.73587006 0.8217959
0.019856978 -0.7000095 0.617317 0.7702749 0.8217959
0.019856978 -0.7000095 0.51152134 0.7702749 0.940709
-0.133486 -0.6240855 0.6240345 0.5689451 0.0051188543
-0.133486 -0.6240855 0.8068193 0.56769615 0.21091947
-0.15364908 -0.53698426 0.6240345 0.4653506 0.0049335435
-0.15270935 -0.5671578 0.6240345 0.49988258 0.004874535
-0.15270935 -0.5671578 0.8068193 0.50011116 0.21070674
-0.15364908 -0.53698426 0.8068193 0.46629527 0.21076092
-0.14868414 -0.5072071 0.6240345 0.43081883 0.005114384
-0.14868414 -0.5072071 0.8068193 0.43246683 0.2109091
-0.14590113 -0.59656835 0.6240345 0.5344142 0.0049364045
-0.14590113 -0.59656835 0.8068193 0.53391737 0.21076152
-0.13800539 -0.4789707 0.6240345 0.39628896 0.0054212883
-0.13800539 -0.4789707 0.8068193 0.39859578 0.21107885
-0.12653467 -0.45816174 0.61731696 0.36859515 -0.0019913837
-0.1255796 -0.45905912 0.8068193 0.3721548 0.21101448
0.122022465 -0.64124084 0.51152134 0.6283432 0.940709
0.12653394 -0.6364393 0.61731696 0.6283432 0.8217959
0.101350985 -0.66324127 0.61731696 0.6670604 0.8217959
0.101350985 -0.66324127 0.51152134 0.6670604 0.940709
0.13800469 -0.6156303 0.6240345 0.6039933 0.994972
0.13800469 -0.6156303 0.8068193 0.6015314 0.7888607
0.12557887 -0.6355419 0.8068193 0.62803257 0.78888184
0.12653394 -0.6364393 0.61731696 0.63175845 1.0023814
0.12115626 -0.63457936 0.6240345 -0.0056295395 0.65968347
0.121156245 -0.63457936 0.8068193 -0.0056295395 0.34118256
0.094806194 -0.43193918 0.8068193 0.24526578 0.34118256
0.09399893 -0.43323278 0.6240345 0.24526578 0.65968347
0.14868343 -0.58739394 0.51152134 0.56924963 0.940709
0.14868343 -0.58739394 0.6240345 0.56924963 0.8217959
0.13800469 -0.6156303 0.6240345 0.6037533 0.8217959
0.13800469 -0.6156303 0.51152134 0.6037533 0.940709
0.15364836 -0.5576168 0.51152134 0.5347459 0.940709
0.15364836 -0.5576168 0.6240345 0.5347459 0.8217959
0.15270863 -0.5274432 0.51152134 0.5002421 0.940709
0.15270863 -0.5274432 0.6240345 0.5002421 0.8217959
0.14590041 -0.4980327 0.51152134 0.46573842 0.940709
0.14590041 -0.4980327 0.6240345 0.46573842 0.8217959
0.13348529 -0.47051552 0.51152134 0.43123463 0.940709
0.13348529 -0.47051552 0.6240345 0.43123463 0.8217959
0.11594039 -0.44594917 0.51152134 0.39673084 0.940709
0.11594039 -0.44594917 0.6240345 0.39673084 0.8217959
0.06832949 -0.4092955 0.51152134 0.33349192 0.940709
0.06832949 -0.4092955 0.61731696 0.33349192 0.8217959
0.09883558 -0.42987758 0.61731696 0.37220564 0.8217959
0.093939975 -0.4252777 0.51152134 0.37220564 0.940709
0.040093094 -0.39861673 0.51152134 0.29908705 0.940709
0.040093094 -0.39861673 0.617317 0.29908705 0.8217959
0.010315929 -0.39365178 0.51152134 0.26468217 0.940709
0.010315929 -0.39365178 0.617317 0.26468217 0.8217959
0.07678462 -0.68078613 0.51152134 0.70146525 0.940709
0.07678462 -0.68078613 0.617317 0.70146525 0.8217959
-0.019857682 -0.3945915 0.51152134 0.23027733 0.940709
-0.019857682 -0.3945915 0.617317 0.23027733 0.8217959
0.13195549 -0.6126352 0.8135369 0.591962 0.7477625
0.14216617 -0.5856365 0.8135369 0.56359035 0.7633581
0.14691344 -0.5571646 0.8135369 0.5325841 0.7730761
0.14601493 -0.5283136 0.8135369 0.50020087 0.77648544
0.13950512 -0.5001923 0.8135369 0.46780026 0.77305144
0.1276342 -0.47388124 0.8135369 0.43678653 0.76330864
0.11085833 -0.4503917 0.8135369 0.408422 0.7476935
0.103022374 -0.4430291 0.8135369 0.3993907 0.7400458
0.12626302 -0.62175703 0.8135369 0.601002 0.7401166
0.14868343 -0.58739394 0.6240345 0.5693861 0.99528044
0.14868343 -0.58739394 0.8068193 0.5675968 0.7891657
0.14590041 -0.4980327 0.6240345 0.4657252 0.9954634
0.14590041 -0.4980327 0.8068193 0.46611425 0.7898069
0.15270863 -0.5274432 0.8068193 0.4999026 0.7896942
0.15270863 -0.5274432 0.6240345 0.5002502 0.995525
0.13348529 -0.47051552 0.6240345 0.43123046 0.99527943
0.13348529 -0.47051552 0.8068193 0.43238154 0.7898133
0.15364836 -0.5576168 0.6240345 0.5348042 0.9954642
0.15364836 -0.5576168 0.8068193 0.5337293 0.78947324
0.11594039 -0.44594917 0.6240345 0.396768 0.9949732
0.11594039 -0.44594917 0.8068193 0.3987749 0.7897419
0.09883558 -0.42987758 0.61731696 0.36946943 1.0023814
0.09883558 -0.42987758 0.8068193 0.37256613 0.78990513
-0.09562826 -0.666025 0.8068193 0.63150084 0.21130577
-0.09737958 -0.66260207 0.8106978 0.62764305 0.21618411
-0.10188235 -0.65916157 0.81156945 0.62109643 0.21699324
-0.097535335 -0.6569375 0.81156945 0.24420783 0.32844886
-0.09737958 -0.66260207 0.8106978 0.25097567 0.32844886
-0.09562826 -0.666025 0.8068193 0.25104135 0.3390685
-0.10188235 -0.65916157 0.81156945 0.6101495 0.2594922
-0.09737958 -0.66260207 0.8106978 0.61484814 0.26431772
-0.097535335 -0.6569375 0.81156945 0.6081351 0.26486304
-0.12710197 -0.46521506 0.81156945 0.3787245 0.21700808
-0.1236288 -0.46073747 0.8106978 0.37215593 0.21619746
-0.12281112 -0.4569805 0.8068193 0.36828718 0.21131179
-0.12233072 -0.4662535 0.81156945 0.39257896 0.26486304
-0.1236288 -0.46073747 0.8106978 0.38579828 0.2643098
-0.12710197 -0.46521506 0.81156945 0.39054608 0.25943717
-0.12281112 -0.4569805 0.8068193 -0.0133883655 0.3390685
-0.1236288 -0.46073747 0.8106978 -0.013454065 0.32844886
-0.12233072 -0.4662535 0.81156945 -0.0066861957 0.32844886
0.12710126 -0.629386 0.81156945 0.62143743 0.7828834
0.1236281 -0.63386357 0.8106978 0.62802434 0.78368604
0.12281041 -0.63762057 0.8068193 0.63190997 0.78857946
0.12233 -0.6283475 0.81156945 0.6079998 0.73433757
0.1236281 -0.63386357 0.8106978 0.6147809 0.73489076
0.12710126 -0.629386 0.81156945 0.61003286 0.7397636
0.12281041 -0.63762057 0.8068193 -0.012397423 0.34118256
0.1236281 -0.63386357 0.8106978 -0.012397423 0.3307196
0.12233 -0.6283475 0.81156945 -0.0056295395 0.3307196
0.09562757 -0.42857608 0.8068193 0.36871186 0.7896204
0.09737889 -0.431999 0.8106978 0.37255487 0.78474987
0.10188166 -0.43543947 0.81156945 0.37908348 0.7839337
0.09753466 -0.43766356 0.81156945 0.24526578 0.3307196
0.09737889 -0.431999 0.8106978 0.2520337 0.3307196
0.09562757 -0.42857608 0.8068193 0.2520337 0.34118256
0.10188166 -0.43543947 0.81156945 0.3904295 0.73970795
0.09737889 -0.431999 0.8106978 0.38573122 0.7348827
0.09753466 -0.43766356 0.81156945 0.39244378 0.7343375
0.01960204 -0.69804895 0.62206703 0.7701862 0.8158019
-0.010184182 -0.69897664 0.62206703 0.7357179 0.8158019
-0.010184182 -0.69897664 0.62206703 0.65614736 0.66984606
0.01960204 -0.69804895 0.62206703 0.622584 0.673247
0.01898657 -0.6933158 0.6240346 0.622566 0.66740006
-0.009864433 -0.69421434 0.6240346 0.6549873 0.66411537
-0.039579026 -0.6940754 0.62206703 0.7012496 0.8158019
-0.039579026 -0.6940754 0.62206703 0.6884079 0.6599517
-0.038336344 -0.689467 0.6240345 0.68615246 0.6545607
-0.0674529 -0.6835338 0.622067 0.6667813 0.8158019
-0.0674529 -0.6835338 0.622067 0.71807706 0.64396757
-0.06533504 -0.6792563 0.6240346 0.7148335 0.63912094
-0.095391825 -0.6656461 0.622067 0.6279961 0.8158019
-0.095391825 -0.6656461 0.622067 0.7468386 0.61992645
-0.09399961 -0.66136825 0.6240345 0.7443537 0.6149536
-0.123090856 -0.45671764 0.622067 0.37138626 0.8158019
-0.100050524 -0.43284827 0.622067 0.33259773 0.8158019
-0.100050524 -0.43284827 0.622067 0.71732646 0.35764873
-0.123090856 -0.45671764 0.622067 0.7468386 0.38081056
-0.12115696 -0.46002167 0.6240345 0.7448412 0.38525608
-0.09690916 -0.4364418 0.6240346 0.71411633 0.36253327
-0.07579956 -0.4155286 0.62206703 0.29812932 0.8158019
-0.07579956 -0.4155286 0.62206703 0.6874939 0.34188497
-0.07341963 -0.41966596 0.6240345 0.6852781 0.34729773
-0.048635673 -0.40327287 0.62206703 0.26366097 0.8158019
-0.048635673 -0.40327287 0.62206703 0.65516675 0.3321672
-0.047108635 -0.407795 0.6240346 0.65404415 0.33790806
-0.019602744 -0.3965521 0.62206703 0.22919267 0.8158019
-0.019602744 -0.3965521 0.62206703 0.62156403 0.32895726
-0.018987274 -0.40128523 0.6240346 0.6215802 0.33480626
-0.114452615 -0.64735067 0.81156945 0.60135585 0.2169148
-0.114452615 -0.64735067 0.81156945 0.59550726 0.24669994
-0.13177226 -0.6230997 0.81156945 0.56766915 0.2167323
-0.13177226 -0.6230997 0.81156945 0.56607485 0.23053136
-0.14402798 -0.5959358 0.81156945 0.53390265 0.21658441
-0.14402798 -0.5959358 0.81156945 0.5339627 0.22042802
-0.1507488 -0.5669029 0.81156945 0.5001142 0.21653256
-0.1507488 -0.5669029 0.81156945 0.5003741 0.216867
-0.15167645 -0.5371167 0.81156945 0.46631607 0.21658918
-0.15167645 -0.5371167 0.81156945 0.4668064 0.22040698
-0.14677529 -0.50772184 0.81156945 0.43249908 0.21674421
-0.14677529 -0.50772184 0.81156945 0.43470305 0.23048529
-0.13623363 -0.47984794 0.81156945 0.39861175 0.21694121
-0.13623363 -0.47984794 0.81156945 0.40527272 0.24663542
-0.095391825 -0.6656461 0.622067 0.25304085 0.66233873
-0.095391825 -0.6656461 0.622067 0.6348954 0.0035724118
-0.123090856 -0.45671764 0.622067 -0.011388883 0.66233873
-0.123090856 -0.45671764 0.622067 0.36437938 0.0035928562
0.047107916 -0.68680596 0.6240346 0.59011996 0.6642809
0.048634958 -0.69132817 0.62206703 0.5889942 0.6700194
0.048634958 -0.69132817 0.62206703 0.73587006 0.8158019
0.01960204 -0.69804895 0.62206703 0.7702749 0.8158019
0.07341889 -0.67493504 0.6240345 0.5589037 0.65487677
0.07579882 -0.6790724 0.62206703 0.5566784 0.66028583
0.07579882 -0.6790724 0.62206703 0.70146525 0.8158019
0.09690844 -0.6581592 0.6240346 0.53010017 0.63954985
0.100049786 -0.66175276 0.622067 0.5268802 0.6444314
0.100049786 -0.66175276 0.622067 0.6670604 0.8158019
0.12115626 -0.63457936 0.6240345 0.49935913 0.6167989
0.12309015 -0.6378834 0.622067 0.49735928 0.6212466
0.12309015 -0.6378834 0.622067 0.6283432 0.8158019
0.06533436 -0.41534466 0.6240346 0.5292694 0.362941
0.09399893 -0.43323278 0.6240345 0.49975836 0.38709027
0.095391124 -0.42895496 0.622067 0.49727547 0.38211846
0.06745224 -0.41106725 0.622067 0.5260337 0.35809246
0.06745224 -0.41106725 0.622067 0.33349192 0.8158019
0.095391124 -0.42895496 0.622067 0.37220564 0.8158019
0.038335674 -0.405134 0.6240345 0.55797577 0.34757698
0.039578356 -0.40052557 0.62206703 0.5557298 0.34218383
0.039578356 -0.40052557 0.62206703 0.29908705 0.8158019
0.009863744 -0.4003867 0.6240346 0.5891418 0.33805352
0.010183485 -0.3956244 0.62206703 0.58798736 0.33232212
0.010183485 -0.3956244 0.62206703 0.26468217 0.8158019
-0.019602744 -0.3965521 0.62206703 0.23027733 0.8158019
0.13623291 -0.61475307 0.81156945 0.5953056 0.75256556
0.13623291 -0.61475307 0.81156945 0.60149884 0.7829859
0.14677458 -0.5868792 0.81156945 0.56587505 0.7687156
0.14677458 -0.5868792 0.81156945 0.56753886 0.78332096
0.15167573 -0.5574843 0.81156945 0.5337714 0.77879375
0.15167573 -0.5574843 0.81156945 0.5336799 0.7836405
0.15074809 -0.5276981 0.81156945 0.50020343 0.7823335
0.15074809 -0.5276981 0.81156945 0.49987024 0.78386885
0.14402726 -0.4986652 0.81156945 0.46661496 0.7787722
0.14402726 -0.4986652 0.81156945 0.46609992 0.7839896
0.13177155 -0.47150132 0.81156945 0.43450308 0.76866865
0.13177155 -0.47150132 0.81156945 0.43238142 0.7840108
0.11445189 -0.44725034 0.81156945 0.4050709 0.7524998
0.11445189 -0.44725034 0.81156945 0.3987716 0.78397775
0.12309015 -0.6378834 0.622067 0.6359798 0.9967811
0.12309015 -0.6378834 0.622067 -0.012397423 0.65968347
0.095391124 -0.42895496 0.622067 0.36542925 0.99683183
0.095391124 -0.42895496 0.622067 0.2520337 0.65968347
4 0 1 2 3
4 4 5 6 7
4 8 9 10 11
4 12 13 14 15
4 16 12 15 17
4 18 16 17 19
4 20 18 19 21
4 22 20 21 23
4 24 22 23 25
4 26 27 28 29
4 30 24 25 31
4 32 26 29 33
4 1 34 35 2
4 36 32 33 37
4 38 39 40 41
9 42 43 44 45 46 47 48 49 50
4 51 52 53 54
4 55 4 7 56
4 57 58 59 60
4 13 0 3 14
4 27 30 31 28
4 61 57 60 62
4 63 55 56 64
4 65 61 62 66
4 67 65 66 68
4 58 63 64 59
4 69 70 71 72
4 73 74 75 76
4 77 78 79 80
4 81 82 83 84
4 85 86 82 81
4 87 88 86 85
4 89 90 88 87
4 91 92 90 89
4 93 94 92 91
4 95 96 97 98
4 99 100 96 95
4 101 102 100 99
4 103 104 52 51
4 105 106 102 101
4 72 71 104 103
9 107 108 109 110 111 112 113 114 115
4 116 117 74 73
4 118 119 120 121
4 84 83 70 69
4 98 97 94 93
4 122 123 119 118
4 124 125 117 116
4 126 127 123 122
4 128 129 127 126
4 121 120 125 124
4 34 38 41 35
4 6 130 131 132
4 11 133 134 135
4 43 136 137 138
4 68 139 140 141
4 44 142 143 144
4 10 145 146 147
4 75 148 149 150
4 115 151 152 153
4 78 154 155 156
4 129 157 158 159
4 79 160 161 162
4 114 163 164 165
4 41 40 166 167
4 168 169 170 171
4 35 41 167 172
4 173 168 171 174
4 2 35 172 175
4 176 173 174 177
4 3 2 175 178
4 179 176 177 180
4 28 31 181 182
4 183 184 185 186
4 29 28 182 187
4 188 183 186 189
4 33 29 187 190
4 191 188 189 192
4 37 33 190 193
4 194 191 192 195
4 7 6 132 196
4 197 136 43 42
4 56 7 196 198
4 199 197 42 50
4 64 56 198 200
4 201 199 50 49
4 59 64 200 202
4 203 201 49 48
4 60 59 202 204
4 205 203 48 47
4 62 60 204 206
4 207 205 47 46
4 66 62 206 208
4 209 207 46 45
4 68 66 208 139
4 144 209 45 44
4 11 10 147 133
4 138 142 44 43
4 8 11 135 210
4 211 130 6 5
4 10 9 212 145
4 141 213 67 68
4 214 170 169 215
4 216 217 53 52
4 218 214 215 219
4 220 216 52 104
4 221 218 219 222
4 223 220 104 71
4 224 221 222 225
4 226 223 71 70
4 227 228 229 230
4 231 232 97 96
4 233 227 230 234
4 235 231 96 100
4 236 233 234 237
4 238 235 100 102
4 195 236 237 194
4 239 238 102 106
4 107 115 153 240
4 241 148 75 74
4 108 107 240 242
4 243 241 74 117
4 109 108 242 244
4 245 243 117 125
4 110 109 244 246
4 247 245 125 120
4 111 110 246 248
4 249 247 120 119
4 112 111 248 250
4 251 249 119 123
4 113 112 250 252
4 253 251 123 127
4 114 113 252 163
4 159 253 127 129
4 115 114 165 151
4 156 160 79 78
4 76 75 150 254
4 255 154 78 77
4 129 128 256 157
4 162 257 80 79
18 170 214 218 221 224 228 227 233 236 195 192 189 186 185 180 177 174 171
