ply
format ascii 1.0
comment Created in Blender version 4.1.1
element vertex 815
property float x
property float y
property float z
property float s
property float t
element face 458
property list uchar uint vertex_indices
end_header
0.69618535 -0.92756844 1.1372001 0.75 0.49
0.690188 -0.9272821 1.1311704 0.79682165 0.48538846
0.6838926 -0.92546797 1.1257404 0.841844 0.47173107
0.677541 -0.9221958 1.1211189 0.88333684 0.4495527
0.6713774 -0.9175914 1.1174834 0.9197056 0.41970563
0.6656387 -0.9118316 1.1149737 0.9495527 0.38333684
0.66054523 -0.9051378 1.1136861 0.97173107 0.34184402
0.6562929 -0.89776725 1.1136701 0.98538846 0.29682168
0.6530451 -0.8900032 1.1149266 0.99 0.24999999
0.6509266 -0.882144 1.1174068 0.98538846 0.20317832
0.6500188 -0.8744916 1.1210159 0.97173107 0.15815598
0.65035665 -0.8673402 1.125615 0.9495527 0.11666316
0.6519272 -0.8609646 1.1310272 0.9197056 0.080294386
0.65466994 -0.8556098 1.1370448 0.88333684 0.050447285
0.6584796 -0.85148156 1.1434364 0.841844 0.028268918
0.6632097 -0.8487385 1.1499562 0.79682165 0.014611527
0.6686785 -0.8474861 1.1563541 0.75 0.010000005
0.6746758 -0.8477725 1.1623838 0.70317835 0.014611527
0.68097126 -0.84958655 1.1678138 0.658156 0.028268918
0.68732285 -0.85285866 1.1724353 0.6166631 0.050447315
0.6934864 -0.8574631 1.1760707 0.5802944 0.08029437
0.6992252 -0.8632229 1.1785805 0.55044734 0.1166631
0.7043186 -0.86991674 1.1798681 0.52826893 0.15815595
0.7085709 -0.87728727 1.179884 0.51461154 0.20317832
0.7118187 -0.88505137 1.1786276 0.51 0.25
0.7139372 -0.8929106 1.1761472 0.51461154 0.2968217
0.714845 -0.90056294 1.1725382 0.52826893 0.34184405
0.71450716 -0.9077143 1.1679392 0.5504473 0.3833368
0.7129367 -0.9140899 1.1625268 0.5802944 0.4197056
0.71019393 -0.91944474 1.1565094 0.6166631 0.4495527
0.7063843 -0.923573 1.1501178 0.658156 0.4717311
0.7016542 -0.926316 1.1435978 0.70317835 0.48538846
0.1309425 -1.2543879 1.6956664 0.031249996 0.8228698
0.116548404 -1.2626623 1.7095904 0.031249996 0.88327205
0.11107957 -1.2639147 1.7031926 -1.8456153e-09 0.883273
0.1254737 -1.2556403 1.6892687 -1.3301169e-09 0.82287043
0.13567263 -1.2516448 1.7021863 0.0625 0.8228696
0.12127851 -1.2599193 1.7161103 0.06250001 0.8832717
0.13948227 -1.2475166 1.7085779 0.093750015 0.82287055
0.12508816 -1.255791 1.7225019 0.09375002 0.88327324
0.14222503 -1.2421618 1.7145954 0.125 0.82287043
0.12783092 -1.2504362 1.7285194 0.12500001 0.88327295
0.1437955 -1.2357862 1.7200078 0.15625003 0.82286894
0.1294014 -1.2440605 1.7339317 0.15625 0.8832731
0.14413336 -1.2286347 1.7246068 0.18750003 0.82287
0.12973924 -1.2369092 1.7385308 0.18750003 0.88327223
0.14322558 -1.2209824 1.7282158 0.21875003 0.8228679
0.12883148 -1.2292569 1.7421398 0.21875003 0.883273
0.14110708 -1.2131232 1.7306962 0.24999999 0.82287866
0.12671298 -1.2213976 1.7446201 0.24999999 0.88328
0.13785927 -1.2053591 1.7319525 0.28125 0.82287043
0.12346515 -1.2136335 1.7458766 0.28125 0.8832723
0.13360694 -1.1979885 1.7319367 0.3125 0.8228739
0.11921282 -1.206263 1.7458606 0.3125 0.8832773
0.12851351 -1.1912948 1.7306491 0.34375 0.8228717
0.114119396 -1.1995692 1.744573 0.34375 0.8832736
0.12277475 -1.185535 1.7281393 0.37499997 0.8228704
0.108380646 -1.1938094 1.7420633 0.37499997 0.8832725
0.11661117 -1.1809305 1.7245039 0.40624997 0.82287276
0.10221705 -1.1892049 1.7384278 0.40625 0.883276
0.11025962 -1.1776583 1.7198822 0.43749997 0.8228713
0.0958655 -1.1859328 1.7338063 0.43749997 0.8832735
0.103964195 -1.1758443 1.7144523 0.46875012 0.8228709
0.08957009 -1.1841187 1.7283763 0.46875006 0.88327324
0.09796685 -1.1755579 1.7084227 0.5 0.8228717
0.08357273 -1.1838323 1.7223465 0.49999997 0.88327324
0.092498034 -1.1768103 1.7020249 0.53125 0.8228686
0.07810393 -1.1850847 1.7159488 0.53125 0.8832733
0.08776793 -1.1795534 1.6955049 0.5625 0.82287115
0.07337381 -1.1878278 1.7094289 0.5625 0.8832737
0.08395828 -1.1836816 1.6891134 0.59375 0.8228704
0.06956418 -1.191956 1.7030374 0.59375 0.8832731
0.08121553 -1.1890365 1.6830959 0.625 0.8228717
0.06682141 -1.1973108 1.6970198 0.625 0.8832739
0.07964504 -1.195412 1.6776836 0.65625 0.82287157
0.06525092 -1.2036865 1.6916075 0.65625 0.8832725
0.0793072 -1.2025634 1.6730845 0.68749994 0.8228708
0.06491308 -1.2108378 1.6870085 0.6875 0.88327336
0.08021496 -1.2102158 1.6694756 0.7187501 0.8228718
0.06582086 -1.2184902 1.6833994 0.7187501 0.8832731
0.082333475 -1.218075 1.6669952 0.75000006 0.8228708
0.067939356 -1.2263495 1.680919 0.7500001 0.88327324
0.08558127 -1.2258391 1.6657387 0.78125 0.82286996
0.07118718 -1.2341135 1.6796627 0.78125 0.88327324
0.0898336 -1.2332096 1.6657547 0.8125001 0.8228706
0.07543951 -1.241484 1.6796786 0.8125001 0.8832737
0.09492703 -1.2399035 1.6670423 0.84374994 0.8228705
0.08053291 -1.2481779 1.6809661 0.84375 0.88327277
0.10066581 -1.2456632 1.669552 0.87499994 0.8228707
0.08627169 -1.2539376 1.683476 0.87499994 0.88327307
0.10682939 -1.2502676 1.6731875 0.90625 0.8228705
0.092435285 -1.2585421 1.6871114 0.90625 0.88327295
0.113180935 -1.2535398 1.677809 0.9375 0.8228492
0.098786816 -1.2618142 1.691733 0.93750006 0.883273
0.11947633 -1.2553539 1.683239 0.96875 0.8228724
0.10508223 -1.2636284 1.6971629 0.96874994 0.88327456
0.1254737 -1.2556403 1.6892687 1 0.8228775
0.11107957 -1.2639147 1.7031926 1 0.8832794
0.116548404 -1.2626623 1.7095904 0 0
0.12127851 -1.2599193 1.7161103 0 0
0.12508816 -1.255791 1.7225019 0 0
0.12783092 -1.2504362 1.7285194 0 0
0.1294014 -1.2440605 1.7339317 0 0
0.12973924 -1.2369092 1.7385308 0 0
0.12883148 -1.2292569 1.7421398 0 0
0.12671298 -1.2213976 1.7446201 0 0
0.12346515 -1.2136335 1.7458766 0 0
0.11921282 -1.206263 1.7458606 0 0
0.114119396 -1.1995692 1.744573 0 0
0.108380646 -1.1938094 1.7420633 0 0
0.10221705 -1.1892049 1.7384278 0 0
0.0958655 -1.1859328 1.7338063 0 0
0.08957009 -1.1841187 1.7283763 0 0
0.08357273 -1.1838323 1.7223465 0 0
0.07810393 -1.1850847 1.7159488 0 0
0.07337381 -1.1878278 1.7094289 0 0
0.06956418 -1.191956 1.7030374 0 0
0.06682141 -1.1973108 1.6970198 0 0
0.06525092 -1.2036865 1.6916075 0 0
0.06491308 -1.2108378 1.6870085 0 0
0.06582086 -1.2184902 1.6833994 0 0
0.067939356 -1.2263495 1.680919 0 0
0.07118718 -1.2341135 1.6796627 0 0
0.07543951 -1.241484 1.6796786 0 0
0.08053291 -1.2481779 1.6809661 0 0
0.08627169 -1.2539376 1.683476 0 0
0.092435285 -1.2585421 1.6871114 0 0
0.098786816 -1.2618142 1.691733 0 0
0.10508223 -1.2636284 1.6971629 0 0
0.11107957 -1.2639147 1.7031926 0 0
0.69618535 -0.92756844 1.1372001 1 0.5
0.690188 -0.9272821 1.1311704 0.96875 0.5
0.6838926 -0.92546797 1.1257404 0.9375 0.5
0.677541 -0.9221958 1.1211189 0.90625 0.5
0.6713774 -0.9175914 1.1174834 0.875 0.5
0.6656387 -0.9118316 1.1149737 0.84375 0.5
0.66054523 -0.9051378 1.1136861 0.8125 0.5
0.6562929 -0.89776725 1.1136701 0.78125 0.5
0.6530451 -0.8900032 1.1149266 0.75 0.5
0.6509266 -0.882144 1.1174068 0.71875 0.5
0.6500188 -0.8744916 1.1210159 0.6875 0.5
0.65035665 -0.8673402 1.125615 0.65625 0.5
0.6519272 -0.8609646 1.1310272 0.625 0.5
0.65466994 -0.8556098 1.1370448 0.59375 0.5
0.6584796 -0.85148156 1.1434364 0.5625 0.5
0.6632097 -0.8487385 1.1499562 0.53125 0.5
0.6686785 -0.8474861 1.1563541 0.5 0.5
0.6746758 -0.8477725 1.1623838 0.46875 0.5
0.68097126 -0.84958655 1.1678138 0.4375 0.5
0.68732285 -0.85285866 1.1724353 0.40625 0.5
0.6934864 -0.8574631 1.1760707 0.375 0.5
0.6992252 -0.8632229 1.1785805 0.34375 0.5
0.7043186 -0.86991674 1.1798681 0.3125 0.5
0.7085709 -0.87728727 1.179884 0.28125 0.5
0.7118187 -0.88505137 1.1786276 0.25 0.5
0.7139372 -0.8929106 1.1761472 0.21875 0.5
0.714845 -0.90056294 1.1725382 0.1875 0.5
0.71450716 -0.9077143 1.1679392 0.15625 0.5
0.7129367 -0.9140899 1.1625268 0.125 0.5
0.71019393 -0.91944474 1.1565094 0.09375 0.5
0.7063843 -0.923573 1.1501178 0.0625 0.5
0.7016542 -0.926316 1.1435978 0.03125 0.5
0.69618535 -0.92756844 1.1372001 0 0.5
0.72789717 -0.93796694 1.1258718 0.3125 0.8333333
0.72483397 -0.9319587 1.128231 0.28125 0.8333333
0.72685057 -0.9297064 1.1261953 0.28125 0.8333333
0.7302201 -0.93631554 1.1236001 0.3125 0.8333333
0.64402056 -0.9341621 1.1237214 0.75 0.49
0.64761496 -0.92921895 1.1200206 0.70317835 0.48538846
0.6518891 -0.92537403 1.1157783 0.658156 0.4717311
0.6566787 -0.9227752 1.1111572 0.6166631 0.4495527
0.66179967 -0.92152226 1.1063349 0.5802944 0.4197056
0.6670553 -0.9216635 1.1014968 0.5504472 0.3833368
0.6722435 -0.92319334 1.0968288 0.52826893 0.34184405
0.67716503 -0.9260529 1.0925102 0.5146115 0.2968217
0.68163073 -0.9301325 1.0887072 0.51 0.25
0.6854689 -0.93527526 1.0855656 0.51461154 0.20317832
0.6885321 -0.9412836 1.0832064 0.52826893 0.15815595
0.69070256 -0.9479265 1.0817202 0.55044734 0.1166631
0.69189703 -0.9549488 1.081164 0.5802944 0.080294356
0.6920694 -0.9620806 1.0815594 0.6166631 0.05044733
0.69121313 -0.96904784 1.082891 0.658156 0.028268933
0.68936116 -0.9755828 1.0851077 0.70317835 0.014611512
0.6865847 -0.98143417 1.0881243 0.75 0.010000005
0.6829903 -0.98637736 1.0918249 0.79682165 0.014611527
0.6787162 -0.9902222 1.0960673 0.841844 0.028268918
0.6739266 -0.99282104 1.1006883 0.88333684 0.05044727
0.6688056 -0.994074 1.1055107 0.9197056 0.080294386
0.66355 -0.9939328 1.1103487 0.9495527 0.11666316
0.6583617 -0.99240303 1.1150168 0.97173107 0.15815598
0.6534402 -0.9895434 1.1193354 0.98538846 0.20317832
0.64897454 -0.9854638 1.1231384 0.99 0.24999999
0.64513636 -0.98032105 1.12628 0.9853884 0.29682168
0.64207315 -0.9743127 1.1286392 0.97173107 0.34184402
0.63990265 -0.9676698 1.1301254 0.94955266 0.38333684
0.63870823 -0.96064746 1.1306815 0.9197056 0.41970563
0.63853586 -0.95351565 1.1302862 0.88333684 0.4495527
0.63939214 -0.94654846 1.1289545 0.841844 0.47173107
0.64124405 -0.9400135 1.1267378 0.79682165 0.48538846
0.7225976 -0.9889579 1.1743468 0.4495527 0.11666316
0.7174093 -0.9874281 1.1790149 0.4717311 0.15815598
0.7167152 -0.9908886 1.1799242 0.4717311 0.15815598
0.72242236 -0.99257135 1.1747894 0.4495527 0.11666316
0.63680106 -0.9454235 1.1312578 0.841844 0.47173107
0.63883823 -0.93823504 1.1288193 0.79682165 0.48538846
0.68323255 -0.9922745 1.1316814 0.65625 0.6666666
0.6780442 -0.9907447 1.1363494 0.6875 0.6666666
0.67735016 -0.9942052 1.1372589 0.6875 0.6666666
0.6830573 -0.99588794 1.1321241 0.65625 0.6666666
0.690855 -0.9396321 1.0809348 0.52826893 0.15815595
0.6932426 -0.94693935 1.0792999 0.55044734 0.1166631
0.6806091 -0.9366969 1.1694032 0.96875 0.8333333
0.6787572 -0.9432318 1.1716199 0.93749994 0.8333333
0.6761661 -0.94210684 1.1739231 0.93749994 0.8333333
0.6782033 -0.93491846 1.1714847 0.96875 0.8333333
0.7278532 -0.9890991 1.1695087 0.41970563 0.080294386
0.7282035 -0.9927266 1.1694676 0.41970563 0.080294386
0.6358592 -0.95308745 1.1327225 0.88333684 0.4495527
0.7209958 -0.9268159 1.1313726 0.25 0.8333333
0.7226286 -0.9240494 1.129651 0.25 0.8333333
0.6945565 -0.9546638 1.0786881 0.5802944 0.080294356
0.6779009 -0.95019907 1.1729516 0.90625 0.8333333
0.67522424 -0.9497708 1.1753879 0.90625 0.8333333
0.6731227 -0.9878851 1.140668 0.71875 0.6666666
0.6719365 -0.9910596 1.1420093 0.71875 0.6666666
0.73297423 -0.98784614 1.1646864 0.38333684 0.05044727
0.7338366 -0.99134845 1.164163 0.38333684 0.05044727
0.6360488 -0.96093243 1.1331575 0.9197056 0.41970563
0.6947461 -0.9625088 1.079123 0.6166631 0.05044733
0.6780733 -0.9573309 1.1733469 0.875 0.8333333
0.67541385 -0.95761585 1.1758227 0.875 0.8333333
0.7165301 -0.92273635 1.1351756 0.21875 0.8333333
0.7177164 -0.9195618 1.1338344 0.21875 0.8333333
0.73776376 -0.9852473 1.1600653 0.34184402 0.028268918
0.7391051 -0.98848975 1.1590798 0.34184402 0.028268918
0.6373626 -0.96865696 1.1325457 0.94955266 0.38333684
0.7002917 -0.93503857 1.1907359 0.29682168 0.48538846
0.6984397 -0.9415735 1.1929526 0.34184402 0.47173107
0.6975835 -0.94854075 1.1942842 0.38333684 0.4495527
0.6977559 -0.95567256 1.1946795 0.4197056 0.41970563
0.6989502 -0.96269494 1.1941235 0.44955269 0.38333684
0.7011208 -0.9693378 1.1926372 0.47173107 0.34184402
0.70418394 -0.9753461 1.190278 0.48538846 0.29682168
0.7080221 -0.98048896 1.1871365 0.49 0.24999999
0.7124878 -0.9845685 1.1833334 0.48538846 0.20317832
0.7420379 -0.98140246 1.155823 0.29682168 0.014611527
0.7456323 -0.9764593 1.1521224 0.24999997 0.010000005
0.7484088 -0.9706079 1.1491058 0.20317835 0.014611512
0.7502607 -0.96407294 1.1468891 0.15815598 0.028268933
0.75111705 -0.95710564 1.1455574 0.11666311 0.05044733
0.7509446 -0.9499739 1.1451621 0.0802944 0.080294356
0.7497502 -0.9429516 1.1457182 0.050447345 0.1166631
0.7475797 -0.9363087 1.1472045 0.028268918 0.15815595
0.7445165 -0.93030035 1.1495637 0.014611572 0.20317832
0.7406783 -0.9251576 1.1527052 0.010000005 0.25
0.7362126 -0.921078 1.1565083 0.014611542 0.2968217
0.7312911 -0.9182184 1.1608268 0.028268948 0.34184405
0.72610295 -0.91668856 1.1654948 0.050447255 0.3833368
0.72084725 -0.9165474 1.1703329 0.080294356 0.4197056
0.71572626 -0.9178003 1.1751552 0.11666311 0.4495527
0.71093667 -0.9203992 1.1797763 0.15815598 0.4717311
0.7066626 -0.92424405 1.1840186 0.20317835 0.48538846
0.70306814 -0.9291872 1.1877193 0.25 0.49
0.66865706 -0.98380554 1.1444712 0.75 0.6666666
0.66702425 -0.986572 1.1461927 0.75 0.6666666
0.69380414 -0.9701728 1.0805879 0.658156 0.028268933
0.7438067 -0.9842604 1.1544131 0.29682168 0.014611527
0.7477604 -0.97882295 1.1503425 0.24999997 0.010000005
0.67926764 -0.96435326 1.1727908 0.84374994 0.8333333
0.67672765 -0.9653404 1.1752111 0.84374994 0.8333333
0.6672975 -0.9275606 1.1413534 0.03125 0.6666666
0.6715716 -0.9237158 1.137111 0.0625 0.6666666
0.67023027 -0.92047334 1.1380966 0.0625 0.6666666
0.6655287 -0.92470276 1.1427631 0.03125 0.6666666
0.63975024 -0.9759642 1.1309108 0.97173107 0.34184402
0.71486384 -0.91429806 1.1756787 0.11666311 0.4495527
0.7095953 -0.91715676 1.1807618 0.15815598 0.4717311
0.7116086 -0.9198767 1.1394942 0.1875 0.8333333
0.7123027 -0.9164162 1.1385849 0.1875 0.8333333
0.6847591 -0.9892353 1.0904151 0.79682165 0.014611527
0.6800575 -0.99346465 1.0950818 0.841844 0.028268918
0.68143827 -0.97099614 1.1713045 0.8125 0.8333333
0.6791153 -0.9726476 1.1735761 0.8125 0.8333333
0.6763612 -0.92111695 1.1324899 0.09375 0.6666666
0.6754987 -0.9176147 1.1330132 0.09375 0.6666666
0.6648189 -0.9786627 1.1476127 0.78125 0.6666666
0.6628022 -0.98091507 1.1496484 0.78125 0.6666666
0.69176704 -0.97736126 1.0830262 0.70317835 0.014611512
0.71808124 -0.98690563 1.1387327 0.5625 0.8333333
0.72235537 -0.9830608 1.1344903 0.53125 0.8333333
0.72412413 -0.98591864 1.1330805 0.53125 0.8333333
0.7194226 -0.99014807 1.137747 0.5625 0.8333333
0.6431197 -0.98257333 1.1283157 0.9853884 0.29682168
0.720497 -0.9129199 1.1703742 0.080294356 0.4197056
0.6845014 -0.9770044 1.1689453 0.78125 0.8333333
0.6824848 -0.97925675 1.170981 0.78125 0.8333333
0.6814822 -0.919864 1.1276675 0.125 0.6666666
0.68113196 -0.9162364 1.1277088 0.125 0.6666666
0.7064204 -0.9183469 1.1441622 0.15625 0.8333333
0.70659566 -0.9147334 1.1437196 0.15625 0.8333333
0.6887129 -0.9837978 1.0863445 0.75 0.010000005
0.72594976 -0.9781176 1.1307896 0.5 0.8333333
0.7280779 -0.98048127 1.1290098 0.5 0.8333333
0.6473417 -0.98823035 1.12486 0.99 0.24999999
0.7262782 -0.9130751 1.1650522 0.050447255 0.3833368
0.6617557 -0.97265446 1.1499718 0.8125 0.6666666
0.65943277 -0.9743059 1.1522435 0.8125 0.6666666
0.72872627 -0.9722662 1.127773 0.46874997 0.8333333
0.73113215 -0.9740447 1.1256915 0.46874997 0.8333333
0.68833953 -0.9821472 1.1658039 0.75 0.8333333
0.6867068 -0.9849138 1.1675254 0.75 0.8333333
0.68673784 -0.9200052 1.1228294 0.15625 0.6666666
0.68691313 -0.91639173 1.1223868 0.15625 0.6666666
0.70626724 -0.9797759 1.109457 0.5 0.6666666
0.70267284 -0.9847191 1.1131576 0.53125 0.6666666
0.7044416 -0.98757696 1.1117477 0.53125 0.6666666
0.70839536 -0.9821396 1.1076772 0.5 0.6666666
0.652254 -0.99271786 1.1206765 0.98538846 0.20317832
0.7319852 -0.9147579 1.1599175 0.028268948 0.34184405
0.7011647 -0.91820574 1.1490002 0.125 0.8333333
0.7008145 -0.91457814 1.1490414 0.125 0.8333333
0.70904374 -0.9739245 1.1064404 0.46875 0.6666666
0.7114496 -0.97570294 1.1043589 0.46875 0.6666666
0.69280523 -0.9862268 1.1620007 0.71875 0.8333333
0.69161904 -0.9894013 1.163342 0.71875 0.8333333
0.691926 -0.921535 1.1181614 0.1875 0.6666666
0.6926201 -0.9180745 1.1172521 0.1875 0.6666666
0.6595852 -0.96601146 1.151458 0.84375 0.6666666
0.6570451 -0.9669987 1.1538783 0.84375 0.6666666
0.65766764 -0.9958635 1.1159263 0.97173107 0.15815598
0.7373989 -0.9179035 1.155167 0.014611542 0.2968217
0.6977268 -0.98908645 1.1576822 0.6875 0.8333333
0.6970327 -0.9925469 1.1585916 0.6875 0.8333333
0.69684756 -0.9243946 1.113843 0.21875 0.6666666
0.6980338 -0.92122006 1.1125016 0.21875 0.6666666
0.6960437 -0.9194586 1.1538225 0.09375 0.8333333
0.6951813 -0.9159564 1.154346 0.09375 0.8333333
0.6633748 -0.99754626 1.1107913 0.9495527 0.11666316
0.7423111 -0.92239106 1.1509837 0.010000005 0.25
0.65839076 -0.9589892 1.1520141 0.875 0.6666666
0.6557313 -0.9592742 1.1544901 0.875 0.6666666
0.6418923 -0.93179846 1.1255012 1 0.5
0.63883823 -0.93823504 1.1288193 0.96875 0.5
0.65852076 -0.9365767 1.1501521 0.96875 0.6666666
0.66157484 -0.93014014 1.1468338 1 0.6666666
0.6458462 -0.926361 1.1214304 0.03125 0.5
0.6418923 -0.93179846 1.1255012 0 0.5
0.66157484 -0.93014014 1.1468338 0 0.6666666
0.63680106 -0.9454235 1.1312578 0.9375 0.5
0.6564836 -0.94376516 1.1525904 0.9375 0.6666666
0.6358592 -0.95308745 1.1327225 0.90625 0.5
0.6555417 -0.9514291 1.1540552 0.90625 0.6666666
0.6360488 -0.96093243 1.1331575 0.875 0.5
0.6373626 -0.96865696 1.1325457 0.84375 0.5
0.63975024 -0.9759642 1.1309108 0.8125 0.5
0.6431197 -0.98257333 1.1283157 0.78125 0.5
0.6473417 -0.98823035 1.12486 0.75 0.5
0.652254 -0.99271786 1.1206765 0.71875 0.5
0.65766764 -0.9958635 1.1159263 0.6875 0.5
0.6633748 -0.99754626 1.1107913 0.65625 0.5
0.66915584 -0.9977015 1.1054695 0.625 0.5
0.68883836 -0.99604326 1.1268022 0.625 0.6666666
0.67478895 -0.99632335 1.100165 0.59375 0.5
0.6944715 -0.994665 1.1214976 0.59375 0.6666666
0.6800575 -0.99346465 1.0950818 0.5625 0.5
0.69974005 -0.9918063 1.1164144 0.5625 0.6666666
0.6847591 -0.9892353 1.0904151 0.53125 0.5
0.7508147 -0.97238636 1.1470242 0.46875 1
0.7477604 -0.97882295 1.1503425 0.5 1
0.7438067 -0.9842604 1.1544131 0.53125 1
0.7391051 -0.98848975 1.1590798 0.5625 1
0.714154 -0.9930067 1.1428304 0.59375 0.8333333
0.7338366 -0.99134845 1.164163 0.59375 1
0.7085209 -0.99438494 1.1481348 0.625 0.8333333
0.7282035 -0.9927266 1.1694676 0.625 1
0.70273983 -0.9942297 1.1534567 0.65625 0.8333333
0.72242236 -0.99257135 1.1747894 0.65625 1
0.7167152 -0.9908886 1.1799242 0.6875 1
0.71130157 -0.98774296 1.1846746 0.71875 1
0.7063893 -0.9832555 1.188858 0.75 1
0.70216733 -0.9775984 1.1923137 0.78125 1
0.6987978 -0.97098935 1.1949089 0.8125 1
0.6964102 -0.9636821 1.1965437 0.84375 1
0.6950964 -0.95595753 1.1971555 0.875 1
0.69490683 -0.9481125 1.1967206 0.90625 1
0.6958487 -0.9404485 1.1952558 0.9375 1
0.6978859 -0.93326014 1.1928174 0.96875 1
0.68125737 -0.9284819 1.1681665 1 0.8333333
0.70093995 -0.92682356 1.1894991 1 1
0.68521124 -0.92304444 1.1640959 0.03125 0.8333333
0.68125737 -0.9284819 1.1681665 0 0.8333333
0.70093995 -0.92682356 1.1894991 0 1
0.7048938 -0.9213861 1.1854285 0.03125 1
0.6899128 -0.9188151 1.1594292 0.0625 0.8333333
0.7095953 -0.91715676 1.1807618 0.0625 1
0.71486384 -0.91429806 1.1756787 0.09375 1
0.720497 -0.9129199 1.1703742 0.125 1
0.7262782 -0.9130751 1.1650522 0.15625 1
0.7319852 -0.9147579 1.1599175 0.1875 1
0.7373989 -0.9179035 1.155167 0.21875 1
0.7423111 -0.92239106 1.1509837 0.25 1
0.7465331 -0.9280481 1.1475279 0.28125 1
0.7499026 -0.9346572 1.1449327 0.3125 1
0.7326077 -0.9436227 1.1219653 0.34375 0.8333333
0.75229025 -0.94196445 1.1432979 0.34375 1
0.7339215 -0.95134723 1.1213535 0.375 0.8333333
0.75360405 -0.949689 1.1426862 0.375 1
0.7341112 -0.9591922 1.1217884 0.40625 0.8333333
0.7537937 -0.95753396 1.1431211 0.40625 1
0.7331693 -0.9668562 1.1232531 0.4375 0.8333333
0.75285184 -0.9651979 1.1445858 0.4375 1
0.69176704 -0.97736126 1.0830262 0.46875 0.5
0.69380414 -0.9701728 1.0805879 0.4375 0.5
0.7134867 -0.9685145 1.1019206 0.4375 0.6666666
0.6947461 -0.9625088 1.079123 0.40625 0.5
0.7144286 -0.96085054 1.1004558 0.40625 0.6666666
0.6887129 -0.9837978 1.0863445 0.5 0.5
0.6945565 -0.9546638 1.0786881 0.375 0.5
0.714239 -0.9530055 1.1000209 0.375 0.6666666
0.6932426 -0.94693935 1.0792999 0.34375 0.5
0.71292514 -0.945281 1.1006327 0.34375 0.6666666
0.690855 -0.9396321 1.0809348 0.3125 0.5
0.71053755 -0.9379738 1.1022675 0.3125 0.6666666
0.68748546 -0.933023 1.08353 0.28125 0.5
0.707168 -0.93136466 1.1048626 0.28125 0.6666666
0.6832635 -0.92736596 1.0869856 0.25 0.5
0.702946 -0.92570764 1.1083183 0.25 0.6666666
0.6783513 -0.9228784 1.091169 0.21875 0.5
0.6729376 -0.9197328 1.0959194 0.1875 0.5
0.6672306 -0.91805 1.1010542 0.15625 0.5
0.66144943 -0.9178947 1.106376 0.125 0.5
0.65581626 -0.9192729 1.1116806 0.09375 0.5
0.65054774 -0.92213166 1.1167638 0.0625 0.5
0.6833856 -0.9308455 1.1663866 1 0.8333333
0.68748546 -0.933023 1.08353 0.51461154 0.20317832
0.71130157 -0.98774296 1.1846746 0.48538846 0.20317832
0.6884881 -0.99241567 1.1268433 0.625 0.6666666
0.6832635 -0.92736596 1.0869856 0.51 0.25
0.7300677 -0.94460994 1.1243856 0.34375 0.8333333
0.7063893 -0.9832555 1.188858 0.49 0.24999999
0.6783513 -0.9228784 1.091169 0.5146115 0.2968217
0.6936091 -0.9911627 1.1220211 0.59375 0.6666666
0.70216733 -0.9775984 1.1923137 0.48538846 0.29682168
0.7312621 -0.9516322 1.1238294 0.375 0.8333333
0.6729376 -0.9197328 1.0959194 0.52826893 0.34184405
0.6987978 -0.97098935 1.1949089 0.47173107 0.34184402
0.6983987 -0.9885639 1.1173999 0.5625 0.6666666
0.6672306 -0.91805 1.1010542 0.5504472 0.3833368
0.7314345 -0.95876396 1.1242247 0.40625 0.8333333
0.6964102 -0.9636821 1.1965437 0.44955269 0.38333684
0.66144943 -0.9178947 1.106376 0.5802944 0.4197056
0.6950964 -0.95595753 1.1971555 0.4197056 0.41970563
0.7305782 -0.96573126 1.1255563 0.4375 0.8333333
0.65581626 -0.9192729 1.1116806 0.6166631 0.4495527
0.69490683 -0.9481125 1.1967206 0.38333684 0.4495527
0.65054774 -0.92213166 1.1167638 0.658156 0.4717311
0.6418923 -0.93179846 1.1255012 0.75 0.49
0.6958487 -0.9404485 1.1952558 0.34184402 0.47173107
0.6458462 -0.926361 1.1214304 0.70317835 0.48538846
0.6978859 -0.93326014 1.1928174 0.29682168 0.48538846
0.7508147 -0.97238636 1.1470242 0.20317835 0.014611512
0.75285184 -0.9651979 1.1445858 0.15815598 0.028268933
0.71175194 -0.9604223 1.102892 0.40625 0.6666666
0.71089566 -0.9673895 1.1042237 0.4375 0.6666666
0.7537937 -0.95753396 1.1431211 0.11666311 0.05044733
0.6637031 -0.93250376 1.145054 0 0.6666666
0.70093995 -0.92682356 1.1894991 0.25 0.49
0.6609266 -0.9383552 1.1480706 0.96875 0.6666666
0.6637031 -0.93250376 1.145054 1 0.6666666
0.71157956 -0.95329046 1.1024966 0.375 0.6666666
0.7048938 -0.9213861 1.1854285 0.20317835 0.48538846
0.75360405 -0.949689 1.1426862 0.0802944 0.080294356
0.65907466 -0.94489014 1.1502873 0.9375 0.6666666
0.7103851 -0.9462682 1.1030529 0.34375 0.6666666
0.75229025 -0.94196445 1.1432979 0.050447345 0.1166631
0.70821464 -0.93962526 1.1045392 0.3125 0.6666666
0.71329165 -0.98950446 1.1433537 0.59375 0.8333333
0.6582184 -0.9518574 1.1516188 0.90625 0.6666666
0.68698 -0.92590237 1.162686 0.03125 0.8333333
0.6833856 -0.9308455 1.1663866 0 0.8333333
0.7499026 -0.9346572 1.1449327 0.028268918 0.15815595
0.67478895 -0.99632335 1.100165 0.88333684 0.05044727
0.69125414 -0.92205745 1.1584437 0.0625 0.8333333
0.70515144 -0.93361694 1.1068983 0.28125 0.6666666
0.70817065 -0.99075735 1.1481761 0.625 0.8333333
0.7465331 -0.9280481 1.1475279 0.014611572 0.20317832
0.66915584 -0.9977015 1.1054695 0.9197056 0.080294386
0.70131326 -0.9284742 1.1100398 0.25 0.6666666
0.7029151 -0.9906162 1.1530142 0.65625 0.8333333
0.7071636 -0.83650565 1.1767361 0.014611542 0.2968217
0.7055056 -0.8431475 1.1787821 0.028268948 0.34184405
0.707956 -0.84480035 1.1766498 0.028268948 0.34184405
0.70977986 -0.8374943 1.1743991 0.014611542 0.2968217
0.59579134 -0.8217069 1.1594782 0.98538846 0.20317832
0.59513885 -0.8287287 1.160626 0.99 0.24999999
0.59245735 -0.8284421 1.1630778 0.99 0.24999999
0.5931752 -0.82071817 1.1618152 0.98538846 0.20317832
0.664323 -0.81216455 1.1351275 0.34375 0.6666666
0.66667926 -0.81870073 1.1334616 0.3125 0.6666666
0.66918355 -0.81757724 1.1310637 0.3125 0.6666666
0.66659164 -0.8103875 1.1328962 0.34375 0.6666666
0.646458 -0.84812236 1.1147841 0.52826893 0.34184405
0.64811593 -0.8414806 1.1127381 0.5146115 0.2968217
0.6507322 -0.8424692 1.1104012 0.5146115 0.2968217
0.6489084 -0.84977525 1.1126518 0.52826893 0.34184405
0.6877557 -0.8240103 1.1540499 0.28125 0.8333333
0.6863618 -0.8170424 1.1547942 0.3125 0.8333333
0.6888661 -0.8159189 1.1523963 0.3125 0.8333333
0.6903993 -0.82358366 1.1515775 0.28125 0.8333333
0.6545644 -0.83088565 1.2248298 0.48538846 0.29682168
0.65418637 -0.8237537 1.2246242 0.49 0.24999999
0.65150493 -0.82346725 1.2270759 0.49 0.24999999
0.6519207 -0.8313123 1.2273022 0.48538846 0.29682168
0.6680732 -0.82566863 1.1327171 0.28125 0.6666666
0.67071676 -0.825242 1.1302449 0.28125 0.6666666
0.7078161 -0.8294839 1.1755883 0.010000005 0.25
0.7104976 -0.82977045 1.1731365 0.010000005 0.25
0.5955168 -0.8358605 1.1608317 0.9853884 0.29682168
0.5928731 -0.83628714 1.1633041 0.9853884 0.29682168
0.6881336 -0.8311422 1.1542556 0.25 0.8333333
0.6908151 -0.8314287 1.1518037 0.25 0.8333333
0.64876854 -0.8344588 1.1115901 0.51 0.25
0.65145 -0.8347453 1.1091385 0.51 0.25
0.6684511 -0.8328005 1.1329229 0.25 0.6666666
0.67113256 -0.833087 1.1304711 0.25 0.6666666
0.6559583 -0.83785343 1.2240853 0.47173107 0.34184402
0.65345395 -0.838977 1.2264833 0.47173107 0.34184402
0.68748105 -0.838164 1.1554035 0.21875 0.8333333
0.69009733 -0.8391526 1.1530664 0.21875 0.8333333
0.70743823 -0.82235205 1.1753825 0.014611572 0.20317832
0.7100818 -0.8219254 1.1729102 0.014611572 0.20317832
0.5969107 -0.8428284 1.1600873 0.97173107 0.34184402
0.59440637 -0.8439518 1.1624852 0.97173107 0.34184402
0.6677985 -0.8398223 1.1340708 0.21875 0.6666666
0.6704148 -0.8408109 1.1317338 0.21875 0.6666666
0.6483906 -0.8273269 1.1113845 0.51461154 0.20317832
0.65103424 -0.82690024 1.1089122 0.51461154 0.20317832
0.6858231 -0.8448058 1.1574495 0.1875 0.8333333
0.6882735 -0.8464587 1.1553171 0.1875 0.8333333
0.65831447 -0.8443897 1.2224195 0.44955269 0.38333684
0.6560458 -0.84616673 1.2246509 0.44955269 0.38333684
0.66614056 -0.8464641 1.1361167 0.1875 0.6666666
0.66859096 -0.848117 1.1339844 0.1875 0.6666666
0.7060443 -0.81538415 1.176127 0.028268918 0.15815595
0.7085486 -0.8142606 1.1737291 0.028268918 0.15815595
0.6553972 -0.86329573 1.1869591 0.96875 0.8333333
0.66061497 -0.86455166 1.1822426 1 0.8333333
0.6605445 -0.8681792 1.1825895 1 0.8333333
0.65480506 -0.86679757 1.1877778 0.96875 0.8333333
0.59926695 -0.8493645 1.1584214 0.94955266 0.38333684
0.5969982 -0.8511417 1.1606528 0.94955266 0.38333684
0.6832235 -0.8508124 1.1603149 0.15625 0.8333333
0.68541396 -0.8530659 1.158469 0.15625 0.8333333
0.6469967 -0.820359 1.112129 0.52826893 0.15815595
0.64950097 -0.81923556 1.109731 0.52826893 0.15815595
0.64093244 -0.86621 1.1609099 1 0.6666666
0.63571465 -0.864954 1.1656265 0.96875 0.6666666
0.6351225 -0.8684559 1.166445 0.96875 0.6666666
0.640862 -0.86983746 1.1612569 1 0.6666666
0.66354096 -0.8524707 1.1389823 0.15625 0.6666666
0.66573143 -0.8547242 1.1371363 0.15625 0.6666666
0.65040696 -0.86069405 1.1913612 0.93749994 0.8333333
0.6493158 -0.8639357 1.1926199 0.93749994 0.8333333
0.66154265 -0.85024285 1.219896 0.4197056 0.41970563
0.6595968 -0.8526053 1.2218751 0.4197056 0.41970563
0.6750797 -0.8616374 1.2082919 0.29682168 0.48538846
0.6802975 -0.86289334 1.2035754 0.25 0.49
0.68554235 -0.8627553 1.1987255 0.20317835 0.48538846
0.6906127 -0.8612286 1.1939287 0.15815598 0.4717311
0.69531363 -0.85837173 1.1893692 0.11666311 0.4495527
0.69946456 -0.8542947 1.1852224 0.080294356 0.4197056
0.702906 -0.8491541 1.1816475 0.050447255 0.3833368
0.703688 -0.80884796 1.1777929 0.050447345 0.1166631
0.70045996 -0.8029947 1.1803162 0.0802944 0.080294356
0.696484 -0.7980494 1.1836002 0.11666311 0.05044733
0.6919131 -0.7942019 1.1875185 0.15815598 0.028268933
0.6869229 -0.7916002 1.1919205 0.20317835 0.014611512
0.6817051 -0.79034424 1.1966369 0.24999997 0.010000005
0.67646027 -0.7904823 1.2014868 0.29682168 0.014611527
0.67138994 -0.79200906 1.2062837 0.34184402 0.028268918
0.6666889 -0.79486585 1.2108431 0.38333684 0.05044727
0.66253793 -0.7989429 1.2149899 0.41970563 0.080294386
0.6590966 -0.80408347 1.2185647 0.4495527 0.11666316
0.65649694 -0.8100902 1.2214302 0.4717311 0.15815598
0.654839 -0.8167319 1.2234762 0.48538846 0.20317832
0.6655186 -0.85518825 1.2166121 0.38333684 0.4495527
0.6700895 -0.85903573 1.2126938 0.34184402 0.47173107
0.67978203 -0.855953 1.1638896 0.125 0.8333333
0.6816284 -0.85872066 1.1624013 0.125 0.8333333
0.7059567 -0.80707085 1.1755615 0.050447345 0.1166631
0.6212499 -0.8678683 1.1395773 0.75 0.49
0.6160321 -0.8666123 1.1442938 0.79682165 0.48538846
0.6110419 -0.86401063 1.1486958 0.841844 0.47173107
0.60647094 -0.86016315 1.1526141 0.88333684 0.4495527
0.6024951 -0.85521775 1.155898 0.9197056 0.41970563
0.5974493 -0.815065 1.1574322 0.97173107 0.15815598
0.600049 -0.8090584 1.1545666 0.9495527 0.11666316
0.60349035 -0.80391777 1.1509919 0.9197056 0.080294386
0.60764134 -0.7998408 1.1468451 0.88333684 0.05044727
0.61234236 -0.79698396 1.1422856 0.841844 0.028268918
0.6174127 -0.79545724 1.1374888 0.79682165 0.014611527
0.62265754 -0.79531914 1.1326389 0.75 0.010000005
0.62787527 -0.79657507 1.1279224 0.70317835 0.014611512
0.63286555 -0.7991768 1.1235205 0.658156 0.028268933
0.6374364 -0.8030243 1.1196022 0.6166631 0.05044733
0.6414124 -0.8079697 1.1163182 0.5802944 0.080294356
0.64464045 -0.81382287 1.1137948 0.55044734 0.1166631
0.64385843 -0.85412896 1.1176496 0.5504472 0.3833368
0.64041704 -0.8592696 1.1212244 0.5802944 0.4197056
0.6362661 -0.8633467 1.1253712 0.6166631 0.4495527
0.63156503 -0.8662035 1.1299306 0.658156 0.4717311
0.62649477 -0.8677302 1.1347275 0.70317835 0.48538846
0.63072443 -0.8623523 1.1700284 0.9375 0.6666666
0.6296332 -0.865594 1.1712873 0.9375 0.6666666
0.60054916 -0.8575802 1.157877 0.9197056 0.41970563
0.6600996 -0.8576113 1.142557 0.125 0.6666666
0.66194594 -0.8603789 1.1410687 0.125 0.6666666
0.6469091 -0.8120458 1.1115634 0.55044734 0.1166631
0.64583606 -0.8568466 1.1952794 0.90625 0.8333333
0.64428777 -0.8597035 1.1969299 0.90625 0.8333333
0.6756311 -0.86003006 1.1680366 0.09375 0.8333333
0.67706233 -0.8632054 1.1669629 0.09375 0.8333333
0.62615347 -0.8585049 1.1739467 0.90625 0.6666666
0.6246052 -0.8613618 1.1755973 0.90625 0.6666666
0.6639703 -0.8580452 1.2182627 0.38333684 0.4495527
0.6559486 -0.8616884 1.1467038 0.09375 0.6666666
0.6573798 -0.86486363 1.1456301 0.09375 0.6666666
0.7024058 -0.80063236 1.1783373 0.0802944 0.080294356
0.6418601 -0.8519012 1.1985633 0.875 0.8333333
0.6399143 -0.85426354 1.2005423 0.875 0.8333333
0.60492265 -0.86302006 1.1542647 0.88333684 0.4495527
0.67093015 -0.8628869 1.172596 0.0625 0.8333333
0.67189133 -0.86634785 1.1719782 0.0625 0.8333333
0.64335823 -0.8056072 1.1143392 0.5802944 0.080294356
0.6221776 -0.8535595 1.1772306 0.875 0.6666666
0.6202317 -0.85592186 1.1792097 0.875 0.6666666
0.6512476 -0.86454517 1.1512632 0.0625 0.6666666
0.6522088 -0.86800617 1.1506455 0.0625 0.6666666
0.63863194 -0.846048 1.2010869 0.84374994 0.8333333
0.63636327 -0.84782505 1.2033181 0.84374994 0.8333333
0.6689983 -0.8622774 1.2139525 0.34184402 0.47173107
0.6658598 -0.8644136 1.1773927 0.03125 0.8333333
0.6663139 -0.86802727 1.1772547 0.03125 0.8333333
0.6980323 -0.7951925 1.1819496 0.11666311 0.05044733
0.6189495 -0.84770626 1.179754 0.84375 0.6666666
0.61668074 -0.8494834 1.1819854 0.84375 0.6666666
0.60995066 -0.8672523 1.1499546 0.841844 0.47173107
0.6461773 -0.8660719 1.1560601 0.03125 0.6666666
0.64663136 -0.8696856 1.155922 0.03125 0.6666666
0.6389847 -0.8001673 1.1179516 0.6166631 0.05044733
0.63627577 -0.83951175 1.2027527 0.8125 0.8333333
0.6337714 -0.84063524 1.2051506 0.8125 0.8333333
0.66061497 -0.86455166 1.1822426 0 0.8333333
0.6605445 -0.8681792 1.1825895 0 0.8333333
0.61659324 -0.8411701 1.18142 0.8125 0.6666666
0.6140889 -0.84229356 1.1838179 0.8125 0.6666666
0.6744876 -0.8651393 1.2091105 0.29682168 0.48538846
0.64093244 -0.86621 1.1609099 0 0.6666666
0.640862 -0.86983746 1.1612569 0 0.6666666
0.69300425 -0.7909602 1.1862597 0.15815598 0.028268933
0.63488185 -0.8325439 1.2034972 0.78125 0.8333333
0.63223815 -0.83297056 1.2059695 0.78125 0.8333333
0.61543995 -0.8701142 1.1451124 0.79682165 0.48538846
0.68022704 -0.8665209 1.2039223 1 1
0.6744876 -0.8651393 1.2091105 0.96875 1
0.6689983 -0.8622774 1.2139525 0.9375 1
0.6639703 -0.8580452 1.2182627 0.90625 1
0.6595968 -0.8526053 1.2218751 0.875 1
0.6560458 -0.84616673 1.2246509 0.84375 1
0.65345395 -0.838977 1.2264833 0.8125 1
0.6519207 -0.8313123 1.2273022 0.78125 1
0.65150493 -0.82346725 1.2270759 0.75 1
0.6318224 -0.8251255 1.2057432 0.75 0.8333333
0.65222275 -0.81574327 1.2258132 0.71875 1
0.6325402 -0.8174015 1.2044805 0.71875 0.8333333
0.65404654 -0.8084373 1.2235626 0.6875 1
0.634364 -0.81009555 1.20223 0.6875 0.8333333
0.6569061 -0.80182993 1.2204106 0.65625 1
0.6372236 -0.80348825 1.1990778 0.65625 0.8333333
0.6606916 -0.7961753 1.2164783 0.625 1
0.6410091 -0.79783356 1.1951456 0.625 0.8333333
0.6652577 -0.7916906 1.2119168 0.59375 1
0.64557517 -0.79334885 1.1905841 0.59375 0.8333333
0.67042875 -0.7885481 1.2069014 0.5625 1
0.6507462 -0.7902064 1.1855688 0.5625 0.8333333
0.6760062 -0.7868686 1.2016249 0.53125 1
0.6563237 -0.7885269 1.1802921 0.53125 0.8333333
0.68177545 -0.7867168 1.19629 0.5 1
0.6620929 -0.7883751 1.1749574 0.5 0.8333333
0.687515 -0.78809834 1.1911019 0.46875 1
0.6678325 -0.78975666 1.1697692 0.46874997 0.8333333
0.69300425 -0.7909602 1.1862597 0.4375 1
0.6733217 -0.7926185 1.164927 0.4375 0.8333333
0.6980323 -0.7951925 1.1819496 0.40625 1
0.6783498 -0.79685074 1.1606169 0.40625 0.8333333
0.7024058 -0.80063236 1.1783373 0.375 1
0.6827233 -0.8022906 1.1570046 0.375 0.8333333
0.7059567 -0.80707085 1.1755615 0.34375 1
0.6862742 -0.8087292 1.1542288 0.34375 0.8333333
0.7085486 -0.8142606 1.1737291 0.3125 1
0.7100818 -0.8219254 1.1729102 0.28125 1
0.7104976 -0.82977045 1.1731365 0.25 1
0.70977986 -0.8374943 1.1743991 0.21875 1
0.707956 -0.84480035 1.1766498 0.1875 1
0.7050965 -0.85140765 1.1798017 0.15625 1
0.70131093 -0.85706234 1.183734 0.125 1
0.69674486 -0.86154705 1.1882955 0.09375 1
0.69157386 -0.8646896 1.1933109 0.0625 1
0.6859964 -0.866369 1.1985874 0.03125 1
0.68022704 -0.8665209 1.2039223 0 1
0.62694883 -0.87134385 1.1345893 0.03125 0.5
0.62117946 -0.8714958 1.1399242 0 0.5
0.6325262 -0.86966443 1.1293129 0.0625 0.5
0.6376973 -0.86652195 1.1242974 0.09375 0.5
0.64226335 -0.8620372 1.119736 0.125 0.5
0.6460489 -0.8563825 1.1158037 0.15625 0.5
0.6489084 -0.84977525 1.1126518 0.1875 0.5
0.6507322 -0.8424692 1.1104012 0.21875 0.5
0.65145 -0.8347453 1.1091385 0.25 0.5
0.65103424 -0.82690024 1.1089122 0.28125 0.5
0.64950097 -0.81923556 1.109731 0.3125 0.5
0.6469091 -0.8120458 1.1115634 0.34375 0.5
0.64335823 -0.8056072 1.1143392 0.375 0.5
0.6630408 -0.80394894 1.1356719 0.375 0.6666666
0.6389847 -0.8001673 1.1179516 0.40625 0.5
0.65866727 -0.79850906 1.1392843 0.40625 0.6666666
0.6339567 -0.79593515 1.1222618 0.4375 0.5
0.6536392 -0.79427683 1.1435944 0.4375 0.6666666
0.62846744 -0.79307324 1.1271038 0.46875 0.5
0.64814997 -0.791415 1.1484365 0.46875 0.6666666
0.62272793 -0.79169166 1.132292 0.5 0.5
0.6424104 -0.7900334 1.1536248 0.5 0.6666666
0.6169586 -0.79184353 1.1376269 0.53125 0.5
0.63664114 -0.7901852 1.1589595 0.53125 0.6666666
0.6113812 -0.79352295 1.1429033 0.5625 0.5
0.6310637 -0.7918647 1.1642361 0.5625 0.6666666
0.6062101 -0.79666543 1.1479187 0.59375 0.5
0.62589264 -0.79500717 1.1692514 0.59375 0.6666666
0.60164404 -0.8011502 1.1524802 0.625 0.5
0.62132657 -0.7994919 1.1738129 0.625 0.6666666
0.59785855 -0.80680484 1.1564125 0.65625 0.5
0.6175411 -0.8051466 1.1777451 0.65625 0.6666666
0.5949989 -0.8134122 1.1595645 0.6875 0.5
0.6146814 -0.81175387 1.1808972 0.6875 0.6666666
0.5931752 -0.82071817 1.1618152 0.71875 0.5
0.6128577 -0.81905985 1.1831479 0.71875 0.6666666
0.59245735 -0.8284421 1.1630778 0.75 0.5
0.6121399 -0.82678384 1.1844106 0.75 0.6666666
0.5928731 -0.83628714 1.1633041 0.78125 0.5
0.6125556 -0.8346289 1.1846368 0.78125 0.6666666
0.59440637 -0.8439518 1.1624852 0.8125 0.5
0.5969982 -0.8511417 1.1606528 0.84375 0.5
0.60054916 -0.8575802 1.157877 0.875 0.5
0.60492265 -0.86302006 1.1542647 0.90625 0.5
0.60995066 -0.8672523 1.1499546 0.9375 0.5
0.61543995 -0.8701142 1.1451124 0.96875 0.5
0.62117946 -0.8714958 1.1399242 1 0.5
0.6840055 -0.8105062 1.1564602 0.34375 0.8333333
0.65222275 -0.81574327 1.2258132 0.48538846 0.20317832
0.66109496 -0.80631137 1.1376508 0.375 0.6666666
0.6460489 -0.8563825 1.1158037 0.5504472 0.3833368
0.68077743 -0.80465305 1.1589836 0.375 0.8333333
0.5949989 -0.8134122 1.1595645 0.97173107 0.15815598
0.7050965 -0.85140765 1.1798017 0.050447255 0.3833368
0.657119 -0.801366 1.1409348 0.40625 0.6666666
0.65404654 -0.8084373 1.2235626 0.4717311 0.15815598
0.6768015 -0.79970765 1.1622676 0.40625 0.8333333
0.64226335 -0.8620372 1.119736 0.5802944 0.4197056
0.6525481 -0.7975185 1.1448531 0.4375 0.6666666
0.59785855 -0.80680484 1.1564125 0.9495527 0.11666316
0.70131093 -0.85706234 1.183734 0.080294356 0.4197056
0.6722306 -0.7958602 1.1661859 0.4375 0.8333333
0.6569061 -0.80182993 1.2204106 0.4495527 0.11666316
0.6475578 -0.7949168 1.149255 0.46875 0.6666666
0.6376973 -0.86652195 1.1242974 0.6166631 0.4495527
0.6672404 -0.7932585 1.1705878 0.46874997 0.8333333
0.60164404 -0.8011502 1.1524802 0.9197056 0.080294386
0.69674486 -0.86154705 1.1882955 0.11666311 0.4495527
0.64234006 -0.7936609 1.1539717 0.5 0.6666666
0.6606916 -0.7961753 1.2164783 0.41970563 0.080294386
0.6620226 -0.79200256 1.1753043 0.5 0.8333333
0.6325262 -0.86966443 1.1293129 0.658156 0.4717311
0.6370952 -0.7937989 1.1588215 0.53125 0.6666666
0.6062101 -0.79666543 1.1479187 0.88333684 0.05044727
0.69157386 -0.8646896 1.1933109 0.15815598 0.4717311
0.65677774 -0.7921406 1.1801542 0.53125 0.8333333
0.6652577 -0.7916906 1.2119168 0.38333684 0.05044727
0.6320249 -0.79532564 1.1636183 0.5625 0.6666666
0.62694883 -0.87134385 1.1345893 0.70317835 0.48538846
0.6517074 -0.7936673 1.184951 0.5625 0.8333333
0.6113812 -0.79352295 1.1429033 0.841844 0.028268918
0.6859964 -0.866369 1.1985874 0.20317835 0.48538846
0.62732387 -0.7981825 1.1681777 0.59375 0.6666666
0.67042875 -0.7885481 1.2069014 0.34184402 0.028268918
0.6470064 -0.79652417 1.1895103 0.59375 0.8333333
0.62117946 -0.8714958 1.1399242 0.75 0.49
0.6231729 -0.8022595 1.1723245 0.625 0.6666666
0.6169586 -0.79184353 1.1376269 0.79682165 0.014611527
0.68022704 -0.8665209 1.2039223 0.25 0.49
0.6428554 -0.8006012 1.1936572 0.625 0.8333333
0.6760062 -0.7868686 1.2016249 0.29682168 0.014611527
0.61973155 -0.8074001 1.1758993 0.65625 0.6666666
0.6394141 -0.8057418 1.197232 0.65625 0.8333333
0.62272793 -0.79169166 1.132292 0.75 0.010000005
0.6171318 -0.81340677 1.1787648 0.6875 0.6666666
0.68177545 -0.7867168 1.19629 0.24999997 0.010000005
0.6368144 -0.81174845 1.2000976 0.6875 0.8333333
0.61547387 -0.8200486 1.1808108 0.71875 0.6666666
0.62846744 -0.79307324 1.1271038 0.70317835 0.014611512
0.63515645 -0.81839025 1.2021435 0.71875 0.8333333
0.687515 -0.78809834 1.1911019 0.20317835 0.014611512
0.6148214 -0.82707036 1.1819587 0.75 0.6666666
0.63450384 -0.82541203 1.2032914 0.75 0.8333333
0.6339567 -0.79593515 1.1222618 0.658156 0.028268933
0.6151993 -0.83420223 1.1821644 0.78125 0.6666666
32 0 1 2 3 4 5 6 7 8 9 10 11 12 13 14 15 16 17 18 19 20 21 22 23 24 25 26 27 28 29 30 31
4 32 33 34 35
4 36 37 33 32
4 38 39 37 36
4 40 41 39 38
4 42 43 41 40
4 44 45 43 42
4 46 47 45 44
4 48 49 47 46
4 50 51 49 48
4 52 53 51 50
4 54 55 53 52
4 56 57 55 54
4 58 59 57 56
4 60 61 59 58
4 62 63 61 60
4 64 65 63 62
4 66 67 65 64
4 68 69 67 66
4 70 71 69 68
4 72 73 71 70
4 74 75 73 72
4 76 77 75 74
4 78 79 77 76
4 80 81 79 78
4 82 83 81 80
4 84 85 83 82
4 86 87 85 84
4 88 89 87 86
4 90 91 89 88
4 92 93 91 90
4 94 95 93 92
4 96 97 95 94
32 98 99 100 101 102 103 104 105 106 107 108 109 110 111 112 113 114 115 116 117 118 119 120 121 122 123 124 125 126 127 128 129
4 130 96 94 131
4 131 94 92 132
4 132 92 90 133
4 133 90 88 134
4 134 88 86 135
4 135 86 84 136
4 136 84 82 137
4 137 82 80 138
4 138 80 78 139
4 139 78 76 140
4 140 76 74 141
4 141 74 72 142
4 142 72 70 143
4 143 70 68 144
4 144 68 66 145
4 145 66 64 146
4 146 64 62 147
4 147 62 60 148
4 148 60 58 149
4 149 58 56 150
4 150 56 54 151
4 151 54 52 152
4 152 52 50 153
4 153 50 48 154
4 154 48 46 155
4 155 46 44 156
4 156 44 42 157
4 157 42 40 158
4 158 40 38 159
4 159 38 36 160
4 160 36 32 161
4 161 32 35 162
4 163 164 165 166
32 167 168 169 170 171 172 173 174 175 176 177 178 179 180 181 182 183 184 185 186 187 188 189 190 191 192 193 194 195 196 197 198
4 199 200 201 202
4 198 197 203 204
4 205 206 207 208
4 178 177 209 210
4 211 212 213 214
4 215 199 202 216
4 197 196 217 203
4 164 218 219 165
4 179 178 210 220
4 212 221 222 213
4 206 223 224 207
4 225 215 216 226
4 196 195 227 217
4 180 179 220 228
4 221 229 230 222
4 218 231 232 219
4 233 225 226 234
4 195 194 235 227
32 236 237 238 239 240 241 242 243 244 200 199 215 225 233 245 246 247 248 249 250 251 252 253 254 255 256 257 258 259 260 261 262
4 223 263 264 224
4 181 180 228 265
4 246 245 266 267
4 229 268 269 230
4 270 271 272 273
4 245 233 234 266
4 194 193 274 235
4 260 259 275 276
4 231 277 278 232
4 185 184 279 280
4 268 281 282 269
4 271 283 284 272
4 263 285 286 264
4 182 181 265 287
4 288 289 290 291
4 193 192 292 274
4 259 258 293 275
4 281 294 295 282
4 283 296 297 284
4 277 298 299 278
4 183 182 287 300
4 289 301 302 290
4 192 191 303 292
4 258 257 304 293
4 285 305 306 286
4 184 183 300 279
4 301 307 308 302
4 294 309 310 295
4 296 311 312 297
4 313 314 315 316
4 191 190 317 303
4 257 256 318 304
4 298 319 320 299
4 321 313 316 322
4 309 323 324 310
4 311 325 326 312
4 305 327 328 306
4 190 189 329 317
4 256 255 330 318
4 323 331 332 324
4 325 333 334 326
4 319 335 336 320
4 189 188 337 329
4 255 254 338 330
4 327 339 340 328
4 341 342 343 344
4 345 346 347 273
4 342 348 349 343
4 348 350 351 349
4 350 352 340 351
4 352 353 328 340
4 353 354 306 328
4 354 355 286 306
4 355 356 264 286
4 356 357 224 264
4 357 358 207 224
4 358 359 208 207
4 359 360 361 208
4 360 362 363 361
4 362 364 365 363
4 364 366 315 365
4 302 308 367 368
4 290 302 368 369
4 291 290 369 370
4 371 291 370 372
4 373 371 372 374
4 375 373 374 376
4 332 375 376 377
4 324 332 377 378
4 310 324 378 379
4 295 310 379 380
4 282 295 380 381
4 269 282 381 382
4 230 269 382 383
4 222 230 383 384
4 213 222 384 385
4 214 213 385 386
4 387 214 386 388
4 389 390 391 392
4 393 389 392 394
4 336 393 394 395
4 320 336 395 396
4 299 320 396 397
4 278 299 397 398
4 232 278 398 399
4 219 232 399 400
4 165 219 400 401
4 166 165 401 402
4 403 166 402 404
4 405 403 404 406
4 407 405 406 408
4 409 407 408 410
4 308 409 410 367
4 411 412 413 322
4 412 414 415 413
4 366 416 316 315
4 416 411 322 316
4 414 417 418 415
4 417 419 420 418
4 419 421 422 420
4 421 423 424 422
4 423 425 426 424
4 425 427 334 426
4 427 428 326 334
4 428 429 312 326
4 429 430 297 312
4 430 431 284 297
4 431 432 272 284
4 432 345 273 272
4 433 211 214 387
4 177 176 434 209
4 200 244 435 201
4 436 205 208 361
4 176 175 437 434
4 438 163 166 403
4 244 243 439 435
4 175 174 440 437
4 441 436 361 363
4 243 242 442 439
4 443 438 403 405
4 174 173 444 440
4 242 241 445 442
4 446 441 363 365
4 173 172 447 444
4 448 443 405 407
4 241 240 449 445
4 172 171 450 447
4 314 446 365 315
4 240 239 451 449
4 452 448 407 409
4 171 170 453 450
4 239 238 454 451
4 170 169 455 453
4 167 198 204 456
4 238 237 457 454
4 307 452 409 308
4 168 167 456 458
4 169 168 458 455
4 237 236 459 457
4 248 247 460 461
4 462 463 413 415
4 249 248 461 464
4 463 321 322 413
4 465 270 273 347
4 236 262 466 459
4 247 246 267 460
4 467 468 344 343
4 469 462 415 418
4 262 261 470 466
4 250 249 464 471
4 472 467 343 349
4 261 260 276 470
4 473 469 418 420
4 251 250 471 474
4 475 473 420 422
4 476 288 291 371
4 477 472 349 351
4 478 479 390 389
4 252 251 474 480
4 186 185 280 481
4 482 478 389 393
4 483 475 422 424
4 484 476 371 373
4 253 252 480 485
4 187 186 481 486
4 339 477 351 340
4 487 483 424 426
4 488 484 373 375
4 335 482 393 336
4 254 253 485 338
4 188 187 486 337
4 333 487 426 334
4 331 488 375 332
32 301 289 288 476 484 488 331 323 309 294 281 268 229 221 212 211 433 478 482 335 319 298 277 231 218 164 163 438 443 448 452 307
32 270 468 467 472 477 339 327 305 285 263 223 206 205 436 441 446 314 313 321 463 462 469 473 475 483 487 333 325 311 296 283 271
4 489 490 491 492
4 493 494 495 496
4 497 498 499 500
4 501 502 503 504
4 505 506 507 508
4 509 510 511 512
4 498 513 514 499
4 515 489 492 516
4 494 517 518 495
4 519 505 508 520
4 502 521 522 503
4 513 523 524 514
4 525 509 512 526
4 527 519 520 528
4 529 515 516 530
4 517 531 532 518
4 523 533 534 524
4 521 535 536 522
4 537 527 528 538
4 539 525 526 540
4 533 541 542 534
4 543 529 530 544
4 545 546 547 548
4 531 549 550 532
4 551 537 538 552
4 535 553 554 536
4 555 556 557 558
4 541 559 560 542
4 561 545 548 562
4 563 539 540 564
32 565 566 567 568 569 570 571 490 489 515 529 543 572 573 574 575 576 577 578 579 580 581 582 583 584 510 509 525 539 563 585 586
4 587 551 552 588
4 572 543 544 589
32 590 591 592 593 594 549 531 517 494 493 595 596 597 598 599 600 601 602 603 604 605 606 553 535 521 502 501 607 608 609 610 611
4 556 612 613 557
4 549 594 614 550
4 559 615 616 560
4 553 606 617 554
4 618 561 562 619
4 620 587 588 621
4 612 622 623 613
4 585 563 564 624
4 615 625 626 616
4 573 572 589 627
4 628 618 619 629
4 594 593 630 614
4 631 620 621 632
4 606 605 633 617
4 622 634 635 623
4 625 636 637 626
4 638 628 629 639
4 586 585 624 640
4 641 631 632 642
4 574 573 627 643
4 634 644 645 635
4 593 592 646 630
4 636 647 648 637
4 605 604 649 633
4 650 638 639 651
4 652 641 642 653
4 644 654 655 645
4 565 586 640 656
4 647 657 658 648
4 575 574 643 659
4 660 650 651 661
4 592 591 662 646
4 547 663 664 548
4 548 664 665 562
4 562 665 666 619
4 619 666 667 629
4 629 667 668 639
4 639 668 669 651
4 651 669 670 661
4 661 670 671 672
4 672 671 673 674
4 674 673 675 676
4 676 675 677 678
4 678 677 679 680
4 680 679 681 682
4 682 681 683 684
4 684 683 685 686
4 686 685 687 688
4 688 687 689 690
4 690 689 691 692
4 692 691 693 694
4 694 693 695 696
4 696 695 697 698
4 698 697 699 507
4 507 699 700 508
4 508 700 701 520
4 520 701 702 528
4 528 702 703 538
4 538 703 704 552
4 552 704 705 588
4 588 705 706 621
4 621 706 707 632
4 632 707 708 642
4 642 708 709 653
4 710 648 658 711
4 712 637 648 710
4 713 626 637 712
4 714 616 626 713
4 715 560 616 714
4 716 542 560 715
4 717 534 542 716
4 718 524 534 717
4 719 514 524 718
4 720 499 514 719
4 721 500 499 720
4 722 723 500 721
4 724 725 723 722
4 726 727 725 724
4 728 729 727 726
4 730 731 729 728
4 732 733 731 730
4 734 735 733 732
4 736 737 735 734
4 738 739 737 736
4 740 741 739 738
4 742 743 741 740
4 744 745 743 742
4 746 747 745 744
4 748 749 747 746
4 750 655 749 748
4 751 645 655 750
4 752 635 645 751
4 753 623 635 752
4 754 613 623 753
4 755 557 613 754
4 756 558 557 755
4 506 757 698 507
4 510 584 758 511
4 759 497 500 723
4 607 501 504 760
4 757 761 696 698
4 595 493 496 762
4 490 571 763 491
4 764 759 723 725
4 584 583 765 758
4 761 766 694 696
4 608 607 760 767
4 768 764 725 727
4 596 595 762 769
4 571 570 770 763
4 766 771 692 694
4 583 582 772 765
4 773 768 727 729
4 609 608 767 774
4 771 775 690 692
4 597 596 769 776
4 570 569 777 770
4 778 773 729 731
4 582 581 779 772
4 775 780 688 690
4 610 609 774 781
4 782 778 731 733
4 598 597 776 783
4 569 568 784 777
4 780 785 686 688
4 581 580 786 779
4 787 782 733 735
4 611 610 781 788
4 785 789 684 686
4 599 598 783 790
4 568 567 791 784
4 792 787 735 737
4 580 579 793 786
4 789 794 682 684
4 590 611 788 795
4 796 792 737 739
4 600 599 790 797
4 567 566 798 791
4 794 799 680 682
4 579 578 800 793
4 801 796 739 741
4 799 802 678 680
4 601 600 797 803
4 804 801 741 743
4 578 577 805 800
4 802 806 676 678
4 807 804 743 745
4 602 601 803 808
4 806 809 674 676
4 577 576 810 805
4 811 807 745 747
4 591 590 795 662
4 809 812 672 674
4 603 602 808 813
4 566 565 656 798
4 814 811 747 749
4 576 575 659 810
4 812 660 661 672
4 654 814 749 655
4 604 603 813 649
32 641 546 545 561 618 628 638 650 660 812 809 806 802 799 794 789 785 780 775 771 766 761 757 506 505 519 527 537 551 587 620 631
32 647 636 625 615 559 541 533 523 513 498 497 759 764 768 773 778 782 787 792 796 801 804 807 811 814 654 644 634 622 612 556 555
