ply
format ascii 1.0
comment Created in Blender version 4.1.1
element vertex 519
property float x
property float y
property float z
property float s
property float t
element face 374
property list uchar uint vertex_indices
end_header
0.25943595 -0.62798095 -0.0016480088 0.375 0.82335913
0.35268357 -0.85369277 1.7116768 0.625 0.82335913
-0.35268357 -0.85369277 1.7057376 0.625 0.92664087
-0.25943595 -0.62798095 -0.0016480088 0.375 0.92664087
0.62798095 0.25943595 -0.0016480088 0.375 0.57335913
0.85369277 0.35268357 1.7057376 0.625 0.57335913
0.85369277 -0.35268357 1.7057376 0.625 0.67664087
0.62798095 -0.25943595 -0.0016480088 0.375 0.67664087
0.35268357 0.85369277 1.7057376 0.625 0.42664087
-0.35268357 0.85369277 1.7057376 0.625 0.32335913
-0.36718366 0.88879114 1.7057376 0.625 0.32335913
0.36718372 0.88879114 1.7057376 0.625 0.42664087
-0.62798095 -0.25943595 -0.0016480088 0.375 0.07335912
-0.85369277 -0.35268357 1.7057376 0.625 0.07335912
-0.85369277 0.35268357 1.7057376 0.625 0.17664088
-0.62798095 0.25943595 -0.0016480088 0.375 0.17664088
-0.25943595 0.62798095 -0.0016480088 0.375 0.32335913
0.25943595 0.62798095 -0.0016480088 0.375 0.42664087
-0.25943595 -0.62798095 -0.0016480088 0.375 0
-0.35268357 -0.85369277 1.7057376 0.625 0
-0.62798095 0.25943595 -0.0016480088 0.125 0.57335913
-0.25943595 0.62798095 -0.0016480088 0.19835912 0.5
0.25943595 0.62798095 -0.0016480088 0.3016409 0.5
0.25943595 -0.62798095 -0.0016480088 0.3016409 0.75
-0.25943595 -0.62798095 -0.0016480088 0.19835912 0.75
-0.62798095 -0.25943595 -0.0016480088 0.125 0.67664087
0.88879114 -0.3671837 1.7057376 0.625 0.67664087
0.88879114 0.3671837 1.7057376 0.625 0.57335913
0.9165416 0.37864813 1.8907855 0.625 0.57335913
0.9165416 -0.37864813 1.8907855 0.625 0.67664087
0.36718372 -0.88879114 1.7093451 0.625 0.82335913
-0.36718366 -0.88879114 1.7057376 0.625 0.92664087
-0.88879114 0.3671837 1.7057376 0.625 0.17664088
-0.36718366 -0.88879114 1.7057376 0.625 0
-0.88879114 -0.3671837 1.7057376 0.625 0.07335912
-0.7608368 -0.3141531 1.8907855 0.85376465 0.66784495
-0.3141531 -0.7608368 1.8907855 0.79284495 0.72876465
-0.3086239 -0.74744576 1.5358081 0.79284495 0.72876465
-0.41832936 -0.63774025 1.5358081 0.80807483 0.7135347
-0.5280348 -0.5280348 1.5358081 0.8233048 0.6983048
-0.63774025 -0.41832936 1.5358081 0.8385347 0.68307483
-0.74744576 -0.3086239 1.5358081 0.85376465 0.66784495
-0.9165416 -0.37864813 1.8907855 0.625 0.07335912
-0.9165416 0.37864813 1.8907855 0.625 0.17664088
0.37864813 0.9165416 1.8907855 0.625 0.42664087
-0.37864813 -0.9165416 1.8907855 0.625 0
-0.37864813 0.9165416 1.8907855 0.625 0.32335913
0.37864813 -0.9165416 1.8907855 0.625 0.82335913
-0.37864813 -0.9165416 1.8907855 0.625 0.92664087
-0.9165416 -0.37864813 1.8907855 0.875 0.67664087
-0.37864813 -0.9165416 1.8907855 0.80164087 0.75
-0.7608368 0.3141531 1.8907855 0.8537647 0.5821551
-0.3141531 0.7608368 1.8907855 0.79284495 0.5212354
-0.37864813 0.9165416 1.8907855 0.80164087 0.5
-0.9165416 0.37864813 1.8907855 0.875 0.57335913
0.3141531 0.7608368 1.8907855 0.7071551 0.5212354
0.7608368 0.3141531 1.8907855 0.64623535 0.58215505
0.37864813 0.9165416 1.8907855 0.69835913 0.5
0.7608368 -0.3141531 1.8907855 0.6462354 0.6678449
0.3141531 -0.7608368 1.8907855 0.70715505 0.72876465
0.37864813 -0.9165416 1.8907855 0.69835913 0.75
-0.15431195 -0.74744576 1.5392686 0.7714225 0.72876465
-0.04460649 -0.63774025 1.548096 0.75619256 0.7135347
-0.3086239 0.74744576 1.5360236 0.79284495 0.5212354
-0.15431195 0.74744576 1.5522497 0.7714225 0.5212354
0 0.74744576 1.5704662 0.75 0.5212354
0.15431195 0.74744576 1.5646348 0.72857755 0.5212354
0.3086239 0.74744576 1.5432259 0.7071551 0.5212354
0.3086239 -0.74744576 1.5574565 0.70715505 0.72876465
0.15431195 -0.74744576 1.5692344 0.7285775 0.72876465
0 -0.74744576 1.5574565 0.75 0.72876465
0.74744576 -0.3086239 1.5358081 0.6462354 0.6678449
0.63774025 -0.41832936 1.5358081 0.6614653 0.68307483
0.5280348 -0.5280348 1.5358081 0.6766952 0.6983048
0.41832936 -0.63774025 1.5413518 0.69192517 0.7135347
-0.74744576 0.3086239 1.5358081 0.8537647 0.5821551
-0.63774025 0.41832936 1.5358081 0.8385348 0.56692517
-0.5280348 0.5280348 1.5358081 0.82330483 0.5516952
-0.41832936 0.63774025 1.5358081 0.8080749 0.5364653
0.74744576 0.3086239 1.5358081 0.64623535 0.58215505
0.74744576 0.15431195 1.5358081 0.64623535 0.6035775
0.74744576 0 1.5358081 0.64623535 0.625
0.74744576 -0.15431195 1.5358081 0.64623535 0.64642245
-0.74744576 -0.15431195 1.5428989 0.85376465 0.6464225
-0.74744576 0 1.5704509 0.85376465 0.625
-0.74744576 0.15431195 1.5428989 0.85376465 0.60357755
0.41832936 0.63774025 1.5359316 0.69192517 0.5364653
0.5280348 0.5280348 1.5358081 0.6766952 0.5516952
0.63774025 0.41832936 1.5358081 0.6614653 0.56692517
0.37372288 -0.15431195 1.5551424 0.69811773 0.64642245
0.37372288 0.3086239 1.5358081 0.6981177 0.5821551
0.04460649 0.63774025 1.5805337 0.7438075 0.5364653
-0.37372288 0.15431195 1.5522105 0.8018824 0.60357755
-0.37372288 -0.3086239 1.5358081 0.8018823 0.6678449
0 -0.3086239 1.5358081 0.75 0.6678449
0.10970546 -0.41832936 1.5375552 0.73477006 0.68307483
0.37372288 -0.3086239 1.5358081 0.69811773 0.6678449
-0.2640174 -0.41832936 1.5358081 0.7866524 0.68307483
-0.15431195 -0.5280348 1.5358396 0.7714225 0.6983048
0 0 1.5961555 0.75000006 0.625
0 -0.15431195 1.5454549 0.75 0.64642245
-0.37372288 0 1.5792167 0.8018824 0.625
-0.37372288 -0.15431195 1.5519679 0.8018823 0.64642245
-0.21941093 0.5280348 1.5432259 0.7804599 0.5516952
-0.37372288 0.5280348 1.5358081 0.8018824 0.5516952
-0.48342833 0.41832936 1.5358081 0.8171123 0.56692517
-0.10970546 0.63774025 1.5647745 0.76522994 0.5364653
-0.2640174 0.63774025 1.5404384 0.78665245 0.5364653
0 0.3086239 1.5980611 0.75 0.5821551
-0.10970546 0.41832936 1.5610979 0.76522994 0.56692517
-0.37372288 0.3086239 1.5358081 0.8018824 0.5821551
0.2640174 0.41832936 1.5405267 0.7133476 0.56692517
0.15431195 0.5280348 1.5646348 0.72857755 0.5516952
0 0.15431195 1.6289877 0.75 0.60357755
0.37372288 0 1.587744 0.69811773 0.625
0.37372288 0.15431195 1.5553787 0.6981177 0.60357755
0.21941093 -0.5280348 1.5478822 0.7195402 0.6983048
0.37372288 -0.5280348 1.539131 0.69811773 0.6983048
0.48342833 -0.41832936 1.5358081 0.6828878 0.68307483
0.10970546 -0.63774025 1.5617104 0.73477006 0.7135347
0.2640174 -0.63774025 1.5573521 0.7133476 0.7135347
0.030312754 -0.08306024 1.283854 0.4858603 0.2838393
0.022079207 -0.10784098 1.5780168 0.48472118 0.32453474
-0.025349965 -0.10619502 1.5757457 0.4781597 0.32422054
-0.03031275 -0.08306024 1.283854 0.47747317 0.2838393
0.08306024 0.030312754 1.283854 0.49315754 0.2838393
0.06557738 -0.022019578 1.5966117 0.4907389 0.32710722
0.06438372 -0.068677835 1.5877249 0.49057376 0.32587776
0.08306024 -0.03031275 1.283854 0.49315754 0.2838393
0.1217985 -0.41158143 3.1802516 0.4985167 0.54619306
0.086669266 -0.44092554 3.167383 0.4936568 0.54441285
0.03961071 -0.73642355 4.4396544 0.4871466 0.7204229
0.06606887 -0.70442384 4.4457626 0.49080688 0.721268
0.19223152 -0.4479103 3.1717796 0.50826067 0.54502106
0.1903805 -0.48418623 3.1585937 0.50800455 0.54319686
-0.08306024 -0.030312754 1.283854 0.4701759 0.2838393
-0.06557738 -0.06416772 1.5815017 0.4725945 0.32501683
-0.06438372 -0.017509462 1.5903885 0.47275966 0.3262463
-0.08306024 0.03031275 1.283854 0.4701759 0.2838393
-0.030312754 0.08306024 1.283854 0.47747317 0.2838393
-0.022079207 0.021653676 1.6000967 0.4786122 0.32758933
0.02534997 0.020007715 1.6023679 0.4851737 0.32790354
0.03031275 0.08306024 1.283854 0.4858603 0.2838393
0.0848182 -0.47720158 3.154197 0.49340075 0.5425886
0.16032337 -0.4141305 3.181856 0.50384635 0.54641503
0.15525122 -0.51353043 3.1457253 0.5031447 0.5414166
0.11672639 -0.5109814 3.1441207 0.497815 0.5411946
0.032024864 -0.61514854 4.903958 0.4860971 0.7846562
0.045361754 -0.59346753 4.90442 0.4879422 0.7847202
0.07421336 -0.7975138 4.4440985 0.49193364 0.7210378
0.04258302 -0.7703968 4.439047 0.4875578 0.7203389
0.107595555 -0.79470795 4.450512 0.4965518 0.7219251
0.09945103 -0.7016179 4.4521766 0.4954251 0.7221554
0.1310814 -0.7287349 4.457228 0.49980095 0.7228542
0.13405375 -0.76270807 4.456621 0.50021213 0.7227702
0.0835103 -0.6001364 4.922348 0.49321982 0.78720045
0.06415129 -0.587989 4.911132 0.49054158 0.7856487
0.03548557 -0.634589 4.9101386 0.4865759 0.7855113
0.05484454 -0.64673656 4.9213552 0.4892541 0.7870631
0.07363418 -0.64125806 4.928067 0.49185348 0.7879916
0.08697106 -0.61957705 4.928529 0.49369857 0.78805554
-0.08376032 0.048134014 1.2817452 0.375 0.82938135
-0.11116597 0.04293201 1.5589714 0.625 0.82938135
-0.13932623 0.08104059 1.5569632 0.625 0.92061865
-0.12145668 0.09560701 1.2817672 0.375 0.92061865
0.037910562 0.07721797 1.282236 0.375 0.57938135
-0.016976664 0.062326547 1.5771556 0.625 0.5793814
-0.054242212 0.034225337 1.5683653 0.625 0.6706186
-0.009612238 0.039576456 1.2819719 0.375 0.6706186
-0.109170154 0.14693484 2.875483 0.625 0.3293814
-0.1538291 0.15589014 2.8635592 0.625 0.17061862
-0.48357546 0.15876189 3.6753702 0.625 0.17061862
-0.4560747 0.15825516 3.679308 0.625 0.3293814
-0.09386874 0.06920512 2.8667173 0.625 0.5793814
-0.12331499 0.047860824 2.8541667 0.625 0.6706186
-0.11290501 0.16965845 1.2820289 0.375 0.07938138
-0.13140407 0.13864665 1.5628643 0.625 0.079381384
-0.09413822 0.16674744 1.5716565 0.625 0.17061862
-0.06538293 0.2073009 1.2822888 0.375 0.17061862
0.008759607 0.19875059 1.282483 0.375 0.32938138
-0.037213996 0.15804017 1.581053 0.625 0.3293814
-0.009054061 0.119932 1.5830593 0.625 0.42061862
0.046456683 0.15127666 1.282465 0.375 0.42061862
-0.12145668 0.09560701 1.2817672 0.375 0
-0.13932623 0.08104059 1.5569632 0.625 0
-0.06538293 0.2073009 1.2822888 0.125 0.57938135
0.008759607 0.19875059 1.282483 0.20438136 0.5
0.046456683 0.15127666 1.282465 0.2956186 0.5
0.037910562 0.07721797 1.282236 0.37499997 0.57938135
-0.08376032 0.048134014 1.2817452 0.2956186 0.74999994
-0.12145668 0.09560701 1.2817672 0.20438138 0.75
-0.11290501 0.16965845 1.2820289 0.125 0.6706186
-0.18327592 0.13454875 2.8510067 0.625 0.079381384
-0.08728784 0.115300156 2.8766346 0.625 0.42061862
-0.1679742 0.056817204 2.8422422 0.625 0.82938135
-0.189857 0.08845481 2.8410888 0.625 0.92061865
-0.189857 0.08845481 2.8410888 0.625 0
-0.6128187 0.26490748 4.390832 0.625 0.17061862
-0.587546 0.26794532 4.3912945 0.625 0.3293814
-0.50143176 0.11795809 3.6766448 0.625 0
-0.50012827 0.14405215 3.6743994 0.625 0.079381384
-0.48637766 0.1026799 3.6801963 0.625 0.82938135
-0.50143176 0.11795809 3.6766448 0.625 0.92061865
-0.44101945 0.14296648 3.6828625 0.625 0.42061862
-0.4423234 0.11687835 3.6851075 0.625 0.5793814
-0.45887718 0.10217922 3.6841335 0.625 0.6706186
-0.5690459 0.23392287 4.4092226 0.625 0.57938135
-0.57157123 0.25663748 4.3980064 0.70438135 0.5
-0.587546 0.26794532 4.3912945 0.7956186 0.5
-0.6128187 0.26490748 4.390832 0.875 0.57938135
-0.62589115 0.25010824 4.397013 0.875 0.6706186
-0.6233659 0.22739357 4.40823 0.7956186 0.74999994
-0.6073911 0.21608558 4.4149413 0.7043814 0.75
-0.5821184 0.21912342 4.4154034 0.625 0.6706186
-0.6233659 0.22739357 4.40823 0.625 0
-0.62589115 0.25010824 4.397013 0.625 0.079381384
-0.6073911 0.21608558 4.4149413 0.625 0.82938135
-0.6233659 0.22739357 4.40823 0.625 0.92061865
-0.57157123 0.25663748 4.3980064 0.625 0.42061862
-0.5690459 0.23392287 4.4092226 0.625 0.5793814
0.05190946 0.062253077 1.4688358 0.375 0.82938135
0.06970081 0.06073764 1.5921426 0.625 0.82938135
0.06818722 0.040755864 1.5916559 0.625 0.92061865
0.050934076 0.036700148 1.4693831 0.375 0.92061865
0.0050491644 0.08636768 1.4712111 0.375 0.57938135
0.034759626 0.080645956 1.6017377 0.625 0.5793814
0.054148413 0.07929675 1.5968332 0.625 0.6706186
0.030561224 0.085361205 1.4696864 0.375 0.6706186
0.0874996 0.07758424 2.2548747 0.625 0.3293814
0.09895493 0.062187005 2.2490358 0.625 0.17061862
0.26766503 0.05016417 2.6616664 0.625 0.17061862
0.25912336 0.057941876 2.6637466 0.625 0.3293814
0.1037046 0.10659965 2.2497582 0.625 0.5793814
0.11860426 0.10511115 2.243311 0.625 0.6706186
0.027888559 0.015343405 1.4711858 0.375 0.07938138
0.05000101 0.024544513 1.5954995 0.625 0.079381384
0.030612221 0.025893714 1.6004039 0.625 0.17061862
0.0023764987 0.016349882 1.4727106 0.375 0.17061862
-0.018971741 0.03945801 1.473561 0.375 0.32938138
0.015059829 0.044452827 1.6050946 0.625 0.3293814
0.016573418 0.0644346 1.6055814 0.625 0.42061862
-0.017996356 0.065010935 1.4730139 0.375 0.42061862
0.050934076 0.036700148 1.4693831 0.375 0
0.06818722 0.040755864 1.5916559 0.625 0
0.0023764987 0.016349882 1.4727106 0.125 0.57938135
-0.018971741 0.03945801 1.473561 0.20438136 0.5
-0.017996356 0.065010935 1.4730139 0.2956186 0.5
0.0050491644 0.08636768 1.4712111 0.37499997 0.57938135
0.05190946 0.062253077 1.4688358 0.2956186 0.74999994
0.050934076 0.036700148 1.4693831 0.20438138 0.75
0.027888559 0.015343405 1.4711858 0.125 0.6706186
0.11385462 0.060698494 2.242588 0.625 0.079381384
0.089232996 0.093792595 2.2551386 0.625 0.42061862
0.13005961 0.0897139 2.2374716 0.625 0.82938135
0.12832622 0.073505566 2.2372081 0.625 0.92061865
0.12832622 0.073505566 2.2372081 0.625 0
0.36809316 0.08326205 2.9796631 0.625 0.17061862
0.35919583 0.08924705 2.9802828 0.625 0.3293814
0.28515172 0.05918421 2.6616812 0.625 0
0.2771641 0.050617553 2.6609125 0.625 0.079381384
0.28483337 0.06857695 2.6633186 0.625 0.82938135
0.28515172 0.05918421 2.6616812 0.625 0.92061865
0.25880498 0.06733461 2.6653838 0.625 0.42061862
0.2667926 0.07590128 2.6661527 0.625 0.5793814
0.27629167 0.07635467 2.6653988 0.625 0.6706186
0.36307278 0.10535971 2.987319 0.625 0.57938135
0.3573637 0.09731156 2.9830766 0.70438135 0.5
0.35919583 0.08924705 2.9802828 0.7956186 0.5
0.36809316 0.08326205 2.9796631 0.875 0.57938135
0.37648717 0.084447674 2.9817452 0.875 0.6706186
0.3821963 0.092495814 2.985988 0.7956186 0.74999994
0.38036418 0.10056035 2.988782 0.7043814 0.75
0.37146685 0.10654535 2.9894013 0.625 0.6706186
0.3821963 0.092495814 2.985988 0.625 0
0.37648717 0.084447674 2.9817452 0.625 0.079381384
0.38036418 0.10056035 2.988782 0.625 0.82938135
0.3821963 0.092495814 2.985988 0.625 0.92061865
0.3573637 0.09731156 2.9830766 0.625 0.42061862
0.36307278 0.10535971 2.987319 0.625 0.5793814
-0.14981091 1.4713856 3.2047222 0.6666666 0.6666667
0.042055786 1.8542035 3.0554032 1 0.6666667
-0.4246686 2.2013607 2.8111904 1 1
-0.5465175 1.6325878 3.0554032 0.6666666 1
-0.32357424 0.8384781 3.17187 0 0.6666666
-0.25835222 1.0690724 3.2109406 0.3333333 0.6666667
-0.45946598 1.199383 3.17187 0.3333333 1
-0.38414645 1.0217069 3.1974976 0 1
0.4852875 0.6770569 3.1071196 0.33333334 0
0.39823616 1.1102616 3.17187 0.6666667 0
0.19712204 1.2405723 3.2109406 0.6666666 0.33333334
0.08858067 0.838259 3.2109406 0.3333333 0.33333334
0.3634385 0.10828399 2.9960096 0 0
-0.10328588 0.4554411 3.1071196 0 0.3333333
0.32291654 1.2879378 3.1974976 1 0
0.26234427 1.4711668 3.17187 1 0.33333334
1.339572 1.1052313 3.3376346 0.6666666 0.6666667
1.7655185 1.1050775 3.2175286 1 0.6666667
1.8912636 1.6777871 3.0298805 1 1
1.3250998 1.5324869 3.2231839 0.6666666 1
0.71194255 0.99995095 3.258522 0 0.6666666
0.93978417 1.0345981 3.3135853 0.3333333 0.6666667
0.9730224 1.2684906 3.2953198 0.3333333 1
0.84646153 1.1269515 3.3017385 0 1
0.91086185 0.22533053 3.1477318 0.33333334 0
1.2520599 0.4757876 3.2515864 0.6666667 0
1.2806072 0.70384246 3.3092089 0.6666666 0.33333334
0.8811927 0.63367397 3.2791202 0.3333333 0.33333334
0.36602932 0.10657693 2.99596 0 0
0.4704431 0.6527399 3.153387 0 0.3333333
1.3755441 0.6134976 3.2949448 1 0
1.5131401 0.74432755 3.2883842 1 0.33333334
1.7579764 -0.3299275 3.2047222 0.6666666 0.6666667
1.9416701 -0.7167337 3.0554032 1 0.6666667
2.5025167 -0.56245774 2.8111904 1 1
2.1291573 -0.11641654 3.0554032 0.6666666 1
1.3660082 0.19650066 3.17187 0 0.6666666
1.5076413 0.0031933486 3.2109406 0.3333333 0.6666667
1.7341144 0.081536114 3.17187 0.3333333 1
1.5477123 0.13149756 3.1974976 0 1
0.7410358 -0.34175918 3.1071196 0.33333334 0
1.1360788 -0.53971195 3.17187 0.6666667 0
1.3625522 -0.46136904 3.2109406 0.6666666 0.33333334
1.112217 -0.1282481 3.2109406 0.3333333 0.33333334
0.36767682 0.10428208 2.9960096 0 0
0.9285232 0.25855798 3.1071196 0 0.3333333
1.3224809 -0.5896735 3.1974976 1 0
1.5041852 -0.65467656 3.17187 1 0.33333334
0.8819659 -1.244477 3.284216 0.6666666 0.6666667
0.7926071 -1.6212082 3.0481074 1 0.6666667
1.3451049 -1.9158218 2.971045 1 1
1.3184364 -1.3675497 3.281973 0.6666666 1
0.99879766 -0.60253096 3.3623214 0 0.6666666
0.944571 -0.83916795 3.3582492 0.3333333 0.6666667
1.1567955 -0.9534073 3.3876476 0.3333333 1
1.0618595 -0.7836442 3.3957849 0 1
0.25840607 -0.4818105 3.013389 0.33333334 0
0.3539349 -0.9136107 3.075515 0.6666667 0
0.5376519 -1.0354644 3.1772697 0.6666666 0.33333334
0.6025257 -0.62954926 3.2455447 0.3333333 0.33333334
0.36136732 0.10108491 2.9953008 0 0
0.7842355 -0.22815195 3.2472546 0 0.3333333
0.43017185 -1.0883684 3.1148384 1 0
0.51193273 -1.2644874 3.1008413 1 0.33333334
1.6481292 -1.0624297 5.1844215 0.6666666 0.6666667
1.8945143 -1.4535164 4.9630313 1 0.6666667
2.5328915 -1.2021909 4.769061 1 1
2.0615292 -0.77448624 5.090309 0.6666666 1
1.1710634 -0.49387053 5.210936 0 0.6666666
1.3415985 -0.7079059 5.2310176 0.3333333 0.6666667
1.5936656 -0.59985757 5.2218394 0.3333333 1
1.3783188 -0.5602298 5.2432785 0 1
0.5121915 -1.1176285 4.984952 0.33333334 0
0.96624124 -1.3266146 5.054846 0.6666667 0
1.2123523 -1.2333813 5.1325226 0.6666666 0.33333334
0.9062953 -0.8776783 5.1722064 0.3333333 0.33333334
0.06791386 -0.6225569 4.911256 0 0
0.6792062 -0.4385982 5.11223 0 0.3333333
1.1776814 -1.3759601 5.0903773 1 0
1.3888435 -1.4326017 5.065749 1 0.33333334
1.1262859 0.67830753 5.315455 0.6666666 0.6666667
1.6372435 0.7176651 5.177871 1 0.6666667
1.7344341 1.4106152 4.94284 1 1
1.0689881 1.1851162 5.169107 0.6666666 1
0.3880081 0.4892323 5.213416 0 0.6666666
0.6559288 0.55411994 5.2821116 0.3333333 0.6666667
0.673004 0.8364818 5.255822 0.3333333 1
0.5355602 0.65505004 5.26458 0 1
0.70351887 -0.41887808 5.0997977 0.33333334 0
1.0849011 -0.084037006 5.2241645 0.6666667 0
1.0956798 0.19237757 5.2888937 0.6666666 0.33333334
0.62582374 0.06866324 5.248307 0.3333333 0.33333334
0.066702545 -0.61733246 4.9121847 0 0
0.13526332 0.048573017 5.0910335 0 0.3333333
1.218215 0.09349346 5.275109 1 0
1.3698971 0.26321274 5.26657 1 0.33333334
-0.15450805 1.0745128 5.1561 0.6666666 0.6666667
0.16659862 1.4591191 4.9813876 1 0.6666667
-0.27196392 1.9795794 4.6956434 1 1
-0.56314963 1.364415 4.9813876 0.6666666 1
-0.5220076 0.40021193 5.117661 0 0.6666666
-0.3859337 0.6453749 5.1633763 0.3333333 0.6666667
-0.5800788 0.8476832 5.117661 0.3333333 1
-0.54190093 0.625134 5.147647 0 1
0.35600662 -0.00037765503 5.0418987 0.33333334 0
0.3729359 0.51635385 5.117661 0.6666667 0
0.17879044 0.7186626 5.1633763 0.6666666 0.33333334
-0.052635252 0.28952456 5.1633763 0.3333333 0.33333334
0.06482082 -0.6155419 4.9118934 0 0
-0.3737418 -0.09508157 5.0418987 0 0.3333333
0.3347581 0.7389035 5.147647 1 0
0.3148647 0.9638258 5.117661 1 0.33333334
-1.6221046 -0.35478148 5.1561 0.6666666 0.6666667
-1.9011014 0.061382174 4.9813876 1 0.6666667
-2.5237496 -0.21343735 4.6956434 1 1
-2.0150664 -0.66560704 4.9813876 0.6666666 1
-1.0780864 -0.8967978 5.117661 0 0.6666666
-1.2751911 -0.69737166 5.163376 0.3333333 0.6666667
-1.5238659 -0.8269162 5.117661 0.3333333 1
-1.2995484 -0.8527492 5.147647 0 1
-0.4471228 -0.16654724 5.0418987 0.33333334 0
-0.9383227 -0.005237937 5.117661 0.6666667 0
-1.1869979 -0.13478273 5.163376 0.6666666 0.33333334
-0.8400844 -0.47737297 5.163376 0.3333333 0.33333334
0.06156031 -0.6187172 4.9118934 0 0
-0.56108767 -0.89353657 5.0418987 0 0.3333333
-1.1626408 0.020595253 5.147647 1 0
-1.3841031 0.0646438 5.117661 1 0.33333334
-0.84120166 -2.066915 5.1561 0.6666666 0.6666667
-1.3335335 -2.159871 4.9813876 1 0.6666667
-1.3255825 -2.8404248 4.6956434 1 1
-0.7098589 -2.5504236 4.9813876 0.6666666 1
-0.12897414 -1.7797399 5.117661 0 0.6666666
-0.38982475 -1.8825896 5.163376 0.3333333 0.6666667
-0.3684556 -2.1621685 5.117661 0.3333333 1
-0.25652823 -1.9660612 5.147647 0 1
-0.5524287 -0.9125218 5.0418987 0.33333334 0
-0.8938319 -1.3007767 5.117661 0.6666667 0
-0.87246245 -1.5803561 5.163376 0.6666666 0.33333334
-0.42108554 -1.3960302 5.163376 0.3333333 0.33333334
0.063295126 -0.6225209 4.9118934 0 0
0.07124613 -1.3030742 5.0418987 0 0.3333333
-1.0057592 -1.4968839 5.147647 1 0
-1.1333134 -1.6832057 5.117661 1 0.33333334
0.8393351 -2.06285 5.4462905 0.6666666 0.6666667
0.6987279 -2.5581331 5.317916 1 0.6666667
1.3240077 -2.9128354 5.1503525 1 1
1.3418925 -2.2018485 5.3479486 0.6666666 1
0.9455017 -1.311886 5.3198123 0 0.6666666
0.90085363 -1.5816597 5.396881 0.3333333 0.6666667
1.1580997 -1.7022207 5.397555 0.3333333 1
1.040183 -1.5075779 5.3878193 0 1
-0.0018769801 -1.2770483 5.1239023 0.33333334 0
0.15674199 -1.7488235 5.282981 0.6666667 0
0.4031334 -1.8573747 5.37364 0.6666666 0.33333334
0.46551585 -1.3771398 5.31707 0.3333333 0.33333334
0.065367214 -0.6206737 4.912317 0 0
0.6412877 -0.92076355 5.153935 0 0.3333333
0.26753855 -1.9355888 5.351741 1 0
0.36934018 -2.1391587 5.3607235 1 0.33333334
-1.6736 1.028198 4.253406 0.6666666 0.6666667
-1.6962006 1.3643491 4.0170383 1 0.6666667
-2.190543 1.3254418 3.730871 1 1
-2.0356421 0.91230065 4.0957 0.6666666 1
-1.4953178 0.47729668 4.3961864 0 0.6666666
-1.5619256 0.68538857 4.3676343 0.3333333 0.6666667
-1.7731841 0.67039365 4.3068147 0.3333333 1
-1.6329339 0.58558553 4.3727717 0 1
-0.79582125 0.7467975 4.3534517 0.33333334 0
-1.079036 1.0316767 4.2997184 0.6666667 0
-1.2992451 1.0352114 4.3067617 0.6666666 0.33333334
-1.1868584 0.6909274 4.4155893 0.3333333 0.33333334
-0.6002213 0.24939795 4.4096937 0 0
-1.1352627 0.29474887 4.4321127 0 0.3333333
-1.225157 1.1286392 4.2782745 1 0
-1.3569024 1.2247738 4.2103467 1 0.33333334
-1.9052424 0.4499899 4.6003413 0.6666666 0.6666667
-2.1216366 0.77277297 4.464832 1 0.6666667
-2.604572 0.55961865 4.243204 1 1
-2.2100296 0.20890884 4.464832 0.6666666 1
-1.4832934 0.029593721 4.5705276 0 0.6666666
-1.6361711 0.18427166 4.6059847 0.3333333 0.6666667
-1.8290472 0.08379492 4.5705276 0.3333333 1
-1.6550629 0.0637584 4.5937853 0 1
-0.9939085 0.5959873 4.5117655 0.33333334 0
-1.3748908 0.7211013 4.5705276 0.6666667 0
-1.5677671 0.62062436 4.6059847 0.6666666 0.33333334
-1.2986956 0.3549061 4.6059847 0.3333333 0.33333334
-0.59936595 0.24527733 4.410931 0 0
-1.0823013 0.03212318 4.5117655 0 0.3333333
-1.5488751 0.7411378 4.5937853 1 0
-1.7206447 0.77530265 4.5705276 1 0.33333334
-0.84053856 1.5469102 4.6003413 0.6666666 0.6666667
-0.6086473 1.858746 4.464832 1 0.6666667
-0.97095907 2.242662 4.243204 1 1
-1.1696267 1.753589 4.464832 0.6666666 1
-1.0957242 1.0087147 4.5705276 0 0.6666666
-1.0010401 1.2044996 4.6059847 0.3333333 0.6666667
-1.1602052 1.3526996 4.5705276 0.3333333 1
-1.1209366 1.1820246 4.5937853 0 1
-0.39833283 0.73678726 4.5117655 0.33333334 0
-0.40775424 1.1376766 4.5705276 0.6666667 0
-0.5669196 1.2858766 4.6059847 0.6666666 0.33333334
-0.72742116 0.94346625 4.6059847 0.3333333 0.33333334
-0.59700054 0.24771424 4.410931 0 0
-0.9593124 0.63163006 4.5117655 0 0.3333333
-0.44702268 1.3083518 4.593785 1 0
-0.47223526 1.4816618 4.5705276 1 0.33333334
0.69754523 0.52866036 4.6003413 0.6666666 0.6666667
1.0163362 0.30642703 4.464832 1 0.6666667
1.388977 0.6803254 4.243204 1 1
0.8940498 0.8639234 4.464832 0.6666666 1
0.15178788 0.7672456 4.5705276 0 0.6666666
0.35038042 0.6786012 4.6059847 0.3333333 0.6666667
0.4936369 0.84222996 4.5705276 0.3333333 1
0.32424438 0.79775333 4.5937853 0 1
-0.09865618 0.061854064 4.5117655 0.33333334 0
0.30175662 0.083547264 4.5705276 0.6666667 0
0.44501323 0.24717629 4.6059847 0.6666666 0.33333334
0.09784824 0.39711714 4.6059847 0.3333333 0.33333334
-0.5935835 0.24545202 4.410931 0 0
-0.22094268 0.6193504 4.5117655 0 0.3333333
0.47114927 0.12802377 4.5937853 1 0
0.6436059 0.15853168 4.5705276 1 0.33333334
-0.95630985 -1.0194933 4.659072 0.6666666 0.6666667
-1.2379197 -1.2367117 4.4519725 1 0.6666667
-1.0059247 -1.7518779 4.359442 1 1
-0.710183 -1.3486854 4.6382837 0.6666666 1
-0.5150649 -0.62289584 4.719704 0 0.6666666
-0.6847491 -0.7634698 4.720262 0.3333333 0.6666667
-0.5938405 -0.96338916 4.7382026 0.3333333 1
-0.56820923 -0.7888942 4.748568 0 1
-0.99539995 -0.12039915 4.4359303 0.33333334 0
-1.1622667 -0.4855742 4.491217 0.6666667 0
-1.0931442 -0.6768175 4.5760827 0.6666666 0.33333334
-0.8198496 -0.42148423 4.6319466 0.3333333 0.33333334
-0.6005924 0.24334063 4.410451 0 0
-0.46766317 -0.23237291 4.622241 0 0.3333333
-1.2021883 -0.6543782 4.5247498 1 0
-1.2410424 -0.8260677 4.5097156 1 0.33333334
4 0 1 2 3
4 4 5 6 7
4 8 9 10 11
4 12 13 14 15
4 16 9 8 17
4 18 19 13 12
4 9 16 15 14
4 5 4 17 8
4 1 0 7 6
8 20 21 22 4 7 23 24 25
4 26 27 28 29
4 1 6 26 30
4 2 1 30 31
4 5 8 11 27
4 9 14 32 10
4 13 19 33 34
4 6 5 27 26
4 14 13 34 32
7 35 36 37 38 39 40 41
4 32 34 42 43
4 27 11 44 28
4 34 33 45 42
4 11 10 46 44
4 31 30 47 48
4 30 26 29 47
4 10 32 43 46
4 36 35 49 50
4 51 52 53 54
4 55 56 28 57
4 58 59 60 29
4 35 51 54 49
4 59 36 50 60
4 56 58 29 28
4 52 55 57 53
3 37 61 62
7 55 52 63 64 65 66 67
7 36 59 68 69 70 61 37
7 59 58 71 72 73 74 68
7 52 51 75 76 77 78 63
7 58 56 79 80 81 82 71
7 51 35 41 83 84 85 75
7 56 55 67 86 87 88 79
3 71 82 89
3 79 88 90
3 67 66 91
3 75 85 92
3 41 40 93
3 94 95 96
3 94 97 95
3 39 38 98
3 99 100 89
3 99 101 100
3 84 83 102
3 103 104 105
3 103 106 104
3 65 64 107
3 108 109 110
3 108 111 109
3 87 86 112
3 99 113 92
3 99 114 113
3 81 80 115
3 116 117 118
3 116 119 117
3 70 69 120
3 120 74 73
3 120 69 74
3 69 68 74
3 117 120 73
3 117 119 120
3 119 70 120
3 118 72 71
3 118 117 72
3 117 73 72
3 115 90 108
3 115 80 90
3 80 79 90
3 113 115 108
3 113 114 115
3 114 81 115
3 92 110 75
3 92 113 110
3 113 108 110
3 112 91 103
3 112 86 91
3 86 67 91
3 109 112 103
3 109 111 112
3 111 87 112
3 110 105 75
3 110 109 105
3 109 103 105
3 107 78 77
3 107 64 78
3 64 63 78
3 104 107 77
3 104 106 107
3 106 65 107
3 105 76 75
3 105 104 76
3 104 77 76
3 102 93 94
3 102 83 93
3 83 41 93
3 100 102 94
3 100 101 102
3 101 84 102
3 89 96 71
3 89 100 96
3 100 94 96
3 98 62 116
3 98 38 62
3 38 37 62
3 95 98 116
3 95 97 98
3 97 39 98
3 96 118 71
3 96 95 118
3 95 116 118
3 93 97 94
3 93 40 97
3 40 39 97
3 92 101 99
3 92 85 101
3 85 84 101
3 91 106 103
3 91 66 106
3 66 65 106
3 90 111 108
3 90 88 111
3 88 87 111
3 89 114 99
3 89 82 114
3 82 81 114
3 62 119 116
3 62 61 119
3 61 70 119
4 121 122 123 124
4 125 126 127 128
4 129 130 131 132
4 127 126 133 134
4 135 136 137 138
4 139 140 141 142
4 124 123 136 135
4 140 139 138 137
4 126 125 142 141
4 122 121 128 127
8 138 139 142 125 128 121 124 135
4 137 136 143 130
4 141 140 129 144
4 122 127 134 145
4 123 122 145 146
4 126 141 144 133
4 140 137 130 129
4 136 123 146 143
4 132 131 147 148
4 143 146 149 150
4 146 145 151 149
4 144 129 132 152
4 133 144 152 153
4 145 134 154 151
4 130 143 150 131
4 134 133 153 154
8 155 156 148 147 157 158 159 160
4 150 149 158 157
4 149 151 159 158
4 153 152 156 155
4 151 154 160 159
4 131 150 157 147
4 154 153 155 160
4 152 132 148 156
4 161 162 163 164
4 165 166 167 168
4 169 170 171 172
4 167 166 173 174
4 175 176 177 178
4 179 180 181 182
4 183 184 176 175
4 180 179 178 177
4 166 165 182 181
4 162 161 168 167
8 185 186 187 188 168 189 190 191
4 177 176 192 170
4 181 180 169 193
4 162 167 174 194
4 163 162 194 195
4 166 181 193 173
4 180 177 170 169
4 176 184 196 192
4 172 171 197 198
4 192 196 199 200
4 195 194 201 202
4 193 169 172 203
4 173 193 203 204
4 194 174 205 201
4 170 192 200 171
4 174 173 204 205
8 206 207 208 209 210 211 212 213
4 200 199 214 215
4 202 201 216 217
4 204 203 218 219
4 201 205 213 216
4 171 200 215 197
4 205 204 219 213
4 203 172 198 218
4 220 221 222 223
4 224 225 226 227
4 228 229 230 231
4 226 225 232 233
4 234 235 236 237
4 238 239 240 241
4 242 243 235 234
4 239 238 237 236
4 225 224 241 240
4 221 220 227 226
8 244 245 246 247 227 248 249 250
4 236 235 251 229
4 240 239 228 252
4 221 226 233 253
4 222 221 253 254
4 225 240 252 232
4 239 236 229 228
4 235 243 255 251
4 231 230 256 257
4 251 255 258 259
4 254 253 260 261
4 252 228 231 262
4 232 252 262 263
4 253 233 264 260
4 229 251 259 230
4 233 232 263 264
8 265 266 267 268 269 270 271 272
4 259 258 273 274
4 261 260 275 276
4 263 262 277 278
4 260 264 272 275
4 230 259 274 256
4 264 263 278 272
4 262 231 257 277
4 279 280 281 282
4 283 284 285 286
4 284 279 282 285
4 287 288 289 290
4 290 289 279 284
4 291 287 290 292
4 292 290 284 283
4 288 293 294 289
4 289 294 280 279
4 295 296 297 298
4 299 300 301 302
4 300 295 298 301
4 303 304 305 306
4 306 305 295 300
4 307 303 306 308
4 308 306 300 299
4 304 309 310 305
4 305 310 296 295
4 311 312 313 314
4 315 316 317 318
4 316 311 314 317
4 319 320 321 322
4 322 321 311 316
4 323 319 322 324
4 324 322 316 315
4 320 325 326 321
4 321 326 312 311
4 327 328 329 330
4 331 332 333 334
4 332 327 330 333
4 335 336 337 338
4 338 337 327 332
4 339 335 338 340
4 340 338 332 331
4 336 341 342 337
4 337 342 328 327
4 343 344 345 346
4 347 348 349 350
4 348 343 346 349
4 351 352 353 354
4 354 353 343 348
4 355 351 354 356
4 356 354 348 347
4 352 357 358 353
4 353 358 344 343
4 359 360 361 362
4 363 364 365 366
4 364 359 362 365
4 367 368 369 370
4 370 369 359 364
4 371 367 370 372
4 372 370 364 363
4 368 373 374 369
4 369 374 360 359
4 375 376 377 378
4 379 380 381 382
4 380 375 378 381
4 383 384 385 386
4 386 385 375 380
4 387 383 386 388
4 388 386 380 379
4 384 389 390 385
4 385 390 376 375
4 391 392 393 394
4 395 396 397 398
4 396 391 394 397
4 399 400 401 402
4 402 401 391 396
4 403 399 402 404
4 404 402 396 395
4 400 405 406 401
4 401 406 392 391
4 407 408 409 410
4 411 412 413 414
4 412 407 410 413
4 415 416 417 418
4 418 417 407 412
4 419 415 418 420
4 420 418 412 411
4 416 421 422 417
4 417 422 408 407
4 423 424 425 426
4 427 428 429 430
4 428 423 426 429
4 431 432 433 434
4 434 433 423 428
4 435 431 434 436
4 436 434 428 427
4 432 437 438 433
4 433 438 424 423
4 439 440 441 442
4 443 444 445 446
4 444 439 442 445
4 447 448 449 450
4 450 449 439 444
4 451 447 450 452
4 452 450 444 443
4 448 453 454 449
4 449 454 440 439
4 455 456 457 458
4 459 460 461 462
4 460 455 458 461
4 463 464 465 466
4 466 465 455 460
4 467 463 466 468
4 468 466 460 459
4 464 469 470 465
4 465 470 456 455
4 471 472 473 474
4 475 476 477 478
4 476 471 474 477
4 479 480 481 482
4 482 481 471 476
4 483 479 482 484
4 484 482 476 475
4 480 485 486 481
4 481 486 472 471
4 487 488 489 490
4 491 492 493 494
4 492 487 490 493
4 495 496 497 498
4 498 497 487 492
4 499 495 498 500
4 500 498 492 491
4 496 501 502 497
4 497 502 488 487
4 503 504 505 506
4 507 508 509 510
4 508 503 506 509
4 511 512 513 514
4 514 513 503 508
4 515 511 514 516
4 516 514 508 507
4 512 517 518 513
4 513 518 504 503
