ply
format ascii 1.0
comment Created in Blender version 4.1.1
element vertex 360
property float x
property float y
property float z
property float s
property float t
element face 137
property list uchar uint vertex_indices
end_header
0.079586364 -0.46567708 0.674378 0.67371106 0.16269419
0.08783051 -0.46444437 0.84707344 0.999382 0.15357989
0.10046219 -0.52730125 0.84699994 0.9999375 0.30028653
0.09226242 -0.5287548 0.67430425 0.67521596 0.29284358
0.11309387 -0.5901581 0.84692645 0.99419856 0.44615966
0.10493847 -0.5918324 0.67423046 0.6694182 0.4223126
0.10460402 -0.5939015 0.67422545 0.66781116 0.42776027
0.10302323 -0.5950484 0.67421776 0.6631638 0.4296191
0.014649228 -0.6128076 0.6738747 0.50012726 0.42480236
0.0014263259 -0.5470087 0.67395157 0.50012726 0.2907516
0.076577425 -0.4634506 0.6743716 0.6676969 0.15500513
0.07847856 -0.46389782 0.67437744 0.67230844 0.15714014
-0.011796578 -0.4812098 0.6740285 0.50012726 0.15613398
0.112759426 -0.59222716 0.8469214 0.99373645 0.45221245
0.10053879 -0.52728766 0.84861344 1.0035374 0.30036896
0.11317005 -0.5901424 0.84853995 0.9981612 0.44638744
0.11283561 -0.59221154 0.8485348 0.998029 0.4522838
0.11283561 -0.59221154 0.8485348 0.69403535 0.7823533
0.11317005 -0.5901424 0.84853995 0.6975487 0.7882837
0.11289046 -0.5901322 0.8492575 0.6952479 0.78939545
0.11256359 -0.5919864 0.8492529 0.69264215 0.7846732
0.10028091 -0.5273403 0.849331 0.69541353 0.94133985
0.10053879 -0.52728766 0.84861344 0.697688 0.9412333
0.08765426 -0.46453062 0.8494044 0.70545304 1.1001043
0.08790753 -0.46443284 0.84868693 0.7079683 1.1007755
0.08790753 -0.46443284 0.84868693 1.003403 0.1535317
0.08684075 -0.46293786 0.8494046 0.7038552 1.105442
0.08703063 -0.4626072 0.84868723 0.70584893 1.1075268
0.086951464 -0.46261913 0.8470738 0.9991634 0.14759865
0.08703063 -0.4626072 0.84868723 1.0035374 0.14774412
0.08482159 -0.46221793 0.84706706 0.71655583 -0.21398394
0.086951464 -0.46261913 0.8470738 0.7218231 -0.21398394
0.084898606 -0.46220642 0.84868044 0.7170874 -0.21833576
0.08703063 -0.4626072 0.84868723 0.7223247 -0.21833576
-0.012358985 -0.48174685 0.84668976 0.50012726 -0.21398394
-0.012364241 -0.48175186 0.84830284 0.50012726 -0.21833576
-0.012301633 -0.48207727 0.8490211 0.50012726 1.1091657
0.08493599 -0.46254212 0.8493986 0.69825304 1.108374
0.084898606 -0.46220642 0.84868044 0.69889903 1.1119335
-0.012364241 -0.48175186 0.84830284 0.50012726 1.1132561
-0.109537244 -0.50162244 0.8486436 0.2981131 1.1065141
-0.10962708 -0.5012973 0.84792525 0.29744142 1.1100674
-0.10953956 -0.5012758 0.8463125 0.28922322 -0.21398394
-0.10962708 -0.5012973 0.84792525 0.2887231 -0.21833576
-0.11114125 -0.50272334 0.8486359 0.29253232 1.1035302
-0.11143876 -0.5024906 0.8479167 0.29052365 1.1055962
-0.11134909 -0.5024686 0.84630394 0.28395203 -0.21398394
-0.11143876 -0.5024906 0.8479167 0.2834826 -0.21833576
-0.10017058 -0.49896902 0.67368543 0.3355626 0.15346128
-0.10175137 -0.5001159 0.67367774 0.33093575 0.15555331
-0.10208582 -0.502185 0.6736727 0.32949305 0.16109416
-0.111454785 -0.50449175 0.84629977 0.0038997233 0.14895236
-0.11134909 -0.5024686 0.84630394 0.0041615963 0.14297348
-0.11154231 -0.50451326 0.84791255 -0.0001205802 0.14886692
-0.11143876 -0.5024906 0.8479167 -0.00021332502 0.14307833
-0.08940977 -0.5652627 0.67359895 0.327047 0.29122508
-0.09882311 -0.5673486 0.8462263 0.002282828 0.29564768
-0.09891105 -0.5673681 0.8478391 -0.0013176203 0.29569668
-0.111276284 -0.5045067 0.8486321 0.29097328 1.0981777
-0.11154231 -0.50451326 0.84791255 0.2884531 1.0988253
-0.098658204 -0.5673181 0.84855866 0.30216095 0.93932676
-0.09891105 -0.5673681 0.8478391 0.29988736 0.93919694
-0.08603122 -0.63010645 0.8484853 0.30342478 0.7875742
-0.08627979 -0.63022286 0.8477656 0.30113223 0.7864411
-0.08619143 -0.63020545 0.8461528 0.0069661736 0.44157055
-0.08627979 -0.63022286 0.8477656 0.0030020475 0.44176152
-0.085171975 -0.6320022 0.8477661 0.3046881 0.7805437
-0.0850134 -0.6316905 0.8484858 0.3060646 0.78287625
-0.085171975 -0.6320022 0.8477661 0.0030916631 0.4476589
-0.08508362 -0.6319847 0.8461533 0.007384509 0.44762743
-0.076733716 -0.62834036 0.6735252 0.331908 0.42074367
-0.07562591 -0.6301196 0.67352575 0.3334756 0.42620608
-0.083182506 -0.63243186 0.84615916 0.31010765 0.7755897
-0.08508362 -0.6319847 0.8461533 0.30416858 0.7746848
-0.07372478 -0.6305668 0.67353153 0.33810946 0.42810807
-0.083270855 -0.6324493 0.8477719 0.31010765 0.7795696
0.013998067 -0.612903 0.84653646 0.50012726 0.7755897
0.013991985 -0.6129039 0.8481494 0.50012726 0.7795696
-0.083306916 -0.63211334 0.848491 0.31066102 0.78125584
0.013924329 -0.6125811 0.8488685 0.50012726 0.7846712
0.11115294 -0.5930357 0.84924597 0.6880576 0.78300995
0.11125483 -0.5933584 0.8485271 0.68845314 0.78009903
0.111178644 -0.5933741 0.8469137 0.68884104 0.77588725
0.112759426 -0.59222716 0.8469214 0.6945973 0.7764994
0.1119511 -0.59151 0.8495493 0.69130915 0.78678346
0.110883005 -0.5922849 0.8495441 0.6878977 0.78576636
0.013766407 -0.611801 0.8491671 0.50012726 0.78842574
-0.097969435 -0.56718 0.848859 0.3043576 0.939449
-0.085382596 -0.62981373 0.84878576 0.30559582 0.7884798
-0.08463472 -0.63101494 0.8487861 0.3073822 0.78499895
-0.08335019 -0.6313171 0.84879005 0.31080085 0.7840136
0.11217688 -0.5901132 0.84955275 0.6930703 0.79028094
0.09959004 -0.52747947 0.84962595 0.6932164 0.9414396
0.08698963 -0.46477813 0.84969926 0.70303875 1.099605
0.0864283 -0.46360755 0.8496995 0.70205057 1.1034777
0.08499262 -0.46333802 0.84969497 0.69792247 1.1051457
-0.012145805 -0.48285845 0.84931785 0.50012726 1.1051929
-0.10928422 -0.5023789 0.84894073 0.2984671 1.1032889
-0.11050433 -0.5031821 0.84893495 0.29435116 1.1015826
-0.11056985 -0.5044787 0.8489323 0.29339084 1.097701
0.0023662923 -0.54683745 0.68898493 0.24915564 0.12446969
0.0046676565 -0.55831164 0.690124 0.2595957 0.12344142
0.006872504 -0.56934917 0.69352424 0.26963466 0.12039613
0.008896096 -0.5795259 0.69905496 0.27888656 0.1154509
0.010660668 -0.58845073 0.7065036 0.28699595 0.10879571
0.012098414 -0.59578073 0.71558404 0.2936511 0.100686334
0.01315408 -0.6012342 0.72594726 0.29859632 0.09143443
0.0137870945 -0.6046015 0.7371949 0.30164164 0.08139553
0.0139731355 -0.60575336 0.7488949 0.30266994 0.0709554
0.01370505 -0.6046454 0.7605974 0.30164164 0.060515277
0.012993144 -0.6013202 0.7718529 0.29859632 0.050476372
0.011864771 -0.5959056 0.7822288 0.2936511 0.041224472
0.010363296 -0.58860964 0.7913263 0.28699595 0.033115096
0.008546423 -0.57971275 0.7987959 0.27888656 0.02645991
0.00648397 -0.5695568 0.8043504 0.26963466 0.021514647
0.004255199 -0.55853206 0.8077764 0.2595957 0.018469386
0.0019457538 -0.5470622 0.80894226 0.24915564 0.017441116
-0.0003556077 -0.5355881 0.8078032 0.23871547 0.018469386
-0.002560457 -0.52455056 0.804403 0.22867656 0.021514647
-0.004584049 -0.51437384 0.79887223 0.21942466 0.02645991
-0.006348621 -0.505449 0.79142356 0.21131533 0.033115096
-0.007786365 -0.498119 0.78234315 0.20466012 0.04122445
-0.008842032 -0.49266553 0.77198 0.1997149 0.050476372
-0.009475048 -0.4892982 0.7607323 0.19666964 0.060515277
-0.009661087 -0.48814636 0.7490323 0.19564134 0.0709554
-0.009393003 -0.48925433 0.7373298 0.19666964 0.08139553
-0.008681094 -0.49257952 0.7260743 0.1997149 0.09143443
-0.0075527243 -0.4979941 0.7156984 0.20466012 0.100686334
-0.0060512517 -0.50529003 0.7066009 0.21131533 0.10879571
-0.0042343764 -0.5141869 0.69913137 0.21942466 0.1154509
-0.0021719215 -0.5243429 0.6935768 0.22867656 0.12039616
5.6849094e-05 -0.53536767 0.6901508 0.23871547 0.12344142
0.0023662923 -0.54683745 0.68898493 0.277739 0.48892128
0.119972594 -0.5232039 0.6894415 0.277739 0.98537767
0.12227397 -0.53467804 0.69058055 0.2695356 0.98537767
0.0046676565 -0.55831164 0.690124 0.2695356 0.48892128
5.6849094e-05 -0.53536767 0.6901508 0.023433864 0.4889214
0.11766315 -0.51173407 0.69060737 0.023433864 0.98537767
0.119972594 -0.5232039 0.6894415 0.015230477 0.98537767
0.0023662923 -0.54683745 0.68898493 0.015230477 0.4889214
-0.0021719215 -0.5243429 0.6935768 0.03163725 0.4889214
0.115434386 -0.50070935 0.6940334 0.03163725 0.98537767
0.12227397 -0.53467804 0.69058055 0.14810765 0.12344142
0.119972594 -0.5232039 0.6894415 0.13766754 0.12446969
0.11766315 -0.51173407 0.69060737 0.12722737 0.12344142
0.115434386 -0.50070935 0.6940334 0.11718851 0.12039616
0.11337193 -0.49055338 0.69958794 0.10793662 0.1154509
0.111555055 -0.48165646 0.7070575 0.09982723 0.10879571
0.11005359 -0.47436053 0.716155 0.093172014 0.100686334
0.108925216 -0.46894595 0.72653085 0.088226795 0.09143443
0.108213305 -0.46562076 0.73778635 0.085181475 0.08139553
0.107945226 -0.4645128 0.74948895 0.084153235 0.0709554
0.10813126 -0.46566463 0.76118886 0.085181475 0.060515277
0.10876428 -0.46903196 0.77243656 0.088226855 0.050476372
0.10981994 -0.47448543 0.7827997 0.09317207 0.04122445
0.11125769 -0.4818154 0.79188013 0.09982723 0.033115096
0.11302226 -0.49074024 0.7993288 0.10793662 0.02645991
0.11504585 -0.50091696 0.8048596 0.11718851 0.021514647
0.117250696 -0.51195455 0.8082598 0.12722737 0.018469386
0.11955205 -0.5234287 0.80939883 0.13766754 0.017441116
0.1218615 -0.5348985 0.80823296 0.14810765 0.018469386
0.124090284 -0.54592323 0.80480695 0.1581465 0.021514647
0.12615274 -0.5560792 0.79925245 0.16739845 0.02645991
0.12796961 -0.5649761 0.7917829 0.17550784 0.033115096
0.12947108 -0.572272 0.7826854 0.18216306 0.041224472
0.13059945 -0.5776866 0.7723095 0.18710828 0.050476372
0.13131136 -0.5810118 0.761054 0.19015354 0.060515277
0.13157944 -0.58211976 0.74935144 0.19118178 0.0709554
0.1313934 -0.58096796 0.73765147 0.19015354 0.08139553
0.13076039 -0.5776006 0.72640383 0.18710828 0.09143443
0.12970473 -0.57214713 0.7160406 0.18216306 0.100686334
0.12826698 -0.5648172 0.70696026 0.17550784 0.10879571
0.12650241 -0.5558923 0.6995115 0.16739845 0.1154509
0.12447882 -0.5457156 0.6939808 0.1581465 0.12039613
-0.0042343764 -0.5141869 0.69913137 0.03984064 0.4889214
0.11337193 -0.49055338 0.69958794 0.03984064 0.98537767
-0.0060512517 -0.50529003 0.7066009 0.048044026 0.4889214
0.111555055 -0.48165646 0.7070575 0.048044026 0.98537767
-0.0075527243 -0.4979941 0.7156984 0.056247413 0.4889214
0.11005359 -0.47436053 0.716155 0.056247413 0.98537767
-0.008681094 -0.49257952 0.7260743 0.0644508 0.4889214
0.108925216 -0.46894595 0.72653085 0.0644508 0.98537767
-0.009393003 -0.48925433 0.7373298 0.07265419 0.4889214
0.108213305 -0.46562076 0.73778635 0.07265419 0.98537767
-0.009661087 -0.48814636 0.7490323 0.080857575 0.4889214
0.107945226 -0.4645128 0.74948895 0.080857575 0.98537767
-0.009475048 -0.4892982 0.7607323 0.08906096 0.4889214
0.10813126 -0.46566463 0.76118886 0.08906096 0.98537767
-0.008842032 -0.49266553 0.77198 0.09726435 0.4889214
0.10876428 -0.46903196 0.77243656 0.09726435 0.98537767
-0.007786365 -0.498119 0.78234315 0.105467856 0.4889214
0.10981994 -0.47448543 0.7827997 0.105467856 0.98537767
-0.006348621 -0.505449 0.79142356 0.11367124 0.4889214
0.11125769 -0.4818154 0.79188013 0.11367124 0.98537767
-0.004584049 -0.51437384 0.79887223 0.12187463 0.4889214
0.11302226 -0.49074024 0.7993288 0.12187463 0.98537767
-0.002560457 -0.52455056 0.804403 0.13007802 0.4889214
0.11504585 -0.50091696 0.8048596 0.13007802 0.98537767
-0.0003556077 -0.5355881 0.8078032 0.1382814 0.4889214
0.117250696 -0.51195455 0.8082598 0.1382814 0.98537767
0.0019457538 -0.5470622 0.80894226 0.14648479 0.4889214
0.11955205 -0.5234287 0.80939883 0.14648479 0.98537767
0.004255199 -0.55853206 0.8077764 0.15468818 0.4889214
0.1218615 -0.5348985 0.80823296 0.15468818 0.98537767
0.00648397 -0.5695568 0.8043504 0.16289157 0.4889214
0.124090284 -0.54592323 0.80480695 0.16289157 0.98537767
0.008546423 -0.57971275 0.7987959 0.17109495 0.4889214
0.12615274 -0.5560792 0.79925245 0.17109495 0.98537767
0.010363296 -0.58860964 0.7913263 0.17929834 0.4889214
0.12796961 -0.5649761 0.7917829 0.17929834 0.98537767
0.011864771 -0.5959056 0.7822288 0.18750173 0.4889214
0.12947108 -0.572272 0.7826854 0.18750173 0.98537767
0.012993144 -0.6013202 0.7718529 0.19570512 0.4889214
0.13059945 -0.5776866 0.7723095 0.19570512 0.98537767
0.01370505 -0.6046454 0.7605974 0.2039085 0.4889214
0.13131136 -0.5810118 0.761054 0.2039085 0.98537767
0.0139731355 -0.60575336 0.7488949 0.21211189 0.4889214
0.13157944 -0.58211976 0.74935144 0.21211189 0.98537767
0.0137870945 -0.6046015 0.7371949 0.22031528 0.4889214
0.1313934 -0.58096796 0.73765147 0.22031528 0.98537767
0.01315408 -0.6012342 0.72594726 0.22851866 0.4889214
0.13076039 -0.5776006 0.72640383 0.22851866 0.98537767
0.012098414 -0.59578073 0.71558404 0.23672205 0.4889214
0.12970473 -0.57214713 0.7160406 0.23672205 0.98537767
0.010660668 -0.58845073 0.7065036 0.24492544 0.4889214
0.12826698 -0.5648172 0.70696026 0.24492544 0.98537767
0.008896096 -0.5795259 0.69905496 0.25312883 0.4889214
0.12650241 -0.5558923 0.6995115 0.25312883 0.98537767
0.006872504 -0.56934917 0.69352424 0.2613322 0.48892128
0.12447882 -0.5457156 0.6939808 0.2613322 0.98537767
-0.10368141 -0.5681483 0.68857324 0.89368683 0.12446969
-0.101380035 -0.57962245 0.6897123 0.9041269 0.12344142
-0.09917519 -0.59066 0.6931125 0.91416585 0.12039613
-0.09715161 -0.6008367 0.69864327 0.92341775 0.1154509
-0.095387034 -0.60976154 0.70609194 0.93152714 0.10879571
-0.09394928 -0.61709154 0.71517235 0.9381823 0.100686334
-0.09289362 -0.622545 0.7255355 0.9431275 0.09143443
-0.09226061 -0.6259123 0.7367832 0.94617283 0.08139553
-0.092074566 -0.62706417 0.7484831 0.94720113 0.0709554
-0.09234265 -0.6259562 0.7601857 0.94617283 0.060515277
-0.093054555 -0.622631 0.7714412 0.9431275 0.050476372
-0.09418293 -0.6172164 0.7818171 0.9381823 0.041224472
-0.0956844 -0.60992044 0.7909146 0.93152714 0.033115096
-0.09750128 -0.60102355 0.79838413 0.92341775 0.02645991
-0.099563725 -0.5908676 0.8039386 0.91416585 0.021514647
-0.10179251 -0.57984287 0.8073647 0.9041269 0.018469386
-0.104101956 -0.568373 0.80853057 0.89368683 0.017441116
-0.10640331 -0.5568989 0.8073915 0.88324666 0.018469386
-0.10860816 -0.54586136 0.80399126 0.87320775 0.021514647
-0.11063175 -0.53568465 0.79846054 0.86395586 0.02645991
-0.112396315 -0.5267598 0.7910118 0.8558465 0.033115096
-0.11383407 -0.5194298 0.78193146 0.8491913 0.04122445
-0.114889726 -0.51397634 0.77156824 0.8442461 0.050476372
-0.11552275 -0.510609 0.7603206 0.8412008 0.060515277
-0.11570878 -0.5094572 0.7486206 0.8401725 0.0709554
-0.115440704 -0.51056516 0.73691803 0.8412008 0.08139553
-0.11472879 -0.5138903 0.7256625 0.8442461 0.09143443
-0.11360042 -0.51930493 0.7152867 0.8491913 0.100686334
-0.112098955 -0.52660084 0.70618916 0.8558465 0.10879571
-0.11028208 -0.5354977 0.6987196 0.86395586 0.1154509
-0.10821962 -0.5456537 0.6931651 0.87320775 0.12039616
-0.10599085 -0.5566785 0.6897391 0.88324666 0.12344142
-0.10368141 -0.5681483 0.68857324 0.7242148 0.98537767
0.0003808434 -0.54723644 0.6889772 0.7242148 0.4889213
0.0026822074 -0.55871063 0.6901163 0.7324182 0.4889213
-0.101380035 -0.57962245 0.6897123 0.7324182 0.98537767
-0.10599085 -0.5566785 0.6897391 0.9785199 0.98537755
-0.0019286 -0.53576666 0.6901431 0.9785199 0.4889213
0.0003808434 -0.54723644 0.6889772 0.9867233 0.4889213
-0.10368141 -0.5681483 0.68857324 0.9867233 0.98537755
-0.10821962 -0.5456537 0.6931651 0.9703165 0.98537755
-0.004157371 -0.5247419 0.6935691 0.9703165 0.4889213
0.0026822074 -0.55871063 0.6901163 0.79263884 0.12344142
0.0003808434 -0.54723644 0.6889772 0.7821987 0.12446969
-0.0019286 -0.53576666 0.6901431 0.77175856 0.12344142
-0.004157371 -0.5247419 0.6935691 0.7617197 0.12039616
-0.0062198257 -0.5145859 0.6991236 0.7524678 0.1154509
-0.008036701 -0.505689 0.70659316 0.7443584 0.10879571
-0.009538174 -0.4983931 0.7156907 0.7377032 0.100686334
-0.010666544 -0.4929785 0.7260665 0.732758 0.09143443
-0.011378452 -0.48965332 0.73732203 0.72971267 0.08139553
-0.011646536 -0.48854536 0.7490246 0.7286844 0.0709554
-0.011460497 -0.48969716 0.7607246 0.72971267 0.060515277
-0.010827482 -0.49306452 0.77197224 0.73275805 0.050476372
-0.009771815 -0.49851796 0.7823354 0.73770326 0.04122445
-0.008334071 -0.50584793 0.7914158 0.7443584 0.033115096
-0.006569498 -0.5147728 0.79886454 0.7524678 0.02645991
-0.0045459056 -0.52494955 0.80439526 0.7617197 0.021514647
-0.0023410567 -0.5359871 0.8077955 0.77175856 0.018469386
-3.9695064e-05 -0.5474612 0.80893457 0.7821987 0.017441116
0.00226975 -0.55893105 0.8077687 0.79263884 0.018469386
0.004498521 -0.56995577 0.8043426 0.8026777 0.021514647
0.006560974 -0.58011174 0.79878813 0.81192964 0.02645991
0.008377847 -0.5890086 0.7913186 0.82003903 0.033115096
0.009879322 -0.5963046 0.7822211 0.82669425 0.041224472
0.0110076945 -0.6017192 0.7718452 0.83163947 0.050476372
0.0117196 -0.60504436 0.7605897 0.8346847 0.060515277
0.011987686 -0.6061523 0.7488871 0.83571297 0.0709554
0.011801645 -0.6050005 0.7371872 0.8346847 0.08139553
0.011168631 -0.6016332 0.7259395 0.83163947 0.09143443
0.010112965 -0.5961797 0.71557635 0.82669425 0.100686334
0.008675219 -0.5888497 0.70649594 0.82003903 0.10879571
0.0069106463 -0.5799249 0.6990472 0.81192964 0.1154509
0.0048870556 -0.56974816 0.6935165 0.8026777 0.12039613
-0.11028208 -0.5354977 0.6987196 0.96211314 0.98537755
-0.0062198257 -0.5145859 0.6991236 0.96211314 0.4889213
-0.112098955 -0.52660084 0.70618916 0.95390975 0.98537755
-0.008036701 -0.505689 0.70659316 0.95390975 0.4889213
-0.11360042 -0.51930493 0.7152867 0.94570637 0.98537755
-0.009538174 -0.4983931 0.7156907 0.94570637 0.4889213
-0.11472879 -0.5138903 0.7256625 0.937503 0.98537755
-0.010666544 -0.4929785 0.7260665 0.937503 0.4889213
-0.115440704 -0.51056516 0.73691803 0.9292996 0.98537755
-0.011378452 -0.48965332 0.73732203 0.9292996 0.4889213
-0.11570878 -0.5094572 0.7486206 0.9210962 0.98537755
-0.011646536 -0.48854536 0.7490246 0.9210962 0.4889213
-0.11552275 -0.510609 0.7603206 0.9128928 0.98537755
-0.011460497 -0.48969716 0.7607246 0.9128928 0.4889213
-0.114889726 -0.51397634 0.77156824 0.90468943 0.98537755
-0.010827482 -0.49306452 0.77197224 0.90468943 0.4889213
-0.11383407 -0.5194298 0.78193146 0.8964859 0.98537755
-0.009771815 -0.49851796 0.7823354 0.8964859 0.4889213
-0.112396315 -0.5267598 0.7910118 0.88828254 0.98537755
-0.008334071 -0.50584793 0.7914158 0.88828254 0.4889213
-0.11063175 -0.53568465 0.79846054 0.88007915 0.98537755
-0.006569498 -0.5147728 0.79886454 0.88007915 0.4889213
-0.10860816 -0.54586136 0.80399126 0.87187576 0.98537755
-0.0045459056 -0.52494955 0.80439526 0.87187576 0.4889213
-0.10640331 -0.5568989 0.8073915 0.8636724 0.98537755
-0.0023410567 -0.5359871 0.8077955 0.8636724 0.4889213
-0.104101956 -0.568373 0.80853057 0.855469 0.98537755
-3.9695064e-05 -0.5474612 0.80893457 0.855469 0.4889213
-0.10179251 -0.57984287 0.8073647 0.8472656 0.98537755
0.00226975 -0.55893105 0.8077687 0.8472656 0.4889213
-0.099563725 -0.5908676 0.8039386 0.8390622 0.98537755
0.004498521 -0.56995577 0.8043426 0.8390622 0.4889213
-0.09750128 -0.60102355 0.79838413 0.8308588 0.98537755
0.006560974 -0.58011174 0.79878813 0.8308588 0.4889213
-0.0956844 -0.60992044 0.7909146 0.82265544 0.98537755
0.008377847 -0.5890086 0.7913186 0.82265544 0.4889213
-0.09418293 -0.6172164 0.7818171 0.81445205 0.98537755
0.009879322 -0.5963046 0.7822211 0.81445205 0.4889213
-0.093054555 -0.622631 0.7714412 0.80624866 0.98537755
0.0110076945 -0.6017192 0.7718452 0.80624866 0.4889213
-0.09234265 -0.6259562 0.7601857 0.7980453 0.98537755
0.0117196 -0.60504436 0.7605897 0.7980453 0.4889213
-0.092074566 -0.62706417 0.7484831 0.7898419 0.98537755
0.011987686 -0.6061523 0.7488871 0.7898419 0.4889213
-0.09226061 -0.6259123 0.7367832 0.7816385 0.98537755
0.011801645 -0.6050005 0.7371872 0.7816385 0.4889213
-0.09289362 -0.622545 0.7255355 0.7734351 0.98537755
0.011168631 -0.6016332 0.7259395 0.7734351 0.4889213
-0.09394928 -0.61709154 0.71517235 0.7652317 0.98537755
0.010112965 -0.5961797 0.71557635 0.7652317 0.4889213
-0.095387034 -0.60976154 0.70609194 0.75702834 0.98537755
0.008675219 -0.5888497 0.70649594 0.75702834 0.4889213
-0.09715161 -0.6008367 0.69864327 0.74882495 0.98537755
0.0069106463 -0.5799249 0.6990472 0.74882495 0.4889213
-0.09917519 -0.59066 0.6931125 0.74062157 0.98537767
0.0048870556 -0.56974816 0.6935165 0.74062157 0.4889213
4 0 1 2 3
4 3 2 4 5
6 3 5 6 7 8 9
6 10 11 0 3 9 12
4 13 6 5 4
4 2 14 15 4
4 16 13 4 15
4 17 18 19 20
4 21 19 18 22
4 23 21 22 24
4 1 25 14 2
4 26 23 24 27
4 28 29 25 1
4 11 28 1 0
4 10 30 31 11
4 30 32 33 31
4 12 34 30 10
4 34 35 32 30
4 36 37 38 39
4 37 26 27 38
4 40 36 39 41
4 34 42 43 35
4 44 40 41 45
4 42 46 47 43
4 48 49 46 42
4 12 48 42 34
4 49 50 51 52
4 52 51 53 54
4 50 55 56 51
4 51 56 57 53
4 58 44 45 59
4 60 58 59 61
4 62 60 61 63
4 56 64 65 57
4 63 66 67 62
4 68 65 64 69
4 55 70 64 56
4 69 64 70 71
4 72 73 71 74
4 75 66 73 72
4 74 8 76 72
4 72 76 77 75
4 66 75 78 67
4 79 78 75 77
4 80 79 77 81
4 82 81 77 76
4 81 17 20 80
4 81 82 83 17
4 7 82 76 8
4 82 7 6 83
6 55 9 8 74 71 70
4 80 20 84 85
4 85 86 79 80
16 87 88 89 90 86 85 84 91 92 93 94 95 96 97 98 99
4 86 90 78 79
4 67 78 90 89
4 62 67 89 88
4 88 87 60 62
4 87 99 58 60
4 99 98 44 58
4 98 97 40 44
4 97 96 36 40
4 96 95 37 36
4 95 94 26 37
4 94 93 23 26
4 93 92 21 23
4 92 91 19 21
4 20 19 91 84
6 48 12 9 55 50 49
32 100 101 102 103 104 105 106 107 108 109 110 111 112 113 114 115 116 117 118 119 120 121 122 123 124 125 126 127 128 129 130 131
4 132 133 134 135
4 136 137 138 139
4 140 141 137 136
32 142 143 144 145 146 147 148 149 150 151 152 153 154 155 156 157 158 159 160 161 162 163 164 165 166 167 168 169 170 171 172 173
4 174 175 141 140
4 176 177 175 174
4 178 179 177 176
4 180 181 179 178
4 182 183 181 180
4 184 185 183 182
4 186 187 185 184
4 188 189 187 186
4 190 191 189 188
4 192 193 191 190
4 194 195 193 192
4 196 197 195 194
4 198 199 197 196
4 200 201 199 198
4 202 203 201 200
4 204 205 203 202
4 206 207 205 204
4 208 209 207 206
4 210 211 209 208
4 212 213 211 210
4 214 215 213 212
4 216 217 215 214
4 218 219 217 216
4 220 221 219 218
4 222 223 221 220
4 224 225 223 222
4 226 227 225 224
4 228 229 227 226
4 135 134 229 228
32 230 231 232 233 234 235 236 237 238 239 240 241 242 243 244 245 246 247 248 249 250 251 252 253 254 255 256 257 258 259 260 261
4 262 263 264 265
4 266 267 268 269
4 270 271 267 266
32 272 273 274 275 276 277 278 279 280 281 282 283 284 285 286 287 288 289 290 291 292 293 294 295 296 297 298 299 300 301 302 303
4 304 305 271 270
4 306 307 305 304
4 308 309 307 306
4 310 311 309 308
4 312 313 311 310
4 314 315 313 312
4 316 317 315 314
4 318 319 317 316
4 320 321 319 318
4 322 323 321 320
4 324 325 323 322
4 326 327 325 324
4 328 329 327 326
4 330 331 329 328
4 332 333 331 330
4 334 335 333 332
4 336 337 335 334
4 338 339 337 336
4 340 341 339 338
4 342 343 341 340
4 344 345 343 342
4 346 347 345 344
4 348 349 347 346
4 350 351 349 348
4 352 353 351 350
4 354 355 353 352
4 356 357 355 354
4 358 359 357 356
4 265 264 359 358
