ply
format ascii 1.0
comment Created in Blender version 4.1.1
element vertex 557
property float x
property float y
property float z
property float s
property float t
element face 318
property list uchar uint vertex_indices
end_header
0.13396311 -0.61583173 1.3091419 1.0859425 0.7846271
0.12935805 -0.585091 1.3043971 1.0815679 0.84335065
0.12950064 -0.5861875 1.2422594 1.0167001 0.84335124
0.12991165 -0.58893204 1.2423087 1.0167001 0.83812064
0.13319053 -0.6108269 1.2427026 1.0167 0.7963954
0.13384065 -0.6151643 1.2444336 1.0184251 0.788074
0.13410236 -0.61690253 1.2484556 1.0225899 0.78462726
0.00897152 -0.59813166 1.2477535 0.49942195 0.8018716
0.0007720138 -0.54326034 1.2978561 0.4994297 0.87595946
-0.10667207 -0.55955374 1.2978649 0.409745 0.87587744
-0.09667059 -0.61393034 1.2478242 0.411247 0.8019435
0.10937459 -0.4513293 1.440219 1.2258241 1.0936135
0.10982983 -0.4543756 1.437534 1.2229646 1.0879
0.11921407 -0.5170393 1.4386613 1.222965 0.9684825
0.11875382 -0.5134998 1.6392484 1.4335611 0.96848834
0.10892062 -0.44783813 1.6380672 1.4335665 1.0936227
0.10506737 -0.4228791 1.3056707 1.0851562 0.22534642
0.104766205 -0.42056298 1.4369256 1.2229624 0.22534642
0.13273714 -0.41637436 1.436916 1.2229624 0.2946707
0.13303831 -0.41869044 1.305661 1.0851562 0.2946707
0.1721058 -0.4443458 1.3062034 1.0851562 0.37499824
0.17224506 -0.44541666 1.2455171 1.0214411 0.37499824
0.13317756 -0.4197613 1.2449749 1.0214411 0.2946707
0.16558336 -0.44651574 1.2398776 0.93986535 0.049138248
0.11231451 -0.45449272 1.239896 0.8839097 0.047185093
0.10942321 -0.45211956 1.2398477 0.88137543 0.04442866
0.10614434 -0.4302247 1.2394538 0.88231933 0.023225851
0.13426019 -0.42601436 1.239444 0.9119768 0.024922855
0.13396311 -0.61583173 1.3091419 1.0851562 0.7846197
0.13410236 -0.61690253 1.2484556 1.0214411 0.7846197
0.1620733 -0.61271393 1.2484459 1.0214411 0.71529555
0.16193405 -0.6116431 1.3091321 1.0851562 0.71529555
0.19177221 -0.5756691 1.3085657 1.0851562 0.634968
0.19147104 -0.57335305 1.4398208 1.2229624 0.634968
0.16163288 -0.60932696 1.440387 1.2229624 0.71529555
0.112717114 -0.4472004 1.641913 0.88134307 0.9536727
0.122550316 -0.5128621 1.6430943 0.8802025 0.890461
0.19139127 -0.50255316 1.6430702 0.953433 0.88991815
0.16678418 -0.4391039 1.6418942 0.9382046 0.95246214
0.1285983 -0.57970303 1.4397886 1.2229649 0.8490643
0.12904099 -0.5826526 1.4425814 1.2258244 0.843351
0.12858702 -0.57916147 1.6404296 1.4335679 0.8433459
0.11966743 -0.5205258 1.2410781 0.8796469 0.11041722
0.11024524 -0.4576087 1.2399464 0.8811682 0.049726892
0.19020171 -0.50996333 1.2410536 0.9544677 0.11150053
0.13366194 -0.6135156 1.4403968 1.2229624 0.7846197
0.16117263 -0.6057875 1.6409743 1.4335612 0.71529555
0.13320169 -0.6099761 1.6409839 1.4335612 0.7846197
0.18645059 -0.57042724 1.6442566 0.9372845 0.82760125
0.13238353 -0.57852376 1.6442754 0.8804002 0.82723373
0.13636759 -0.6051276 1.644754 0.8813046 0.80212426
0.16063201 -0.601494 1.6447456 0.9063878 0.80235696
0.19638745 -0.5054826 1.4386344 1.2229624 0.50498307
0.17180464 -0.4420297 1.4374583 1.2229624 0.37499824
0.17134438 -0.4384902 1.6380455 1.4335612 0.37499824
0.1959272 -0.5019431 1.6392215 1.4335612 0.50498307
0.19101079 -0.56981355 1.6404078 1.4335612 0.634968
0.10430595 -0.41702348 1.6375129 1.4335612 0.22534642
0.1322769 -0.41283485 1.6375031 1.4335612 0.2946707
0.13299747 -0.41696298 1.6414261 0.9076882 0.9781546
0.10873304 -0.42059657 1.6414344 0.8826178 0.97875637
0.10506737 -0.4228791 1.3056707 1.0859424 1.1523366
0.10975184 -0.45416957 1.3020418 1.0815679 1.0928471
0.10938716 -0.45142597 1.434741 1.2201053 1.0936134
0.10893191 -0.4483797 1.4374261 1.2229646 1.0993266
0.104766205 -0.42056298 1.4369256 1.2229645 1.1523373
0.19668862 -0.50779873 1.3073795 1.0851562 0.50498307
0.109163746 -0.596722 0.85366637 0.40046865 0.7854285
0.127017 -0.5865594 1.2422602 0.40046865 0.21047142
0.12179179 -0.5874727 1.2354734 0.40909454 0.21047142
0.09933021 -0.59819454 0.8536698 0.40909454 0.7854285
0.12949623 -0.5856989 1.4398963 1.2229649 0.83763766
0.13366194 -0.6135156 1.4403968 1.2229648 0.7846267
0.12969533 -0.5789466 1.6431495 1.4366418 0.8433481
0.119862124 -0.5132849 1.6419683 1.4366348 0.96848834
0.119862124 -0.5132849 1.6419683 0.87709653 0.89048415
0.12969533 -0.5789466 1.6431495 0.87728864 0.8271684
0.18934824 -0.570453 1.6431365 0.9404711 0.82702476
0.19454823 -0.5021007 1.6419423 0.9569716 0.88989204
0.19454823 -0.5021007 1.6419423 1.4368602 0.50498307
0.18934824 -0.570453 1.6431365 1.4368602 0.634968
0.13277993 -0.41420174 1.6402495 0.9080734 0.9810415
0.10605828 -0.4184189 1.6402626 0.8801113 0.981453
0.10605828 -0.4184189 1.6402626 1.4368602 0.22534642
0.13277993 -0.41420174 1.6402495 1.4368602 0.2946707
0.16123883 -0.6042375 1.6436682 1.4368602 0.71529555
0.13445403 -0.6080329 1.6436737 1.4368602 0.7846197
0.13445403 -0.6080329 1.6436737 0.87875754 0.799464
0.16123883 -0.6042375 1.6436682 0.9067305 0.799464
0.16955312 -0.4382701 1.6407586 0.94139904 0.95299155
0.16955312 -0.4382701 1.6407586 1.4368602 0.37499824
0.13445403 -0.6080329 1.6436737 1.4368168 0.78779924
0.11002892 -0.44762322 1.6407871 0.8782347 0.95378405
0.11002892 -0.44762322 1.6407871 1.4366401 1.093621
0.10605828 -0.4184189 1.6402626 1.4368148 1.1491678
0.10430595 -0.41702348 1.6375129 1.4335592 1.1523467
0.19682787 -0.5088696 1.2466933 1.0214411 0.50498307
0.19191146 -0.57673997 1.2478796 1.0214411 0.634968
0.18996564 -0.57710314 1.2438909 1.0168477 0.634968
0.19489245 -0.50923115 1.2427045 1.0168477 0.50498307
0.19489245 -0.50923115 1.2427045 0.9596963 0.11157627
0.18996564 -0.57710314 1.2438909 0.94330275 0.173673
0.18524976 -0.5778391 1.24224 0.9380653 0.17341375
0.13384065 -0.6151643 1.2444336 1.0168477 0.7846197
0.16185403 -0.6109693 1.2444239 1.0168477 0.71529555
0.16185403 -0.6109693 1.2444239 0.9096323 0.20133781
0.13384065 -0.6151643 1.2444336 0.879921 0.20217806
0.13319053 -0.6108269 1.2427026 0.8797928 0.19764793
0.16130638 -0.60661656 1.2426928 0.90948725 0.19681126
0.10520662 -0.42394993 1.2449846 1.0214411 0.22534642
0.13350001 -0.42163402 1.2410179 1.0168477 0.2946707
0.10548663 -0.425829 1.2410277 1.0168477 0.22534642
0.10548663 -0.425829 1.2410277 0.88257873 0.018701404
0.13350001 -0.42163402 1.2410179 0.91225326 0.020402454
0.17029923 -0.4457798 1.2415284 1.0168477 0.37499824
0.17029923 -0.4457798 1.2415284 0.94510806 0.049030907
0.12991165 -0.58893204 1.2423087 0.87946445 0.17642742
0.13198091 -0.585816 1.2422585 0.8820774 0.17374605
0.10174352 -0.53021663 0.8524758 0.6778373 0.32611147
0.11966743 -0.5205258 1.2410781 0.6778373 0.6696984
0.12908962 -0.5834429 1.24221 0.63866717 0.6696984
0.111236356 -0.5936055 0.8536161 0.63866717 0.32611147
0.10951421 -0.45226988 1.4366935 1.2221272 1.0919399
0.12891762 -0.58183706 1.4390244 1.2221273 0.8450244
0.12905356 -0.5827493 1.4371035 1.2201055 0.843351
0.12908962 -0.5834429 1.24221 0.8794106 0.17112601
0.12886499 -0.5844969 1.2422282 0.63773036 0.6696984
0.11101173 -0.59465957 0.85363424 0.63773036 0.32611147
0.09186607 -0.4659062 0.85131836 0.71788543 0.32611147
0.110107414 -0.4566883 1.2399298 0.71788543 0.6696984
0.11024524 -0.4576087 1.2399464 0.7170188 0.6696984
0.09225068 -0.46682778 0.8513355 0.7170188 0.32611147
0.110004954 -0.59617335 0.8536586 0.39923415 0.7854285
0.12785822 -0.58601075 1.2422526 0.39923415 0.21047142
0.08935605 -0.46445513 0.851287 0.3966742 0.21632877
0.107350595 -0.45523605 1.2398978 0.3966742 0.77826005
0.108978026 -0.4555376 1.2389079 0.39507526 0.77826005
0.090551406 -0.4647406 0.85129476 0.39507526 0.21632877
-0.10991555 -0.6209221 1.3044803 -0.074915886 0.8449377
-0.10531051 -0.6516628 1.3092251 -0.07929027 0.78621405
-0.105171256 -0.6527336 1.248539 -0.015937567 0.786215
-0.105432965 -0.6509954 1.244517 -0.011772871 0.789662
-0.10608309 -0.646658 1.2427859 -0.010047793 0.7979833
-0.10936196 -0.62476313 1.2423921 -0.010048032 0.8397082
-0.10977297 -0.6220186 1.2423427 -0.010048032 0.844939
0.009880682 -0.6042313 1.2355123 0.49942023 0.21047142
0.0108284885 -0.61144763 0.85370064 0.49942023 0.7854285
-0.12989902 -0.48716038 1.4403024 -0.21917307 1.0951983
-0.13035299 -0.48366922 1.6381505 -0.42987812 1.0952036
-0.12051979 -0.5493309 1.6393316 -0.42987192 0.97006816
-0.120059535 -0.5528704 1.4387445 -0.21631348 0.9700668
-0.12944378 -0.4902067 1.4376173 -0.21631372 1.0894849
-0.13420624 -0.45871016 1.305754 -0.07929027 0.22534642
-0.16217718 -0.4628988 1.3057637 -0.07929027 0.2948685
-0.16247834 -0.4605827 1.4370186 -0.21793199 0.2948685
-0.1345074 -0.45639408 1.437009 -0.21793199 0.22534642
-0.19201533 -0.49887273 1.3063301 -0.07929027 0.3754251
-0.16203792 -0.46396965 1.2450776 -0.015188932 0.2948685
-0.19187608 -0.49994358 1.2456439 -0.015188932 0.3754251
-0.18518849 -0.4990436 1.2399997 0.06254785 0.048971325
-0.16124512 -0.4702661 1.2395468 0.09103434 0.025462657
-0.13312927 -0.46605578 1.239537 0.12072484 0.024509221
-0.12985039 -0.48795065 1.2399309 0.121137545 0.04572901
-0.13191965 -0.49106663 1.2399812 0.11853509 0.048421115
-0.10531051 -0.6516628 1.3092251 -0.07929027 0.786215
-0.13328144 -0.6558514 1.3092349 -0.07929027 0.716693
-0.13314219 -0.6569223 1.2485486 -0.015188932 0.716693
-0.105171256 -0.6527336 1.248539 -0.015188932 0.786215
-0.17234893 -0.6301961 1.3086925 -0.07929027 0.6361364
-0.1335826 -0.65353537 1.4404898 -0.21793199 0.716693
-0.1726501 -0.62788 1.4399474 -0.21793199 0.6361364
-0.13416713 -0.48417118 1.641999 0.119125694 0.9537971
-0.1882342 -0.49226767 1.6420178 0.062264178 0.95258677
-0.19317488 -0.56014174 1.6432042 0.047035545 0.8900429
-0.12433393 -0.5498328 1.6431801 0.12026593 0.89058566
-0.110686585 -0.61499256 1.640513 -0.42987788 0.84492666
-0.110232614 -0.6184837 1.4426647 -0.21917236 0.8449359
-0.1106753 -0.61553407 1.4398718 -0.216313 0.850649
-0.119606175 -0.5563569 1.2411615 0.12121193 0.11174026
-0.19014044 -0.5669193 1.241186 0.046386886 0.110948235
-0.12902835 -0.4934398 1.2400296 0.12121193 0.051030785
-0.105611674 -0.6493467 1.44048 -0.21793199 0.786215
-0.10607193 -0.6458072 1.6410673 -0.42980766 0.786215
-0.13404286 -0.6499958 1.6410769 -0.42980766 0.716693
-0.16856779 -0.623591 1.6443802 0.063183755 0.82772577
-0.13478109 -0.6457319 1.6448483 0.09408053 0.8024813
-0.11051667 -0.64209837 1.64484 0.11916384 0.8022486
-0.11450074 -0.6154945 1.6443614 0.12006828 0.8273581
-0.19723292 -0.5644271 1.4387714 -0.21793199 0.5057807
-0.19769317 -0.5608876 1.6393585 -0.42980766 0.5057807
-0.19277675 -0.49301714 1.6381721 -0.42980766 0.3754251
-0.1923165 -0.49655664 1.4375851 -0.21793199 0.3754251
-0.17311035 -0.6243405 1.6405346 -0.42980766 0.6361364
-0.1629386 -0.4570432 1.6376059 -0.42980766 0.2948685
-0.13496765 -0.45285457 1.6375961 -0.42980766 0.22534642
-0.13815121 -0.45756733 1.6415204 0.11785075 0.97888076
-0.16241564 -0.46120092 1.6415288 0.09278032 0.978279
-0.12952177 -0.49000067 1.3021251 -0.07491672 1.0944343
-0.13420624 -0.45871016 1.305754 -0.07929158 1.1539234
-0.1345074 -0.45639408 1.437009 -0.21631372 1.1539221
-0.1303417 -0.48421076 1.4375093 -0.21631372 1.1009115
-0.12988645 -0.48725706 1.4348242 -0.21345425 1.0951983
-0.19693175 -0.56674314 1.3075163 -0.07929027 0.5057807
0.127017 -0.5865594 1.2422602 0.89607096 0.5733495
0.12950064 -0.5861875 1.2422594 0.8959594 0.5759709
0.12935805 -0.585091 1.3043971 0.8310895 0.57321036
0.12411175 -0.58587664 1.3043988 0.83132505 0.5676732
0.12179179 -0.5874727 1.2354734 0.903394 0.56811833
-0.10607193 -0.6458072 1.6410673 -0.42987096 0.7862011
-0.105611674 -0.6493467 1.44048 -0.21631265 0.7862116
-0.109777376 -0.62153 1.4399797 -0.21631289 0.8392228
-0.12164058 -0.5494498 1.6420524 -0.43294573 0.97006816
-0.111807376 -0.6151115 1.6432335 -0.43295193 0.84492874
-0.12164058 -0.5494498 1.6420524 0.12337193 0.8906088
-0.111807376 -0.6151115 1.6432335 0.12317988 0.8272928
-0.19632669 -0.560634 1.6420784 0.043496937 0.8900169
-0.17133157 -0.6244646 1.643262 0.05999717 0.8271493
-0.19632669 -0.560634 1.6420784 -0.4331267 0.5057807
-0.17133157 -0.6244646 1.643262 -0.4331267 0.6361364
-0.13623248 -0.4547018 1.640347 0.1203576 0.9815774
-0.1630173 -0.4584972 1.6403525 0.09239528 0.9811659
-0.13623248 -0.4547018 1.640347 -0.4331267 0.22534642
-0.1630173 -0.4584972 1.6403525 -0.4331267 0.2948685
-0.10783674 -0.6443158 1.643758 -0.4331267 0.786215
-0.1345584 -0.6485329 1.6437712 -0.4331267 0.716693
-0.10783674 -0.6443158 1.643758 0.121711105 0.7995883
-0.1345584 -0.6485329 1.6437712 0.09373792 0.7995883
-0.19112669 -0.4922817 1.6408842 0.059069727 0.9531162
-0.19112669 -0.4922817 1.6408842 -0.4331267 0.3754251
-0.10783674 -0.6443158 1.643758 -0.4331267 0.7893805
-0.13147378 -0.48378813 1.6408712 0.12223396 0.95390844
-0.13147378 -0.48378813 1.6408712 -0.43295193 1.0952013
-0.13496765 -0.45285457 1.6375961 -0.42987108 1.1539282
-0.13623248 -0.4547018 1.640347 -0.4331267 1.1507488
-0.1967925 -0.567814 1.2468302 -0.015188932 0.5057807
-0.19483878 -0.5675932 1.24284 -0.010567784 0.5057807
-0.17024556 -0.63104457 1.2440162 -0.010567784 0.6361364
-0.17220968 -0.6312669 1.2480063 -0.015188932 0.6361364
-0.19483878 -0.5675932 1.24284 0.04115801 0.11089286
-0.16552208 -0.6303669 1.242362 0.061231542 0.17325339
-0.17024556 -0.63104457 1.2440162 0.055989433 0.17338106
-0.13344634 -0.65519035 1.2445266 -0.010567784 0.716693
-0.105432965 -0.6509954 1.244517 -0.010567784 0.786215
-0.13344634 -0.65519035 1.2445266 0.08895318 0.20187971
-0.13419893 -0.6508683 1.2427957 0.089211866 0.19735864
-0.10608309 -0.646658 1.2427859 0.118873045 0.19894263
-0.105432965 -0.6509954 1.244517 0.11863081 0.20346758
-0.13406698 -0.45978102 1.2450678 -0.015188932 0.22534642
-0.13378698 -0.4616601 1.2411109 -0.010567784 0.22534642
-0.16180035 -0.4658551 1.2411207 -0.010567784 0.2948685
-0.13378698 -0.4616601 1.2411109 0.12057893 0.019979745
-0.16180035 -0.4658551 1.2411207 0.0908715 0.020936757
-0.18991196 -0.49972123 1.2416538 -0.010567784 0.3754251
-0.18991196 -0.49972123 1.2416538 0.05730932 0.04873261
-0.10936196 -0.62476313 1.2423921 0.11974017 0.17773655
-0.112253256 -0.62239 1.2423435 0.11719577 0.17498878
-0.09989424 -0.5604118 0.85254604 0.677769 0.32611147
-0.0904014 -0.62380064 0.85368633 0.7169569 0.32611147
-0.11018399 -0.61927396 1.2422934 0.7169569 0.66964734
-0.119606175 -0.5563569 1.2411615 0.677769 0.66964734
-0.12975939 -0.48810098 1.4367769 -0.21547616 1.0935249
-0.110220045 -0.6185804 1.4371867 -0.21345341 0.8449359
-0.110355996 -0.61766815 1.4391077 -0.21547544 0.84660935
-0.10667207 -0.55955374 1.2978649 0.8377342 0.4949189
-0.09862953 -0.61324656 1.2987828 0.8374839 0.44366106
-0.09667059 -0.61393034 1.2478242 0.89076567 0.4432923
-0.077673234 -0.6247007 0.8537314 0.5897459 0.7854285
-0.10203169 -0.62098145 1.2355511 0.5897459 0.21047142
-0.11018399 -0.61927396 1.2422934 0.119926974 0.17243615
-0.10966044 -0.620216 1.2423111 0.717896 0.66964734
-0.08987787 -0.6247426 0.85370415 0.717896 0.32611147
-0.10929149 -0.49605137 0.85138875 0.6376465 0.32611147
-0.10938708 -0.49702293 0.8514057 0.6385699 0.32611147
-0.12902835 -0.4934398 1.2400296 0.6385699 0.66964734
-0.12916298 -0.49254084 1.2400135 0.6376465 0.66964734
-0.10728934 -0.62164664 1.2423418 0.5983718 0.21047142
-0.10825437 -0.62136847 1.2423347 0.5996121 0.21047142
-0.08847179 -0.62589514 0.8537277 0.5996121 0.7854285
-0.08750677 -0.62617326 0.85373485 0.5983718 0.7854285
-0.10731447 -0.49390644 0.85135543 0.60216624 0.21632877
-0.108351514 -0.49451643 0.85136384 0.6033191 0.21632877
-0.12845364 -0.49106854 1.239989 0.6033191 0.77826005
-0.12695573 -0.4903233 1.2399794 0.60216624 0.77826005
0.10912353 -0.59674394 0.85284495 0.40046865 0.78678143
0.110759325 -0.5956771 0.8528298 0.39923415 0.78678143
0.10170314 -0.5302375 0.8516543 0.6778373 0.32522905
0.11119613 -0.59362745 0.8527946 0.63866717 0.32522905
-0.08935381 -0.6256386 0.8531735 0.5996121 0.78678143
-0.087462455 -0.62618256 0.8529134 0.5983718 0.78678143
-0.09985007 -0.56042 0.8517244 0.677769 0.325335
-0.09035708 -0.62380993 0.85286474 0.7169569 0.325335
0.0794862 -0.46594688 0.85046893 0.40563136 0.21505865
0.07952251 -0.46592772 0.8512904 0.40563136 0.21632877
0.0893155 -0.46447495 0.85046554 0.3966742 0.21505865
0.110759325 -0.5956771 0.8528298 0.63773036 0.32522905
-0.10977297 -0.6220186 1.2423427 0.11983864 0.17508379
-0.12916298 -0.49254084 1.2400135 0.1212012 0.05016473
0.127017 -0.5865594 1.2422602 0.87678254 0.17379627
0.12785822 -0.58601075 1.2422526 0.8777432 0.17338908
0.12848222 -0.5853527 1.2422423 0.8784929 0.17284974
0.12886499 -0.5844969 1.2422282 0.8790197 0.17209178
0.12950064 -0.5861875 1.2422594 0.87943375 0.17377311
-0.10727046 -0.4939136 0.8505339 0.60216624 0.21505865
-0.10830385 -0.4945217 0.85054225 0.6033191 0.21505865
-0.09744116 -0.49244165 0.8505305 0.5932091 0.21505865
-0.09748093 -0.49243388 0.85135204 0.5932091 0.21632877
0.092210144 -0.4668476 0.85051394 0.7170188 0.32522905
0.091429636 -0.46498024 0.85047925 0.71788543 0.32522905
0.091429636 -0.46498024 0.85047925 0.39507526 0.21505865
0.099294215 -0.5982158 0.8528484 0.40909454 0.78678143
0.010830537 -0.61146325 0.8528792 0.49942023 0.78678143
-0.10934307 -0.49703008 0.8505841 0.6385699 0.325335
-0.10934307 -0.49703008 0.8505841 1.9685307 0.021089539
-0.1092472 -0.4960609 0.8505672 1.9697922 0.021538144
-0.10891268 -0.49631366 0.84985375 1.9691417 0.022498703
-0.10899951 -0.49703884 0.84986633 1.968275 0.022211105
-0.10795637 -0.4947551 0.8498285 1.9708633 0.024082996
-0.10713893 -0.49424827 0.8498214 1.9713578 0.025268223
-0.10687173 -0.4950087 0.84953773 1.9703176 0.02551609
-0.08935381 -0.6256386 0.8531735 0.717896 0.325335
-0.07763314 -0.6247106 0.85291 0.5897459 0.78678143
-0.1092472 -0.4960609 0.8505672 0.6376465 0.325335
0.10942321 -0.45211956 1.2398477 1.0167001 1.0988431
0.10995461 -0.455668 1.2399114 1.0167001 1.092081
0.10520662 -0.42394993 1.2449846 1.0225899 1.1523364
0.10548663 -0.425829 1.2410277 1.0184252 1.1488897
0.10614434 -0.4302247 1.2394538 1.0167 1.1405683
0.09670889 -0.46277583 1.2455895 0.8907995 0.44332388
0.106524974 -0.51567197 1.2975903 0.837724 0.49512884
0.09847919 -0.461958 1.2965758 0.83754826 0.44389898
-0.11646588 -0.49414587 1.2966506 0.83754754 0.55752283
-0.108423606 -0.5478604 1.2976651 0.8377236 0.506293
-0.11456836 -0.49441445 1.2456629 0.8907988 0.55809814
-0.12985039 -0.48795065 1.2399309 -0.010049224 1.100431
-0.13312927 -0.46605578 1.239537 -0.010049224 1.1421559
-0.13378698 -0.4616601 1.2411109 -0.011774421 1.1504772
-0.13406698 -0.45978102 1.2450678 -0.015939116 1.1539243
-0.12931898 -0.49149907 1.2399948 -0.010049224 1.0936688
0.10870729 -0.59568805 0.85180885 1.8370281 0.21187496
0.10981256 -0.5949672 0.8517987 1.8377044 0.21342097
0.11043909 -0.5954528 0.8521064 1.8369687 0.21419969
0.10898789 -0.5964337 0.8521204 1.8360026 0.21215756
0.110759325 -0.5956771 0.8528298 1.8361902 0.21502429
0.10912353 -0.59674394 0.85284495 1.8349105 0.21250488
0.110107444 -0.5935835 0.85177493 1.8392988 0.21406402
0.11084891 -0.59362274 0.85207504 1.8390514 0.21514596
0.11119613 -0.59362745 0.8527946 1.8387346 0.21627747
-0.08864242 -0.6246857 0.85186774 1.8378444 0.024462227
-0.08737447 -0.62505114 0.8518771 1.8371657 0.025989763
-0.087424114 -0.6258463 0.85218877 1.8361442 0.025700295
-0.08909902 -0.62533355 0.85217583 1.8371255 0.023696715
-0.087462455 -0.62618256 0.8529134 1.8350511 0.025335636
-0.08935381 -0.6256386 0.8531735 1.8361182 0.022615287
-0.08932971 -0.6234491 0.8518444 1.839426 0.02382642
-0.09002697 -0.6237038 0.85214496 1.8391762 0.02274682
-0.09035708 -0.62380993 0.85286474 1.8388469 0.021613022
-0.09985007 -0.56042 0.8517244 1.9036003 0.017572345
-0.09951687 -0.560383 0.85100585 1.9036053 0.01873663
-0.108260006 -0.49704117 0.8495704 1.9680936 0.023307938
-0.09878971 -0.5602795 0.850708 1.9036098 0.019869821
-0.10830385 -0.4945217 0.85054225 1.9717422 0.023279391
-0.10727046 -0.4939136 0.8505339 1.9724518 0.024945844
0.0989032 -0.5971562 0.8518123 1.8367896 0.1981451
0.010666409 -0.6103696 0.851843 1.8388875 0.118907355
-0.077570386 -0.623583 0.8518737 1.8368742 0.03970769
-0.10791279 -0.4959134 0.8495513 1.9694047 0.023979144
-0.09706541 -0.49354023 0.84953433 1.9705197 0.039317843
-0.008808673 -0.48032382 0.8495036 1.9684266 0.118895605
0.07944807 -0.46710742 0.8494729 1.9705269 0.19840288
0.08925439 -0.46563894 0.8494695 1.9703224 0.21214975
0.09067614 -0.4659791 0.8494787 1.9696474 0.21388647
0.09117715 -0.46717557 0.849501 1.9681422 0.21431108
0.10064745 -0.5304139 0.8506386 1.903537 0.21792708
-0.09744116 -0.49244165 0.8505305 1.9729495 0.039014243
-0.008977479 -0.47919425 0.85049975 1.9712062 0.11889555
-0.00892715 -0.479532 0.84978706 1.9698153 0.11889556
-0.09731775 -0.49277666 0.84981793 1.9717183 0.039125323
-0.07763314 -0.6247106 0.85291 1.8344557 0.0393657
-0.077603355 -0.6243768 0.85218537 1.8356843 0.03949102
0.092210144 -0.4668476 0.85051394 1.9686025 0.21654895
0.10170314 -0.5302375 0.8516543 1.9035321 0.22022657
0.101373225 -0.53029984 0.85093594 1.9035349 0.2190606
0.09188374 -0.4669567 0.8497964 1.9683365 0.21540745
0.091429636 -0.46498024 0.85047925 1.9711268 0.21554086
0.0911633 -0.46532804 0.849766 1.97036 0.21468505
0.0893155 -0.46447495 0.85046554 1.972446 0.21273094
0.08928729 -0.46483356 0.849753 1.9713528 0.2124092
0.0794862 -0.46594688 0.85046893 1.9729495 0.19870566
0.079465844 -0.4663034 0.8497564 1.9717212 0.19859473
0.099294215 -0.5982158 0.8528484 1.8343699 0.19848174
0.010830537 -0.61146325 0.8528792 1.8361187 0.118905894
0.010783516 -0.6111509 0.8521548 1.8375044 0.11890663
0.09916746 -0.59790546 0.85212386 1.835599 0.19835922
0.110107414 -0.4566883 1.2399298 0.88120145 0.04884066
0.10995461 -0.455668 1.2399114 0.8812214 0.0478556
0.10980182 -0.45464766 1.2398931 0.8812756 0.04687176
0.10995461 -0.455668 1.2399114 0.3712042 0.78383875
0.108978026 -0.4555376 1.2389079 0.37737948 0.77872705
0.107350595 -0.45523605 1.2398978 0.38470083 0.78415394
0.11101173 -0.59465957 0.85363424 0.5272923 0.9490051
0.110628985 -0.5955153 0.8536484 0.5222055 0.9484167
0.110759325 -0.5956771 0.8528298 0.522882 0.9436294
0.110628985 -0.5955153 0.8536484 0.3987187 0.617858
0.110004954 -0.59617335 0.8536586 0.40447772 0.61690074
0.110759325 -0.5956771 0.8528298 0.40009964 0.6238548
-0.08847179 -0.62589514 0.8537277 0.6002108 0.61682
-0.0892612 -0.62544876 0.853718 0.60598016 0.61780965
-0.08935381 -0.6256386 0.8531735 0.6051564 0.6220385
-0.0892612 -0.62544876 0.853718 0.49777567 0.9477346
-0.08987787 -0.6247426 0.85370415 0.49268323 0.9483757
-0.08935381 -0.6256386 0.8531735 0.49739194 0.94437885
0.090551406 -0.4647406 0.85129476 0.40731686 0.3873452
0.09131749 -0.465173 0.8513042 0.40199226 0.38674533
0.091429636 -0.46498024 0.85047925 0.40298873 0.38168454
0.09131749 -0.465173 0.8513042 0.6748408 0.9486923
0.09186607 -0.4659062 0.85131836 0.669701 0.9492581
0.091429636 -0.46498024 0.85047925 0.6742296 0.9436294
0.12848222 -0.5853527 1.2422423 0.6371376 0.6696984
0.110628985 -0.5955153 0.8536484 0.6371376 0.32611147
0.110628985 -0.5955153 0.8536484 0.39845365 0.7854285
0.12848222 -0.5853527 1.2422423 0.39845365 0.21047142
-0.10904377 -0.6209221 1.2423251 0.6003926 0.21047142
-0.0892612 -0.62544876 0.853718 0.6003926 0.7854285
-0.0892612 -0.62544876 0.853718 0.71848893 0.32611147
-0.10904377 -0.6209221 1.2423251 0.71848893 0.66964734
0.09131749 -0.465173 0.8513042 0.71848893 0.32611147
0.10995461 -0.455668 1.2399114 0.71848893 0.6696984
0.10995461 -0.455668 1.2399114 0.39403328 0.77826005
0.09131749 -0.465173 0.8513042 0.39403328 0.21632877
-0.108973324 -0.49517012 0.851367 0.6042285 0.21632877
-0.12931898 -0.49149907 1.2399948 0.6042285 0.77826005
-0.12931898 -0.49149907 1.2399948 0.6370161 0.66964734
-0.108973324 -0.49517012 0.851367 0.6370161 0.32611147
-0.10849793 -0.49548545 0.8497734 1.9700499 0.023243513
-0.10890855 -0.49519113 0.8505101 1.9708602 0.02228449
-0.10890855 -0.49519113 0.8505101 0.6370161 0.325335
-0.10890855 -0.49519113 0.8505101 0.6042285 0.21505865
-0.119718656 -0.5554614 1.3033028 -0.07491648 0.9696858
0.11955495 -0.5196303 1.3032194 1.081568 0.9680989
-0.008977479 -0.47919425 0.85049975 0.49942023 0.21505865
-0.008979211 -0.47918078 0.8513212 0.49942023 0.21632877
-0.008935232 -0.47855845 1.245606 0.49943942 0.20147216
-0.11456836 -0.49441445 1.2456629 0.4112499 0.20135397
-0.108423606 -0.5478604 1.2976651 0.40974733 0.0695293
-0.0009712101 -0.5316199 1.297643 0.49943113 0.0698284
0.11460746 -0.5822916 1.2477508 0.89076614 0.55813026
0.116314836 -0.58105874 1.2987081 0.8374839 0.5577612
0.108275734 -0.5273654 1.29779 0.83773446 0.506503
-0.12169932 -0.48965013 1.2331884 0.5932091 0.77826005
-0.009788187 -0.4728915 1.2331495 0.49942023 0.77826005
0.11955495 -0.5196303 1.3032194 0.8221617 0.5008309
0.11430725 -0.52040714 1.3032211 0.82770085 0.50082654
0.12411175 -0.58587664 1.3043988 0.8273661 0.56332445
0.12935805 -0.585091 1.3043971 0.82182646 0.56329465
-0.11447359 -0.55466694 1.3033007 0.8277004 0.5005953
-0.119718656 -0.5554614 1.3033028 0.8221612 0.50059086
-0.10991555 -0.6209221 1.3044803 0.82182634 0.4381273
-0.10466925 -0.62013644 1.3044784 0.8273659 0.43809763
0.102118224 -0.4561013 1.2331102 0.903394 0.4333081
0.1045029 -0.4549376 1.3020434 0.8313978 0.43403798
0.10975184 -0.45416957 1.3020418 0.8311404 0.42850724
0.10995461 -0.455668 1.2399114 0.89593077 0.42538315
0.107350595 -0.45523605 1.2398978 0.8960577 0.4281112
-0.12169932 -0.48965013 1.2331884 0.903394 0.5680997
-0.12695573 -0.4903233 1.2399794 0.8960588 0.57329816
-0.12931898 -0.49149907 1.2399948 0.8959322 0.57602614
-0.12952177 -0.49000067 1.3021251 0.83114123 0.57291526
-0.1242781 -0.48919743 1.3021231 0.8313974 0.5673844
0.106524974 -0.51567197 1.2975903 0.5891166 0.06947399
0.09670889 -0.46277583 1.2455895 0.58762956 0.20130062
-0.10728934 -0.62164664 1.2423418 0.89607143 0.42807654
-0.10203169 -0.62098145 1.2355511 0.903394 0.4333081
-0.10466925 -0.62013644 1.3044784 0.8313253 0.433749
-0.10991555 -0.6209221 1.3044803 0.83109 0.42821172
-0.10977297 -0.6220186 1.2423427 0.89596 0.425455
0.102118224 -0.4561013 1.2331102 0.40563136 0.77826005
0.10975184 -0.45416957 1.3020418 0.82192075 0.43842688
0.1045029 -0.4549376 1.3020434 0.8274553 0.4383886
-0.1242781 -0.48919743 1.3021231 0.8274547 0.56303316
-0.12952177 -0.49000067 1.3021251 0.82192016 0.56299466
-0.10723602 -0.5557843 1.2996962 0.83609164 0.4986606
-0.10822784 -0.55510837 1.3010955 0.8344152 0.49940172
-0.1079982 -0.5580196 1.3005289 0.83470976 0.4966186
-0.107867256 -0.5515702 1.2996244 0.8360877 0.502559
-0.10862381 -0.5524639 1.3010495 0.8344252 0.50180554
-0.10925439 -0.5496313 1.3003832 0.83470905 0.50458974
-0.11144339 -0.5520994 1.3024347 0.83131206 0.50256497
-0.1095907 -0.55394715 1.3019953 0.8329375 0.5006024
-0.11082246 -0.55624604 1.3025076 0.8313085 0.4986364
0.11065729 -0.51883996 1.3023573 0.8313124 0.4988568
0.109426826 -0.5211494 1.3019192 0.83293796 0.50081944
0.11127832 -0.5229866 1.3024304 0.83130884 0.50278544
0.10783991 -0.51712155 1.3003076 0.8347094 0.49683207
0.10806721 -0.5200146 1.3009741 0.83442557 0.49961627
0.107081056 -0.51938176 1.2995496 0.8360882 0.49886286
0.10771202 -0.5235959 1.2996215 0.836092 0.50276124
0.10846329 -0.522659 1.30102 0.83441556 0.50202024
0.10909612 -0.52550983 1.3004533 0.8347101 0.5048032
0.11460746 -0.5822916 1.2477508 0.58759654 0.80191207
0.009419932 -0.60113454 1.2441177 0.49942136 0.79710895
0.11582408 -0.58519 1.2440977 0.5882364 0.7971292
0.009752709 -0.60336715 1.2396371 0.49942082 0.79196304
0.118453726 -0.5870864 1.2396039 0.5901526 0.7919684
0.009880682 -0.6042313 1.2355123 0.49942023 0.787576
0.12179179 -0.5874727 1.2354734 0.5928319 0.787576
-0.10203169 -0.62098145 1.2355511 0.4060085 0.78761226
-0.098949775 -0.6196381 1.2396795 0.40868858 0.7920025
-0.09698747 -0.61705726 1.2441717 0.41060594 0.7971615
-0.10140136 -0.61884516 1.3037145 0.83100784 0.43883386
-0.09919066 -0.6163233 1.3016298 0.83442044 0.44088337
-0.11837983 -0.4898927 1.2373439 0.5932091 0.78365
-0.009679178 -0.4736098 1.2373033 0.49942023 0.78365
-0.115769714 -0.49163654 1.24191 0.5932091 0.78926975
-0.009366974 -0.47568405 1.2418627 0.49942023 0.78926975
-0.009366974 -0.47568405 1.2418627 0.4994399 0.20994186
-0.115769714 -0.49163654 1.24191 0.41060874 0.20985645
0.11775457 -0.5838359 1.3015543 0.83442044 0.56053877
0.120608434 -0.58559936 1.3036373 0.83100796 0.5625882
0.09704064 -0.459764 1.2418358 0.5882718 0.20980734
0.09704064 -0.459764 1.2418358 0.40563136 0.78926975
0.09902058 -0.45732096 1.237268 0.40563136 0.78365
-0.12077397 -0.48948395 1.3013887 0.8323387 0.56377286
-0.11837983 -0.4898927 1.2373439 0.89922833 0.56443995
-0.11791449 -0.49129522 1.2993858 0.83458674 0.5604792
-0.115769714 -0.49163654 1.24191 0.89461505 0.5610928
0.09902058 -0.45732096 1.237268 0.8992286 0.43697155
0.10123593 -0.4562381 1.3013115 0.8323395 0.43764916
0.09704064 -0.459764 1.2418358 0.8946159 0.44032535
0.09903108 -0.45880774 1.2993102 0.83458745 0.44094262
0.11582408 -0.58519 1.2440977 0.8945886 0.56112313
0.11775457 -0.5838359 1.3015543 0.8345113 0.5607395
0.118453726 -0.5870864 1.2396039 0.8992126 0.5644666
0.120608434 -0.58559936 1.3036373 0.8322588 0.5640521
-0.09919066 -0.6163233 1.3016298 0.8345113 0.44068262
-0.09698747 -0.61705726 1.2441717 0.89458823 0.4403005
-0.10140136 -0.61884516 1.3037145 0.83225894 0.43736997
-0.098949775 -0.6196381 1.2396795 0.89921224 0.43695894
-0.12077397 -0.48948395 1.3013887 0.8310919 0.5623085
-0.11791449 -0.49129522 1.2993858 0.8344959 0.56027883
0.09903108 -0.45880774 1.2993102 0.8344966 0.44114283
0.10123593 -0.4562381 1.3013115 0.8310926 0.4391132
0.00021491398 -0.53953564 1.2998047 0.49943018 0.8800581
-0.10723602 -0.5557843 1.2996962 0.40974775 0.8799537
-0.10723602 -0.5557843 1.2996962 0.40974793 0.05513478
0.00021491398 -0.53953564 1.2998047 0.4994303 0.05532033
-0.00042315014 -0.5352749 1.2997266 0.49943072 0.06254072
-0.107867256 -0.5515702 1.2996244 0.409749 0.06227804
0.108275734 -0.5273654 1.29779 0.589116 0.87584555
0.10771202 -0.5235959 1.2996215 0.58911407 0.8799222
0.10771202 -0.5235959 1.2996215 0.5891142 0.05507887
0.107081056 -0.51938176 1.2995496 0.5891141 0.06222231
-0.10728934 -0.62164664 1.2423418 1.43165 0.287067
-0.10977297 -0.6220186 1.2423427 1.4342713 0.287067
-0.11018399 -0.61927396 1.2422934 1.4342713 0.28968474
-0.10966044 -0.620216 1.2423111 1.4338765 0.28873286
-0.10904377 -0.6209221 1.2423251 1.4333491 0.28798795
-0.10825437 -0.62136847 1.2423347 1.4326032 0.28746128
7 0 1 2 3 4 5 6
4 7 8 9 10
5 11 12 13 14 15
4 16 17 18 19
4 20 21 22 19
5 23 24 25 26 27
4 28 29 30 31
4 32 33 34 31
4 35 36 37 38
5 13 39 40 41 14
5 42 43 24 23 44
4 45 34 46 47
4 48 49 50 51
4 52 53 54 55
4 33 52 55 56
4 18 17 57 58
4 36 49 48 37
4 35 38 59 60
4 34 33 56 46
4 53 18 58 54
5 61 62 63 64 65
4 20 53 52 66
4 67 68 69 70
5 40 71 72 47 41
4 14 41 73 74
4 75 76 49 36
4 37 48 77 78
4 79 80 56 55
4 60 59 81 82
4 83 84 58 57
4 47 46 85 86
4 87 88 51 50
4 48 51 88 77
4 80 85 46 56
4 59 38 89 81
4 84 90 54 58
4 41 47 91 73
4 76 87 50 49
4 35 60 82 92
4 93 94 95 15
4 15 14 74 93
4 92 75 36 35
4 38 37 78 89
4 90 79 55 54
5 65 64 11 15 95
4 96 97 98 99
4 100 101 102 44
4 30 29 103 104
4 105 106 107 108
4 109 22 110 111
4 112 113 27 26
4 108 102 101 105
4 104 98 97 30
4 22 21 114 110
4 113 115 23 27
4 21 96 99 114
4 115 100 44 23
4 66 52 33 32
5 116 117 102 108 107
4 118 119 120 121
5 63 122 12 11 64
5 39 123 124 71 40
5 117 125 42 44 102
4 126 127 121 120
4 128 129 130 131
4 68 67 132 133
4 131 130 119 118
4 134 135 136 137
7 138 139 140 141 142 143 144
4 70 69 145 146
5 147 148 149 150 151
4 152 153 154 155
4 156 153 157 158
5 159 160 161 162 163
4 164 165 166 167
4 168 165 169 170
4 171 172 173 174
5 150 149 175 176 177
5 178 179 159 163 180
4 181 182 183 169
4 184 185 186 187
4 188 189 190 191
4 170 192 189 188
4 154 193 194 155
4 174 173 184 187
4 171 195 196 172
4 169 183 192 170
4 191 190 193 154
5 197 198 199 200 201
4 156 202 188 191
5 203 204 205 206 207
5 176 175 208 209 210
4 149 211 212 175
4 213 174 187 214
4 173 215 216 184
4 217 189 192 218
4 195 219 220 196
4 221 194 193 222
4 182 223 224 183
4 225 186 185 226
4 184 216 226 185
4 218 192 183 224
4 196 220 227 172
4 222 193 190 228
4 175 212 229 208
4 214 187 186 225
4 171 230 219 195
4 231 148 232 233
4 148 231 211 149
4 230 171 174 213
4 172 227 215 173
4 228 190 189 217
5 199 232 148 147 200
4 234 235 236 237
4 238 179 239 240
4 166 241 242 167
4 243 244 245 246
4 247 248 249 157
4 250 161 160 251
4 244 243 240 239
4 241 166 237 236
4 157 249 252 158
4 251 160 159 253
4 158 252 235 234
4 253 159 179 238
4 202 168 170 188
5 254 245 244 239 255
4 256 257 258 259
5 201 200 147 151 260
5 177 176 210 261 262
3 263 264 265
4 266 146 145 267
5 255 239 179 178 268
4 269 258 257 270
4 271 272 273 274
4 275 276 277 278
4 272 256 259 273
4 279 280 281 282
4 67 283 284 132
4 285 118 121 286
4 278 277 287 288
4 289 290 257 256
4 291 292 134 293
4 127 294 286 121
4 295 254 255 268
4 163 162 296 180
8 297 298 299 300 125 117 116 301
4 302 303 280 279
4 304 302 279 305
4 306 131 118 285
4 307 128 131 306
4 293 134 137 308
4 309 70 146 310
4 311 289 256 272
4 312 313 314 315
3 316 317 318
4 319 270 257 290
4 320 310 146 266
4 321 311 272 271
4 96 66 32 97
4 21 20 66 96
4 97 32 31 30
4 45 28 31 34
4 53 20 19 18
4 109 16 19 22
4 234 237 168 202
4 158 234 202 156
4 237 166 165 168
4 181 169 165 164
4 191 154 153 156
4 247 157 153 152
5 71 124 1 0 72
5 210 209 139 138 261
7 322 323 62 61 324 325 326
3 327 328 329
3 330 331 332
7 333 334 335 336 198 197 337
4 338 339 340 341
4 341 340 342 343
4 339 344 345 340
4 340 345 346 342
4 347 348 349 350
4 350 349 351 352
4 353 347 350 354
4 354 350 352 355
4 356 312 315 357
4 357 315 358 359
4 360 361 317 316
20 339 338 362 363 364 348 347 353 359 358 365 318 366 367 368 369 370 371 372 344
3 315 314 358
4 355 356 357 354
4 354 357 359 353
4 373 374 375 376
4 376 375 367 366
4 377 351 349 378
4 378 349 348 364
4 379 380 381 382
4 382 381 372 371
4 383 379 382 384
4 384 382 371 370
4 385 383 384 386
4 386 384 370 369
4 380 346 345 381
4 381 345 344 372
4 387 385 386 388
4 388 386 369 368
4 389 390 391 392
4 392 391 363 362
3 393 394 395
3 396 397 398
3 399 400 401
3 402 403 404
3 405 406 407
3 408 409 410
3 411 412 413
3 414 415 416
4 127 126 417 418
4 419 420 133 132
4 277 276 421 422
4 423 424 269 270
4 129 128 425 426
4 427 428 137 136
4 281 280 429 430
4 431 432 271 274
4 360 316 433 434
4 434 433 314 313
4 316 318 365 433
4 433 365 358 314
4 321 271 432 435
4 436 429 280 303
5 24 43 393 395 25
10 138 437 197 201 260 151 150 177 262 261
10 62 438 1 124 123 39 13 12 122 63
4 317 376 366 318
4 361 373 376 317
4 439 304 305 440
4 441 442 443 444
3 445 446 447
4 375 388 368 367
4 374 387 388 375
4 439 440 292 291
4 440 305 448 449
4 341 392 362 338
4 343 389 392 341
4 283 67 70 309
4 278 266 267 275
4 450 451 452 453
4 391 378 364 363
4 390 377 378 391
4 288 320 266 278
4 454 455 456 457
5 458 459 460 461 462
5 463 464 465 466 467
4 444 468 469 441
4 305 279 282 448
5 470 471 472 473 474
4 292 475 135 134
4 476 477 451 450
4 440 449 475 292
4 478 479 455 454
4 263 480 481 482
4 480 483 484 481
4 331 485 484 483
4 485 486 487 484
4 454 488 487 486
4 488 482 481 487
3 481 484 487
4 451 489 490 491
4 489 492 493 490
4 328 494 493 492
4 494 495 496 493
4 447 497 496 495
4 497 491 490 496
3 490 493 496
4 498 7 499 500
4 500 499 501 502
4 502 501 503 504
4 505 503 501 506
4 506 501 499 507
4 507 499 7 10
4 454 457 508 488
4 488 508 509 482
4 482 509 264 263
4 449 448 510 511
4 511 510 512 513
4 514 515 442 441
4 447 446 516 497
4 497 516 517 491
4 491 517 452 451
4 441 469 518 514
4 513 519 520 511
4 511 520 475 449
4 463 467 521 522
4 522 521 523 524
4 524 523 330 332
4 459 458 525 526
4 526 525 527 528
4 528 527 327 329
4 446 445 529 530
4 530 529 531 532
4 532 531 207 206
4 265 264 533 534
4 534 533 535 536
4 536 535 472 471
4 478 454 486 537
4 537 486 485 538
4 538 485 331 330
4 329 328 492 539
4 539 492 489 540
4 540 489 451 477
4 9 8 541 542
4 543 544 545 546
4 546 545 444 443
4 8 547 548 541
4 544 549 550 545
4 545 550 468 444
4 498 547 8 7
6 551 552 553 554 555 556
