ply
format ascii 1.0
comment Created in Blender version 4.1.1
element vertex 714
property float x
property float y
property float z
property float s
property float t
element face 450
property list uchar uint vertex_indices
end_header
0.039762318 -1.1793549 1.6254406 0.0025407076 0.6132952
0.1464736 -1.1342734 1.7625375 0.9974593 0.6132952
0.15673378 -1.1353593 1.7549083 0.9974593 0.6308929
0.0500225 -1.1804407 1.6178116 0.0025407076 0.6308929
0.16700886 -1.1388379 1.7480545 0.9974593 0.6484904
0.06029757 -1.1839194 1.6109577 0.0025407076 0.6484904
0.17690395 -1.1445761 1.7422394 0.9974593 0.66608804
0.070192665 -1.1896574 1.6051426 0.0025407076 0.66608804
0.18603879 -1.1523528 1.7376864 0.9974593 0.6836856
0.07932751 -1.1974343 1.6005895 0.0025407076 0.6836856
0.19406237 -1.1618695 1.7345705 0.9974593 0.70128316
0.08735107 -1.206951 1.5974736 0.0025407076 0.70128316
0.20066631 -1.1727604 1.7330114 0.9974593 0.7188808
0.093955 -1.2178419 1.5959146 0.0025407076 0.7188808
0.2055968 -1.1846069 1.7330692 0.9974593 0.7364784
0.09888552 -1.2296884 1.5959723 0.0025407076 0.7364784
0.20866445 -1.1969539 1.7347414 0.9974593 0.754076
0.10195314 -1.2420354 1.5976447 0.0025407076 0.754076
0.20975128 -1.2093267 1.737964 0.9974593 0.77167356
0.10303999 -1.2544082 1.6008673 0.0025407076 0.77167356
0.20881559 -1.2212499 1.7426131 0.9974593 0.7892712
0.10210429 -1.2663314 1.6055163 0.0025407076 0.7892712
0.20589331 -1.2322655 1.7485099 0.9974593 0.80686873
0.099181995 -1.277347 1.6114131 0.0025407076 0.80686873
0.20109671 -1.2419499 1.755428 0.9974593 0.8244663
0.09438542 -1.2870314 1.6183311 0.0025407076 0.8244663
0.1946102 -1.2499311 1.7631012 0.9974593 0.84206396
0.0878989 -1.2950126 1.6260045 0.0025407076 0.84206396
0.18668297 -1.2559023 1.771235 0.9974593 0.8596615
0.079971686 -1.3009838 1.6341382 0.0025407076 0.8596615
0.17761973 -1.259634 1.7795167 0.9974593 0.87725914
0.07090843 -1.3047155 1.6424198 0.0025407076 0.87725914
0.16776872 -1.2609829 1.7876279 0.9974593 0.8948567
0.061057426 -1.3060644 1.650531 0.0025407076 0.8948567
0.15750854 -1.2598971 1.795257 0.9974593 0.91245425
0.05079725 -1.3049786 1.6581602 0.0025407076 0.91245425
0.14723346 -1.2564183 1.8021108 0.9974593 0.93005186
0.040522173 -1.3014998 1.665014 0.0025407076 0.93005186
0.13733837 -1.2506803 1.807926 0.9974593 0.9476495
0.03062708 -1.2957618 1.6708292 0.0025407076 0.9476495
0.12820353 -1.2429036 1.812479 0.9974593 0.9652471
0.021492228 -1.2879851 1.6753821 0.0025407076 0.9652471
0.120179966 -1.2333869 1.8155949 0.9974593 0.98284465
0.013468675 -1.2784684 1.678498 0.0025407076 0.98284465
0.11357603 -1.2224959 1.8171539 0.9974593 1.0004423
0.0068647265 -1.2675774 1.6800572 0.0025407076 1.0004423
0.10864551 -1.2106494 1.8170962 0.9974593 1.0180398
0.0019342154 -1.2557309 1.6799994 0.0025407076 1.0180398
0.105577886 -1.1983025 1.8154238 0.9974593 1.0356374
-0.0011334047 -1.243384 1.6783271 0.0025407076 1.0356374
0.10449104 -1.1859297 1.8122013 0.9974593 1.053235
-0.0022202581 -1.2310112 1.6751045 0.0025407076 1.053235
0.10542674 -1.1740063 1.8075522 0.9974593 1.0708326
-0.0012845472 -1.2190878 1.6704555 0.0025407076 1.0708326
0.108349025 -1.1629908 1.8016554 0.9974593 1.0884302
0.0016377345 -1.2080723 1.6645586 0.0025407076 1.0884302
0.113145605 -1.1533065 1.7947375 0.9974593 1.1060278
0.0064343065 -1.1983879 1.6576406 0.0025407076 1.1060278
0.119632125 -1.1453253 1.7870641 0.9974593 1.1236253
0.012920842 -1.1904068 1.6499673 0.0025407076 1.1236253
0.12755933 -1.1393541 1.7789303 0.9974593 1.141223
0.020848058 -1.1844356 1.6418335 0.0025407076 1.141223
0.15673378 -1.1353593 1.7549083 0.29682168 0.48538846
0.1464736 -1.1342734 1.7625375 0.25 0.49
0.13662261 -1.1356224 1.7706487 0.20317835 0.48538846
0.12755933 -1.1393541 1.7789303 0.15815598 0.4717311
0.119632125 -1.1453253 1.7870641 0.11666313 0.4495527
0.113145605 -1.1533065 1.7947375 0.080294356 0.4197056
0.108349025 -1.1629908 1.8016554 0.05044727 0.3833368
0.10542674 -1.1740063 1.8075522 0.028268933 0.34184405
0.10449104 -1.1859297 1.8122013 0.014611542 0.2968217
0.105577886 -1.1983025 1.8154238 0.010000005 0.25
0.10864551 -1.2106494 1.8170962 0.014611542 0.20317832
0.11357603 -1.2224959 1.8171539 0.028268918 0.15815595
0.120179966 -1.2333869 1.8155949 0.05044733 0.1166631
0.12820353 -1.2429036 1.812479 0.0802944 0.08029437
0.13733837 -1.2506803 1.807926 0.11666313 0.050447315
0.14723346 -1.2564183 1.8021108 0.15815598 0.028268918
0.15750854 -1.2598971 1.795257 0.20317835 0.014611527
0.16776872 -1.2609829 1.7876279 0.24999999 0.010000005
0.17761973 -1.259634 1.7795167 0.29682168 0.014611527
0.18668297 -1.2559023 1.771235 0.34184402 0.028268918
0.1946102 -1.2499311 1.7631012 0.38333684 0.050447285
0.20109671 -1.2419499 1.755428 0.41970563 0.080294386
0.20589331 -1.2322655 1.7485099 0.4495527 0.11666316
0.20881559 -1.2212499 1.7426131 0.4717311 0.15815598
0.20975128 -1.2093267 1.737964 0.48538846 0.20317832
0.20866445 -1.1969539 1.7347414 0.49 0.24999999
0.2055968 -1.1846069 1.7330692 0.48538846 0.29682168
0.20066631 -1.1727604 1.7330114 0.47173107 0.34184402
0.19406237 -1.1618695 1.7345705 0.4495527 0.38333684
0.18603879 -1.1523528 1.7376864 0.41970563 0.41970563
0.17690395 -1.1445761 1.7422394 0.38333684 0.4495527
0.16700886 -1.1388379 1.7480545 0.34184402 0.47173107
0.13662261 -1.1356224 1.7706487 0.9974593 1.1588206
0.02991131 -1.1807038 1.6335518 0.0025407076 1.1588206
0.1464736 -1.1342734 1.7625375 0.9974593 1.1764181
0.039762318 -1.1793549 1.6254406 0.0025407076 1.1764181
0.039762318 -1.1793549 1.6254406 0.75 0.49
0.0500225 -1.1804407 1.6178116 0.79682165 0.48538846
0.06029757 -1.1839194 1.6109577 0.841844 0.47173107
0.070192665 -1.1896574 1.6051426 0.88333684 0.4495527
0.07932751 -1.1974343 1.6005895 0.9197056 0.41970563
0.08735107 -1.206951 1.5974736 0.9495527 0.38333684
0.093955 -1.2178419 1.5959146 0.97173107 0.34184402
0.09888552 -1.2296884 1.5959723 0.98538846 0.29682168
0.10195314 -1.2420354 1.5976447 0.99 0.24999999
0.10303999 -1.2544082 1.6008673 0.98538846 0.20317832
0.10210429 -1.2663314 1.6055163 0.97173107 0.15815598
0.099181995 -1.277347 1.6114131 0.9495527 0.11666316
0.09438542 -1.2870314 1.6183311 0.9197056 0.080294386
0.0878989 -1.2950126 1.6260045 0.88333684 0.050447285
0.079971686 -1.3009838 1.6341382 0.841844 0.028268918
0.07090843 -1.3047155 1.6424198 0.79682165 0.014611527
0.061057426 -1.3060644 1.650531 0.75 0.010000005
0.05079725 -1.3049786 1.6581602 0.70317835 0.014611527
0.040522173 -1.3014998 1.665014 0.658156 0.028268918
0.03062708 -1.2957618 1.6708292 0.6166631 0.050447315
0.021492228 -1.2879851 1.6753821 0.5802944 0.08029437
0.013468675 -1.2784684 1.678498 0.55044734 0.1166631
0.0068647265 -1.2675774 1.6800572 0.52826893 0.15815595
0.0019342154 -1.2557309 1.6799994 0.51461154 0.20317832
-0.0011334047 -1.243384 1.6783271 0.51 0.25
-0.0022202581 -1.2310112 1.6751045 0.51461154 0.2968217
-0.0012845472 -1.2190878 1.6704555 0.52826893 0.34184405
0.0016377345 -1.2080723 1.6645586 0.5504473 0.3833368
0.0064343065 -1.1983879 1.6576406 0.5802944 0.4197056
0.012920842 -1.1904068 1.6499673 0.6166631 0.4495527
0.020848058 -1.1844356 1.6418335 0.658156 0.4717311
0.02991131 -1.1807038 1.6335518 0.70317835 0.48538846
0.3789118 -1.1172814 1.4837013 0.41788507 0.73450285
0.37458453 -1.1221927 1.4763093 0.41190213 0.74390125
0.37299603 -1.1198541 1.4760569 0.4093825 0.7419165
0.3770794 -1.1152195 1.4830325 0.41503122 0.7330568
0.30881825 -1.066259 1.4415612 0.3106334 0.7133189
0.30909473 -1.0579026 1.446813 0.31061575 0.70198935
0.31119695 -1.0591869 1.4482229 0.31385767 0.7023004
0.31093603 -1.0670725 1.4432671 0.31387496 0.71299684
0.3819896 -1.1109641 1.4906372 0.42191654 0.7241359
0.37998378 -1.1092582 1.4895774 0.41883847 0.7232648
0.3099859 -1.0751703 1.4374728 0.31284714 0.72443146
0.31203791 -1.0754815 1.4394091 0.31596413 0.72348654
0.38369957 -1.1034834 1.4968504 0.42391783 0.7131934
0.38159734 -1.1021991 1.4954405 0.4207231 0.7129057
0.31255284 -1.0842937 1.4347048 0.3171785 0.7348981
0.31446016 -1.0840907 1.436797 0.3200503 0.7333654
0.383976 -1.095127 1.5021021 0.42391154 0.7020639
0.38185826 -1.0943135 1.5003963 0.42071378 0.70235866
0.31642044 -1.0932788 1.4333634 0.32346252 0.74431294
0.31810975 -1.0925695 1.4355314 0.32597783 0.74225134
0.38280836 -1.0862157 1.5061905 0.42188063 0.69109136
0.38075638 -1.0859045 1.5042542 0.418778 0.6919814
0.3214399 -1.1017802 1.4335005 0.3314563 0.75231045
0.32284638 -1.1005918 1.4356606 0.3335176 0.7498001
0.38024142 -1.0770923 1.5089586 0.4177744 0.6805948
0.3783341 -1.0772952 1.5068663 0.41488725 0.68206847
0.32741857 -1.1094712 1.4351106 0.3408485 0.7585807
0.3284881 -1.1078494 1.4371799 0.34237614 0.7557193
0.37637386 -1.0681072 1.5102999 0.4116683 0.6710912
0.37468454 -1.0688165 1.508132 0.40912983 0.673107
0.33412653 -1.1160562 1.4381318 0.3512723 0.7628821
0.33481807 -1.1140634 1.4400309 0.35220763 0.75978106
0.3713543 -1.0596058 1.510163 0.4037995 0.6630153
0.3699479 -1.0607942 1.5080028 0.40172017 0.6654891
0.34130603 -1.1212823 1.442448 0.36232197 0.7650506
0.34159297 -1.118995 1.444104 0.36262915 0.76183033
0.36537573 -1.0519148 1.5085528 0.39450356 0.6566897
0.36430618 -1.0535367 1.5064834 0.39296004 0.65952575
0.3486812 -1.1249486 1.4478936 0.37357023 0.7650033
0.34855253 -1.1224546 1.4492426 0.37323636 0.7617886
0.3368257 -1.0344718 1.4894043 0.3509271 0.65231985
0.34411308 -1.0364374 1.4957697 0.3619417 0.65011173
0.34424174 -1.0389314 1.4944208 0.36225998 0.653323
0.3373651 -1.0370766 1.488414 0.35187298 0.65540904
0.35866776 -1.0453298 1.5055315 0.3841598 0.65233815
0.35797626 -1.0473226 1.5036324 0.3832109 0.65541977
0.3559686 -1.1269143 1.454259 0.38458207 0.7627351
0.35542917 -1.1243094 1.4552493 0.38361895 0.75965333
0.31820977 -1.0391932 1.467354 0.3232824 0.6709793
0.3236203 -1.0358768 1.4749181 0.3312138 0.6629596
0.3249039 -1.0384023 1.4747442 0.33328244 0.665453
0.3197983 -1.0415319 1.4676064 0.32580245 0.673023
0.35148823 -1.0401037 1.5012152 0.3731643 0.6501182
0.3512013 -1.0423911 1.4995594 0.372843 0.6533267
0.36288816 -1.1271036 1.4612998 0.39491212 0.7583285
0.36195883 -1.124488 1.4618933 0.3933568 0.75550365
0.31388244 -1.0441046 1.459962 0.31706116 0.68040663
0.31571484 -1.0461664 1.460631 0.31993523 0.6819223
0.369174 -1.1255093 1.4687452 0.40414307 0.7519609
0.36789042 -1.1229837 1.4689192 0.4020585 0.7495051
0.3108047 -1.050422 1.4530262 0.3127862 0.6908772
0.3128105 -1.0521278 1.454086 0.31590402 0.6918081
0.32202828 -1.1006335 1.4404244 0.45296514 0.65861934
0.3176108 -1.0931517 1.4403038 0.45296514 0.6410544
0.08472757 -1.2270238 1.6655796 0.9998381 0.64105356
0.08914506 -1.2345055 1.6657001 0.9998381 0.65861845
0.3299061 -1.0342826 1.4823636 0.34054965 0.6566583
0.33083543 -1.036898 1.48177 0.34208667 0.65950495
0.29227448 -1.1518627 1.4876964 0.5957811 0.70298386
0.2846385 -1.1463044 1.4831057 0.59542894 0.6864769
0.33094123 -1.1196874 1.4383155 0.7039713 0.68418986
0.33857727 -1.1252458 1.4429061 0.70432305 0.70049506
0.28014967 -1.059331 1.53015 0.59360754 0.48839128
0.2875092 -1.0595324 1.5376384 0.5936562 0.47188568
0.33381197 -1.0329154 1.4928482 0.7021884 0.47223353
0.3264524 -1.032714 1.4853598 0.70214283 0.48853648
0.3178746 -1.0780846 1.5580045 0.59415877 0.40586895
0.32423338 -1.0862646 1.5597169 0.5943615 0.38936645
0.37053618 -1.0596476 1.5149267 0.70287305 0.39072758
0.36417738 -1.0514675 1.5132142 0.7026752 0.40702748
0.3001186 -1.1557622 1.4934882 0.596164 0.71949065
0.34642136 -1.1291451 1.448698 0.70470905 0.7168027
0.27346417 -1.0610266 1.5222311 0.5935898 0.5048973
0.3197669 -1.0344096 1.477441 0.70212764 0.50483984
0.3107401 -1.0710807 1.5547911 0.59398687 0.42237216
0.35704288 -1.0444638 1.510001 0.70250785 0.42332804
0.30786937 -1.1578528 1.5002583 0.59657705 0.73599756
0.35417214 -1.1312357 1.4554682 0.70513916 0.73311853
0.2677096 -1.064554 1.514186 0.59360284 0.52140373
0.3140124 -1.037937 1.4693959 0.70214295 0.52114356
0.30310407 -1.0655223 1.5502003 0.59384584 0.4388761
0.34940684 -1.0389054 1.5054102 0.7023709 0.43962932
0.3152289 -1.1580541 1.5077468 0.59701896 0.75250554
0.36153167 -1.1314371 1.4629565 0.70564973 0.74946207
0.26310718 -1.0697776 1.506324 0.59364665 0.53791046
0.30940995 -1.0431606 1.4615338 0.70218873 0.53744763
0.29525995 -1.0616229 1.5444086 0.5937356 0.45538056
0.34156275 -1.0350059 1.4996184 0.7022645 0.45593113
0.3219144 -1.1563585 1.5156657 0.5974736 0.76891273
0.36821717 -1.1297414 1.4708755 0.7063761 0.76589453
0.2598337 -1.0764966 1.4989471 0.5937214 0.55441755
0.3061365 -1.0498797 1.4541569 0.7022649 0.55375195
0.32766896 -1.1528311 1.5237107 0.5970902 0.25737673
0.3219144 -1.1563585 1.5156657 0.5975654 0.24087635
0.36821717 -1.1297414 1.4708755 0.70641583 0.24408886
0.37397173 -1.1262141 1.4789205 0.7056698 0.26040295
0.258015 -1.084453 1.4923389 0.59382695 0.5709248
0.30431774 -1.057836 1.4475486 0.70237154 0.5700565
0.3322714 -1.1476076 1.5315728 0.5966424 0.2738735
0.37857416 -1.1209905 1.4867826 0.7051437 0.27666768
0.25772095 -1.0933409 1.4867532 0.59396327 0.58743227
0.30402368 -1.0667238 1.441963 0.7025086 0.58636117
0.33554488 -1.1408885 1.5389496 0.5962244 0.2903699
0.38184765 -1.1142714 1.4941595 0.70470864 0.2929514
0.25896284 -1.1028186 1.4824048 0.5941305 0.6039398
0.30526564 -1.0762017 1.4376146 0.7026762 0.60266596
0.33736357 -1.1329321 1.545558 0.595837 0.30686694
0.38366637 -1.1063151 1.5007677 0.7043213 0.3092426
0.261693 -1.1125221 1.4794607 0.5943285 0.6204473
0.30799577 -1.0859052 1.4346704 0.7028742 0.61897075
0.33765763 -1.1240443 1.5511435 0.5954803 0.32336497
0.3839604 -1.0974272 1.5063534 0.70396936 0.32553697
0.26580647 -1.1220785 1.4780341 0.5945574 0.6369549
0.31210923 -1.0954616 1.433244 0.70310265 0.63527566
0.3364157 -1.1145664 1.555492 0.5951544 0.33986402
0.3827185 -1.0879495 1.5107018 0.7036492 0.34183306
0.2711452 -1.1311204 1.4781799 0.5948171 0.65346235
0.31744796 -1.1045035 1.4333897 0.7033616 0.65158033
0.33368555 -1.1048629 1.558436 0.59485924 0.3563639
0.37998837 -1.0782459 1.5136459 0.70335996 0.35813028
0.27750397 -1.1393006 1.4798924 0.5951076 0.6699697
0.32380676 -1.1126835 1.4351021 0.7036511 0.66788507
0.3295721 -1.0953065 1.5598626 0.59459496 0.37286472
0.3758749 -1.0686896 1.5150725 0.7031013 0.37442845
0.34198198 -1.0431279 1.4952251 0.4529649 0.4478399
0.34847257 -1.0463545 1.5000175 0.4529649 0.4302749
0.115589336 -1.1802266 1.7252932 0.999838 0.43027532
0.109098755 -1.177 1.7205008 0.999838 0.44784015
0.31266862 -1.0554352 1.4576082 0.45296496 0.5532297
0.31537724 -1.0498755 1.4637122 0.45296493 0.5356647
0.082494035 -1.1837475 1.6889879 0.999838 0.5356644
0.07978541 -1.1893072 1.6828839 0.999838 0.55322933
0.3307586 -1.0950445 1.564813 0.6234145 0.76966727
0.33522162 -1.105413 1.5632652 0.6117957 0.76732355
0.33368555 -1.1048629 1.558436 0.6133568 0.7622693
0.3295721 -1.0953065 1.5598626 0.62395835 0.7644024
0.31194806 -1.0772152 1.4439204 0.45296502 0.6059245
0.31092042 -1.0693728 1.4475183 0.45296496 0.58835953
0.07803723 -1.2032449 1.6727941 0.9998381 0.588359
0.079064846 -1.2110872 1.669196 0.9998381 0.6059239
0.3703734 -1.0709994 1.5080125 0.4529648 0.36001503
0.37377706 -1.0789067 1.5068321 0.4529648 0.34245008
0.14089385 -1.2127788 1.7321078 0.9998381 0.34245095
0.13749018 -1.2048714 1.7332882 0.9998381 0.3600158
0.354791 -1.0509537 1.5038161 0.45296484 0.4127099
0.12190774 -1.1848259 1.7290918 0.9998381 0.41271043
0.36069432 -1.0567491 1.506475 0.45296484 0.39514494
0.12781115 -1.1906211 1.7317507 0.9998381 0.39514557
0.31918553 -1.0455532 1.4702176 0.4529649 0.51809967
0.32394707 -1.0426345 1.4768745 0.45296493 0.5005347
0.09106389 -1.1765066 1.7021501 0.999838 0.5005347
0.08630232 -1.1794254 1.6954933 0.999838 0.5180996
0.31116375 -1.0620186 1.4521402 0.45296496 0.5707946
0.07828052 -1.1958907 1.677416 0.999838 0.57079417
0.3760361 -1.0869359 1.5043961 0.4529648 0.32488513
0.37706375 -1.0947783 1.500798 0.4529649 0.30732012
0.14418054 -1.2286503 1.7260736 0.9998381 0.30732128
0.14315291 -1.2208079 1.7296717 0.9998381 0.3248861
0.36595595 -1.0635176 1.5078919 0.45296484 0.37758
0.1330727 -1.1973897 1.7331676 0.9998381 0.3775807
0.32947904 -1.0412315 1.4834269 0.4529649 0.4829698
0.33556864 -1.0413982 1.4896232 0.4529649 0.46540484
0.10268541 -1.1752702 1.7148988 0.999838 0.46540502
0.096595794 -1.1751037 1.7087026 0.999838 0.48296985
0.37682042 -1.1021324 1.4961761 0.4529649 0.28975514
0.37531555 -1.1087159 1.4907081 0.4529649 0.27219018
0.14243235 -1.2425879 1.7159839 0.9998382 0.2721915
0.14393723 -1.2360046 1.7214518 0.9998382 0.28975636
0.37260693 -1.1142756 1.4846041 0.45296484 0.2546252
0.36879867 -1.1185977 1.4780988 0.4529649 0.23706022
0.13591546 -1.2524699 1.7033744 0.9998383 0.23706174
0.13972372 -1.2481476 1.7098799 0.9998383 0.25462663
0.36403704 -1.1215165 1.4714419 0.45296547 0.781574
0.35850516 -1.1229196 1.4648894 0.4529654 0.764009
0.12562197 -1.2567916 1.6901652 0.9998383 0.76400733
0.13115385 -1.2553886 1.6967176 0.9998383 0.78157234
0.35241553 -1.1227529 1.4586931 0.45296538 0.74644405
0.34600222 -1.121023 1.4530911 0.45296538 0.72887915
0.11311899 -1.2548952 1.6783669 0.9998382 0.7288778
0.11953235 -1.256625 1.6839689 0.9998382 0.74644256
0.36403704 -1.1215165 1.4714419 0.45296493 0.2194953
0.13115385 -1.2553886 1.6967176 0.9998383 0.21949688
0.33951157 -1.1177965 1.4482989 0.45296532 0.7113142
0.33319324 -1.1131973 1.4445002 0.4529652 0.69374925
0.10031002 -1.2470694 1.669776 0.9998381 0.6937481
0.10662842 -1.2516687 1.6735746 0.9998381 0.711313
0.3142071 -1.0852443 1.4414842 0.45296514 0.62348944
0.0813239 -1.2191164 1.66676 0.9998381 0.62348866
0.32728982 -1.107402 1.4418414 0.4529652 0.6761843
0.09440662 -1.2412741 1.667117 0.9998381 0.67618334
0.33509716 -1.032623 1.4915333 0.70509857 0.47224313
0.32779735 -1.0324233 1.4841056 0.70505303 0.48854065
0.32779735 -1.0324233 1.4841056 0.3386657 0.653177
0.33509716 -1.032623 1.4915333 0.3497659 0.6485408
0.33620024 -1.0331928 1.4902728 0.35036716 0.6504936
0.32906145 -1.0329974 1.483009 0.33964038 0.6549757
0.32116607 -1.0341052 1.476251 0.705038 0.5048385
0.32116607 -1.0341052 1.476251 0.3286802 0.6599117
0.3225765 -1.0346421 1.4753276 0.32999048 0.6614862
0.31545818 -1.0376039 1.4682713 0.7050533 0.5211368
0.31545818 -1.0376039 1.4682713 0.32019764 0.6684828
0.31699455 -1.0380638 1.4675238 0.3217925 0.6697721
0.31089312 -1.042785 1.4604731 0.7050991 0.5374354
0.31089312 -1.042785 1.4604731 0.31354496 0.67855686
0.31253016 -1.0431306 1.4598976 0.31536248 0.6795117
0.30764621 -1.0494497 1.453156 0.70517534 0.55373436
0.30764621 -1.0494497 1.453156 0.30897394 0.6897435
0.30935487 -1.049648 1.4527421 0.31094414 0.6903281
0.30584225 -1.0573415 1.4466014 0.70528203 0.57003343
0.30584225 -1.0573415 1.4466014 0.30665287 0.701614
0.30759075 -1.0573658 1.4463321 0.3087006 0.7018067
0.30555058 -1.0661571 1.441061 0.7054192 0.58633274
0.30555058 -1.0661571 1.441061 0.306671 0.713718
0.30730554 -1.065987 1.4409139 0.30871838 0.71351045
0.30678242 -1.0755581 1.4367479 0.70558673 0.6026321
0.30678242 -1.0755581 1.4367479 0.30903748 0.7255927
0.30851018 -1.0751805 1.4366959 0.31100574 0.7249913
0.30949044 -1.0851829 1.4338276 0.70578474 0.6189314
0.30949044 -1.0851829 1.4338276 0.31366947 0.7367782
0.31115842 -1.084593 1.4338402 0.3154822 0.73580533
0.3135705 -1.0946617 1.4324126 0.7060132 0.6352308
0.3135705 -1.0946617 1.4324126 0.32039034 0.74683976
0.31514847 -1.0938627 1.4324565 0.32197708 0.74553275
0.3188659 -1.1036303 1.4325572 0.7062721 0.65153015
0.3188659 -1.1036303 1.4325572 0.32894036 0.755386
0.32032707 -1.1026335 1.4325978 0.33023947 0.75379556
0.3251731 -1.1117439 1.4342557 0.7065616 0.66782933
0.3251731 -1.1117439 1.4342557 0.3389861 0.7620849
0.32649508 -1.110568 1.4342588 0.33994728 0.7602731
0.33224964 -1.1186908 1.437443 0.7068819 0.6841285
0.33224964 -1.1186908 1.437443 0.35013488 0.76667833
0.33341557 -1.1173618 1.4373758 0.35072124 0.76471585
0.3398237 -1.1242042 1.4419966 0.7072337 0.7004279
0.3398237 -1.1242042 1.4419966 0.36195287 0.76899195
0.34082255 -1.1227535 1.4418288 0.3621422 0.7669547
0.34760422 -1.1280719 1.4477413 0.7076203 0.7167284
0.34760422 -1.1280719 1.4477413 0.37398535 0.76893747
0.34843138 -1.1265359 1.4474468 0.37376943 0.76690406
0.3552921 -1.1301455 1.4544566 0.70805246 0.73303264
0.3552921 -1.1301455 1.4544566 0.38576794 0.7665066
0.35594958 -1.1285638 1.454014 0.38515353 0.76455736
0.36259186 -1.1303452 1.4618843 0.7085692 0.74934894
0.36259186 -1.1303452 1.4618843 0.3968232 0.7617842
0.36308837 -1.128759 1.4612777 0.39583385 0.7599984
0.36922318 -1.1286634 1.4697388 0.7093121 0.7656966
0.36922318 -1.1286634 1.4697388 0.40670002 0.7549598
0.36957338 -1.1271143 1.4689591 0.40537676 0.7534105
0.36922318 -1.1286634 1.4697388 0.7093121 0.24428922
0.37493098 -1.1251646 1.4777186 0.70856255 0.2605144
0.37493098 -1.1251646 1.4777186 0.41499302 0.74632406
0.3751553 -1.1236928 1.4767629 0.41339394 0.74507314
0.3794961 -1.1199834 1.4855168 0.70804715 0.2767512
0.3794961 -1.1199834 1.4855168 0.42137927 0.73626494
0.3796197 -1.1186259 1.4843891 0.4195728 0.73535585
0.382743 -1.1133189 1.4928339 0.7076156 0.29302323
0.382743 -1.1133189 1.4928339 0.4256754 0.7251946
0.38279498 -1.1121083 1.4915446 0.42373353 0.7246492
0.38454697 -1.1054271 1.4993885 0.7072296 0.30930716
0.38454697 -1.1054271 1.4993885 0.42780524 0.7135422
0.38455912 -1.1043906 1.4979547 0.42579865 0.7133635
0.38483867 -1.0966114 1.5049288 0.7068782 0.32559568
0.38483867 -1.0966114 1.5049288 0.42780524 0.7017053
0.38484433 -1.0957694 1.5033728 0.42579556 0.70189106
0.3836068 -1.0872105 1.5092419 0.70655835 0.34188616
0.3836068 -1.0872105 1.5092419 0.4256671 0.6900095
0.3836397 -1.086576 1.5075908 0.42371127 0.6905676
0.3808988 -1.0775857 1.5121622 0.70626926 0.35817796
0.3808988 -1.0775857 1.5121622 0.4213057 0.67879134
0.38099143 -1.0771635 1.5104465 0.41948077 0.6797241
0.3768187 -1.0681069 1.5135772 0.70601076 0.3744707
0.3768187 -1.0681069 1.5135772 0.4147737 0.66861767
0.37700135 -1.0678937 1.5118303 0.41316923 0.66989774
0.37152332 -1.0591383 1.5134326 0.70578265 0.3907643
0.37152332 -1.0591383 1.5134326 0.4063417 0.65997636
0.37182277 -1.059123 1.511689 0.40502888 0.6615485
0.36521614 -1.0510247 1.511734 0.705585 0.40705878
0.36521614 -1.0510247 1.511734 0.39638594 0.65321445
0.36565477 -1.0511883 1.5100279 0.3954144 0.65501153
0.35813954 -1.0440776 1.5085468 0.70541775 0.4233539
0.35813954 -1.0440776 1.5085468 0.38531595 0.6485644
0.35873428 -1.0443946 1.5069109 0.38471967 0.6505153
0.35056546 -1.0385643 1.5039933 0.7052809 0.43964976
0.35056546 -1.0385643 1.5039933 0.37355274 0.64619064
0.3513273 -1.039003 1.5024579 0.3733532 0.6482207
0.34278497 -1.0346966 1.4982486 0.70517457 0.4559462
0.34278497 -1.0346966 1.4982486 0.36154786 0.6461821
0.34371847 -1.0352205 1.4968399 0.3617525 0.648213
0.33734608 -1.0387262 1.4881691 0.35242456 0.65721494
0.33103567 -1.0385535 1.4817481 0.342984 0.6611696
0.3366885 -1.040308 1.4886116 0.3530035 0.6591109
0.33053917 -1.0401397 1.4823545 0.34392613 0.6629173
0.33556864 -1.0413982 1.4896232 0.3536198 0.66108835
0.32947904 -1.0412315 1.4834269 0.34492114 0.6647378
0.32530323 -1.0400074 1.4749582 0.33449087 0.66691154
0.32495305 -1.0415565 1.4757378 0.3357598 0.6684429
0.32394707 -1.0426345 1.4768745 0.33709523 0.6700357
0.320369 -1.0430319 1.46806 0.3272752 0.6742189
0.32014477 -1.0445038 1.4690157 0.32882193 0.67547476
0.31918553 -1.0455532 1.4702176 0.3304463 0.67677796
0.3164227 -1.0475109 1.4613187 0.32161555 0.6828098
0.31629914 -1.0488684 1.4624465 0.32338053 0.683742
0.31537724 -1.0498755 1.4637122 0.32523143 0.68470556
0.3136159 -1.053272 1.4549935 0.3177274 0.692354
0.31356394 -1.0544826 1.4562826 0.31964302 0.69292754
0.31266862 -1.0554352 1.4576082 0.32164976 0.6935156
0.31205645 -1.0600941 1.4493272 0.31575397 0.7024841
0.3120443 -1.0611306 1.4507611 0.31774646 0.7026774
0.31116375 -1.0620186 1.4521402 0.31983122 0.70286804
0.3118043 -1.0677149 1.4445379 0.31577125 0.7128104
0.31179863 -1.068557 1.4460939 0.3177634 0.7126153
0.31092042 -1.0693728 1.4475183 0.31984532 0.71239996
0.31286922 -1.0758417 1.4408092 0.31778768 0.7229359
0.31283635 -1.0764762 1.4424605 0.31970343 0.72235835
0.31194806 -1.0772152 1.4439204 0.32170305 0.721744
0.31521013 -1.0841619 1.438285 0.32173067 0.7324712
0.31511754 -1.0845842 1.4400005 0.32349613 0.7315329
0.3142071 -1.0852443 1.4414842 0.32533652 0.7305423
0.31873718 -1.092356 1.4370618 0.32745007 0.74104786
0.31855458 -1.0925691 1.4388086 0.32899696 0.7397848
0.3176108 -1.0931517 1.4403038 0.33060712 0.73845613
0.32331485 -1.100109 1.4371867 0.33472472 0.748334
0.3230154 -1.1001242 1.4389303 0.3359933 0.7467951
0.32202828 -1.1006335 1.4404244 0.33731097 0.74518
0.32876718 -1.1071229 1.438655 0.34327155 0.75404775
0.32832855 -1.1069591 1.4403613 0.3442129 0.75229305
0.32728982 -1.107402 1.4418414 0.34518734 0.7504543
0.33488458 -1.1131282 1.4414103 0.35275698 0.7579692
0.33428985 -1.1128112 1.4430461 0.35333493 0.7560669
0.33319324 -1.1131973 1.4445002 0.35392883 0.754076
0.341432 -1.1178943 1.4453466 0.36281124 0.75994813
0.34067023 -1.1174556 1.446882 0.36300355 0.75797224
0.33951157 -1.1177965 1.4482989 0.36319378 0.7559065
0.3481579 -1.1212378 1.4503126 0.373043 0.75990987
0.34722444 -1.1207138 1.4517214 0.372841 0.7579375
0.34600222 -1.121023 1.4530911 0.37261915 0.7558774
0.35480374 -1.1230303 1.4561177 0.38305867 0.7578523
0.3537007 -1.1224606 1.4573783 0.3824718 0.75596166
0.35241553 -1.1227529 1.4586931 0.381849 0.7539897
0.3611141 -1.1232029 1.4625387 0.39245048 0.7538529
0.35985002 -1.1226288 1.4636353 0.39150044 0.75211984
0.35850516 -1.1229196 1.4648894 0.39049882 0.75031453
0.3668466 -1.121749 1.4693286 0.40084434 0.74807036
0.36543617 -1.121212 1.470252 0.3995704 0.74656725
0.36403704 -1.1215165 1.4714419 0.39823353 0.74499935
0.37178075 -1.1187246 1.4762268 0.40791357 0.7407527
0.37024444 -1.1182647 1.4769741 0.4063695 0.7395308
0.36879867 -1.1185977 1.4780988 0.40475738 0.7382615
0.37572712 -1.1142457 1.4829681 0.4133629 0.73220915
0.37409008 -1.1139001 1.4835434 0.41161105 0.731319
0.37260693 -1.1142756 1.4846041 0.40977463 0.7303998
0.37853393 -1.1084844 1.4892933 0.41703618 0.7227534
0.37682524 -1.1082859 1.4897072 0.41514128 0.72221667
0.37531555 -1.1087159 1.4907081 0.41315502 0.7216685
0.38009337 -1.1016623 1.4949595 0.4188495 0.71273315
0.3783449 -1.1016378 1.4952288 0.41687572 0.7125515
0.37682042 -1.1021324 1.4961761 0.41480446 0.712373
0.3803455 -1.0940415 1.499749 0.41883677 0.7025286
0.37859052 -1.0942116 1.4998959 0.41686082 0.7027066
0.37706375 -1.0947783 1.500798 0.41479114 0.7029024
0.37928063 -1.0859147 1.5034775 0.4169635 0.69250935
0.3775529 -1.0862923 1.5035293 0.4150556 0.6930665
0.3760361 -1.0869359 1.5043961 0.4130646 0.69366294
0.37693965 -1.0775945 1.5060018 0.41319957 0.6829268
0.37527168 -1.0781844 1.5059893 0.41142663 0.68382716
0.37377706 -1.0789067 1.5068321 0.40957814 0.6847769
0.3734126 -1.0694004 1.507225 0.40764445 0.6742806
0.37183464 -1.0701995 1.5071813 0.40608484 0.6755108
0.3703734 -1.0709994 1.5080125 0.40446243 0.67680347
0.36883494 -1.0616475 1.5071001 0.40050027 0.666939
0.36737382 -1.0626444 1.5070595 0.39922112 0.6684531
0.36595595 -1.0635176 1.5078919 0.39789343 0.6700409
0.3633827 -1.0546336 1.5056317 0.39206013 0.66117734
0.3620607 -1.0558094 1.5056286 0.39110985 0.662915
0.36069432 -1.0567491 1.506475 0.39012688 0.6647346
0.35726526 -1.0486282 1.5028765 0.38265434 0.6572199
0.3560994 -1.0499573 1.5029438 0.38206938 0.6591091
0.354791 -1.0509537 1.5038161 0.3814691 0.66108584
0.35071778 -1.0438622 1.4989402 0.3726535 0.6552017
0.349719 -1.0453129 1.4991078 0.37245423 0.65716976
0.34847257 -1.0463545 1.5000175 0.3722575 0.6592268
0.34399194 -1.0405188 1.4939741 0.36244455 0.65519994
0.34316477 -1.0420547 1.4942684 0.36263812 0.65717036
0.34198198 -1.0431279 1.4952251 0.36285204 0.6592276
0.27426547 -1.1427773 1.4780464 0.61198735 0.6515378
0.2673663 -1.1339021 1.4761885 0.62359214 0.6492305
0.2711452 -1.1311204 1.4781799 0.6241202 0.6544852
0.27750397 -1.1393006 1.4798924 0.6135341 0.6565885
0.3381838 -1.1159412 1.560071 0.60086584 0.76275736
0.3364157 -1.1145664 1.555492 0.60338223 0.7581091
0.26157388 -1.1240916 1.4760303 0.6354238 0.6492363
0.26580647 -1.1220785 1.4780341 0.63491374 0.6544939
0.33953124 -1.1262245 1.5553529 0.5910473 0.75614977
0.33765763 -1.1240443 1.5511435 0.59441906 0.7520859
0.25711083 -1.1137232 1.4775782 0.6470285 0.65155566
0.261693 -1.1125221 1.4794607 0.64550036 0.6566147
0.33921224 -1.1358676 1.5492926 0.58271813 0.74776477
0.33736357 -1.1329321 1.545558 0.5868081 0.7444316
0.25414866 -1.103195 1.4807725 0.65796435 0.6560976
0.25896284 -1.1028186 1.4824048 0.6554762 0.66076726
0.33723894 -1.1445001 1.5421228 0.5761919 0.7379216
0.33554488 -1.1408885 1.5389496 0.5808447 0.73544014
0.2528012 -1.0929117 1.4854904 0.66782135 0.6626839
0.25772095 -1.0933409 1.4867532 0.6644713 0.66678405
0.33368728 -1.1517903 1.534119 0.57170993 0.7269955
0.3322714 -1.1476076 1.5315728 0.5767574 0.7254684
0.25312024 -1.0832685 1.4915508 0.6762109 0.67106986
0.258015 -1.084453 1.4923389 0.6721244 0.6744404
0.32869366 -1.1574577 1.5255888 0.56943864 0.71539754
0.32766896 -1.1528311 1.5237107 0.57470447 0.71488124
0.25509351 -1.074636 1.4987206 0.6828062 0.6809351
0.2598337 -1.0764966 1.4989471 0.6781393 0.68344456
0.3224501 -1.1612849 1.51686 0.5694327 0.70353216
0.3219144 -1.1563585 1.5156657 0.57470787 0.7040359
0.25864518 -1.067346 1.5067245 0.68735087 0.69190097
0.26310718 -1.0697776 1.506324 0.6822827 0.69345164
0.31519642 -1.1631246 1.5082681 0.5717325 0.6918905
0.3152289 -1.1580541 1.5077468 0.5768079 0.69340783
0.27713603 -1.0560117 1.5325752 0.68734264 0.72706914
0.28512102 -1.0562301 1.5407001 0.6827808 0.73804605
0.2875092 -1.0595324 1.5376384 0.6780999 0.735539
0.28014967 -1.059331 1.53015 0.68226504 0.7255357
0.26363876 -1.0616784 1.5152546 0.68966794 0.70354486
0.2677096 -1.064554 1.514186 0.68439347 0.7040765
0.30721146 -1.1629062 1.5001433 0.57625353 0.68092495
0.30786937 -1.1578528 1.5002583 0.5809333 0.68340194
0.3020412 -1.062729 1.5543296 0.66776395 0.75630826
0.3103262 -1.0687598 1.5593106 0.65788364 0.76288635
0.3107401 -1.0710807 1.5547911 0.65540475 0.7582034
0.30310407 -1.0655223 1.5502003 0.66441673 0.75219846
0.26988235 -1.0578513 1.5239834 0.68966633 0.71542007
0.27346417 -1.0610266 1.5222311 0.6843885 0.7149104
0.298802 -1.160638 1.4927979 0.5828259 0.6710558
0.3001186 -1.1557622 1.4934882 0.58693033 0.6743986
0.1010073 -1.166698 1.7354583 0.45205334 0.55162424
0.109918065 -1.1711277 1.7420375 0.45214358 0.5692705
0.2993794 -1.0622165 1.5587653 0.0071508437 0.5712937
0.29046866 -1.0577868 1.5521859 0.007329382 0.55381477
0.29029125 -1.1564071 1.4865139 0.5912001 0.66266197
0.29227448 -1.1518627 1.4876964 0.59457076 0.66674274
0.31806698 -1.0763589 1.562797 0.64691204 0.76740634
0.3249662 -1.0852342 1.564655 0.6352725 0.76969564
0.32423338 -1.0862646 1.5597169 0.6347773 0.76442385
0.3178746 -1.0780846 1.5580045 0.64539623 0.76233107
0.29353046 -1.0584983 1.5480456 0.6761713 0.74792266
0.29525995 -1.0616229 1.5444086 0.67208284 0.74454606
0.28200626 -1.1503763 1.4815329 0.6010539 0.65607
0.2846385 -1.1463044 1.4831057 0.6035624 0.6607272
0.13392052 -1.1946905 1.7528481 0.45236945 0.6222734
0.13998516 -1.2049619 1.7530137 0.45242974 0.6399622
0.3294465 -1.0960507 1.5697414 0.006360717 0.6413156
0.32338184 -1.0857793 1.5695759 0.006569721 0.6237941
0.08894149 -1.2628944 1.6658194 0.44999745 0.30569792
0.08083686 -1.2549382 1.6621691 0.45019248 0.32319465
0.2702982 -1.146027 1.4788967 0.008969516 0.32753724
0.27840284 -1.1539832 1.482547 0.009043127 0.31020486
0.144658 -1.2158177 1.7513931 0.45248255 0.6576619
0.33411935 -1.1069065 1.5681208 0.006144099 0.65884745
0.073613405 -1.2456458 1.6602237 0.45038024 0.34070203
0.2630748 -1.1367346 1.4769515 0.0088883415 0.34488058
0.14775936 -1.2268407 1.7480487 0.45252788 0.67537224
0.33722073 -1.1179296 1.5647764 0.0059196576 0.6763893
0.06754877 -1.2353743 1.6600583 0.45056057 0.35822016
0.2570101 -1.1264632 1.4767859 0.0087996945 0.36223435
0.14917016 -1.2376074 1.743109 0.4525657 0.69309324
0.33863148 -1.1286962 1.5598367 0.0056876093 0.6939417
0.06287594 -1.2245185 1.6616788 0.45073357 0.37574887
0.2523373 -1.1156074 1.4784065 0.008703619 0.3795987
0.14883614 -1.2477038 1.7367638 0.45259592 0.71082497
0.3382975 -1.1387926 1.5534915 0.005447775 0.7115044
0.05977455 -1.2134955 1.6650232 0.45089927 0.3932883
0.24923587 -1.1045843 1.481751 0.008599803 0.39697286
0.14677012 -1.256742 1.729257 0.45261863 0.72856736
0.33623147 -1.1478308 1.5459847 0.0052004233 0.72907776
0.058363754 -1.2027289 1.6699629 0.45105752 0.41083845
0.24782509 -1.0938177 1.4866906 0.008488692 0.41435754
0.14305152 -1.2643747 1.7208769 0.45263374 0.74632055
0.3325129 -1.1554636 1.5376047 0.0049456507 0.7466612
0.05869778 -1.1926324 1.6763082 0.4512084 0.42839924
0.24815914 -1.0837213 1.4930358 0.008369848 0.43175268
0.13782324 -1.2703086 1.7119459 0.45264125 0.76408446
0.3272846 -1.1613975 1.5286735 0.0046802834 0.76425064
0.0607638 -1.1835942 1.6838149 0.45135188 0.44597077
0.25022516 -1.0746831 1.5005426 0.008243389 0.44915837
0.13128619 -1.2743156 1.7028068 0.45264125 0.78185904
0.32074755 -1.1654044 1.5195346 0.004389882 0.78185666
0.0922026 -1.1643232 1.7277675 0.45195556 0.5339887
0.28166395 -1.055412 1.5444951 0.007500097 0.5363462
0.064482406 -1.1759615 1.6921949 0.4514879 0.46355298
0.25394374 -1.0670503 1.5089227 0.008109465 0.46657455
0.13128619 -1.2743156 1.7028068 0.44891432 0.2185269
0.12369159 -1.2762418 1.6938112 0.44914386 0.23581746
0.31315294 -1.1673306 1.5105388 0.009254582 0.24098113
0.32074755 -1.1654044 1.5195346 0.009012081 0.2236835
0.118592426 -1.1774418 1.7472526 0.45222634 0.5869275
0.30805376 -1.0685307 1.5639803 0.0069648772 0.5887832
0.06971068 -1.1700276 1.7011261 0.45161656 0.48114592
0.25917202 -1.0611165 1.5178537 0.007967837 0.4840018
0.115331315 -1.276013 1.6853045 0.44936824 0.25327152
0.30479267 -1.1671019 1.5020322 0.009218641 0.25827146
0.076247714 -1.1660206 1.710265 0.45173776 0.49874955
0.26570907 -1.0571095 1.5269928 0.007818744 0.5014397
0.106526606 -1.2736382 1.6776137 0.4495853 0.2707364
0.29598796 -1.1647271 1.4943414 0.009167895 0.2755717
0.12669708 -1.1853981 1.7509029 0.45230165 0.60459507
0.3161584 -1.0764868 1.5676305 0.006771125 0.6062831
0.08384232 -1.1640944 1.7192608 0.45185035 0.5163638
0.27330366 -1.0551833 1.5359885 0.0076632053 0.51888806
0.09761585 -1.2692087 1.6710343 0.44979504 0.28821182
0.2870772 -1.1602974 1.4877621 0.009109311 0.292883
0.28885752 -1.1586716 1.4865886 0.58940583 0.66048616
0.28029796 -1.152441 1.4814427 0.5997208 0.6535875
0.28029796 -1.152441 1.4814427 0.004859492 0.3102184
0.28885752 -1.1586716 1.4865886 0.004928127 0.29289812
0.2976503 -1.1630427 1.4930809 0.5806403 0.66927284
0.2976503 -1.1630427 1.4930809 0.004989594 0.2755881
0.3095564 -1.0681196 1.5617979 0.65921396 0.7653765
0.31755376 -1.0759705 1.5653999 0.64773005 0.7701076
0.31755376 -1.0759705 1.5653999 0.0025441647 0.6062697
0.3095564 -1.0681196 1.5617979 0.002740495 0.5887714
0.26132172 -1.0608037 1.516282 0.69247836 0.70326376
0.26777223 -1.0568496 1.5253 0.69247836 0.7156934
0.26777223 -1.0568496 1.5253 0.0036064237 0.5014359
0.26132172 -1.0608037 1.516282 0.0037586316 0.4839994
0.31458807 -1.1656117 1.509064 0.5690297 0.69107985
0.30633846 -1.1653861 1.5006698 0.57376164 0.67960316
0.30633846 -1.1653861 1.5006698 0.005046569 0.25829065
0.31458807 -1.1656117 1.509064 0.0050886944 0.24103507
0.29220405 -1.057518 1.5501597 0.67835665 0.74971384
0.30099687 -1.061889 1.556652 0.6695558 0.7584913
0.30099687 -1.061889 1.556652 0.0029291809 0.5712836
0.29220405 -1.057518 1.5501597 0.0031100735 0.5538062
0.2524933 -1.0741906 1.4992001 0.68529344 0.6795998
0.25616264 -1.066659 1.5074692 0.6900517 0.6910764
0.25616264 -1.066659 1.5074692 0.0039028302 0.46657377
0.2524933 -1.0741906 1.4992001 0.0040393844 0.4491592
0.32853264 -1.1597571 1.5269586 0.566636 0.7156748
0.32208216 -1.1637111 1.5179405 0.56662405 0.70326316
0.32208216 -1.1637111 1.5179405 0.00016175956 0.7816756
0.32853264 -1.1597571 1.5269586 0.0004611984 0.7642164
0.33369175 -1.1539018 1.5357715 0.56902003 0.72780776
0.33369175 -1.1539018 1.5357715 0.00070040673 0.74663746
0.3373611 -1.14637 1.5440406 0.5737119 0.7392413
0.3373611 -1.14637 1.5440406 0.000955455 0.7290535
0.33939978 -1.1374515 1.551448 0.5805424 0.74954367
0.33939978 -1.1374515 1.551448 0.0012056008 0.71148133
0.33972937 -1.1274887 1.5577092 0.58925873 0.75832134
0.33972937 -1.1274887 1.5577092 0.0014480129 0.6939202
0.33833724 -1.1168647 1.5625836 0.5995342 0.7652392
0.33833724 -1.1168647 1.5625836 0.0016826466 0.6763694
0.33527687 -1.1059875 1.5658836 0.61097395 0.7700197
0.33527687 -1.1059875 1.5658836 0.001909487 0.6588292
0.33066592 -1.0952754 1.5674828 0.6231353 0.7724735
0.33066592 -1.0952754 1.5674828 0.002128683 0.6412989
0.32468158 -1.08514 1.5673194 0.6355472 0.7725037
0.32468158 -1.08514 1.5673194 0.0023401827 0.62377906
0.2752663 -1.054949 1.5341766 0.69004816 0.72788775
0.2835159 -1.0551746 1.5425707 0.6852751 0.73937726
0.2835159 -1.0551746 1.5425707 0.0032834113 0.5363393
0.2752663 -1.054949 1.5341766 0.0034489632 0.51888275
0.32208216 -1.1637111 1.5179405 0.004825823 0.22385493
0.2504546 -1.0831093 1.4917926 0.6783891 0.6692754
0.2504546 -1.0831093 1.4917926 0.004168369 0.4317551
0.25012502 -1.0930719 1.4855313 0.6696068 0.6605004
0.25012502 -1.0930719 1.4855313 0.004289709 0.41436157
0.25151712 -1.1036961 1.4806571 0.65928996 0.6536106
0.25151712 -1.1036961 1.4806571 0.0044035763 0.3969785
0.25457746 -1.1145731 1.4773569 0.64784396 0.64886045
0.25457746 -1.1145731 1.4773569 0.00450971 0.3796059
0.2591884 -1.1252853 1.4757578 0.635697 0.6464349
0.2591884 -1.1252853 1.4757578 0.004608318 0.36224318
0.26517278 -1.1354208 1.4759212 0.6233127 0.6464297
0.26517278 -1.1354208 1.4759212 0.0046994984 0.34489095
0.27230063 -1.1445901 1.4778407 0.61116594 0.648845
0.27230063 -1.1445901 1.4778407 0.004783295 0.32754916
4 0 1 2 3
4 3 2 4 5
4 5 4 6 7
4 7 6 8 9
4 9 8 10 11
4 11 10 12 13
4 13 12 14 15
4 15 14 16 17
4 17 16 18 19
4 19 18 20 21
4 21 20 22 23
4 23 22 24 25
4 25 24 26 27
4 27 26 28 29
4 29 28 30 31
4 31 30 32 33
4 33 32 34 35
4 35 34 36 37
4 37 36 38 39
4 39 38 40 41
4 41 40 42 43
4 43 42 44 45
4 45 44 46 47
4 47 46 48 49
4 49 48 50 51
4 51 50 52 53
4 53 52 54 55
4 55 54 56 57
4 57 56 58 59
4 59 58 60 61
32 62 63 64 65 66 67 68 69 70 71 72 73 74 75 76 77 78 79 80 81 82 83 84 85 86 87 88 89 90 91 92 93
4 61 60 94 95
4 95 94 96 97
32 98 99 100 101 102 103 104 105 106 107 108 109 110 111 112 113 114 115 116 117 118 119 120 121 122 123 124 125 126 127 128 129
4 130 131 132 133
4 134 135 136 137
4 138 130 133 139
4 140 134 137 141
4 142 138 139 143
4 144 140 141 145
4 146 142 143 147
4 148 144 145 149
4 150 146 147 151
4 152 148 149 153
4 154 150 151 155
4 156 152 153 157
4 158 154 155 159
4 160 156 157 161
4 162 158 159 163
4 164 160 161 165
4 166 162 163 167
4 168 164 165 169
4 170 171 172 173
4 174 166 167 175
4 176 168 169 177
4 178 179 180 181
4 182 174 175 183
4 184 176 177 185
4 186 178 181 187
4 171 182 183 172
4 188 184 185 189
4 190 186 187 191
4 192 193 194 195
4 131 188 189 132
4 135 190 191 136
4 179 196 197 180
4 198 199 200 201
4 202 203 204 205
4 206 207 208 209
4 210 198 201 211
4 212 202 205 213
4 214 206 209 215
4 216 210 211 217
4 218 212 213 219
4 220 214 215 221
4 222 216 217 223
4 224 218 219 225
4 226 220 221 227
4 228 222 223 229
4 230 224 225 231
4 203 226 227 204
4 232 233 234 235
4 236 230 231 237
4 238 232 235 239
4 240 236 237 241
4 242 238 239 243
4 244 240 241 245
4 246 242 243 247
4 248 244 245 249
4 250 246 247 251
4 252 248 249 253
4 254 250 251 255
4 256 252 253 257
4 258 254 255 259
4 260 256 257 261
4 262 258 259 263
4 199 260 261 200
4 207 262 263 208
4 264 265 266 267
4 268 269 270 271
4 272 273 274 275
4 276 277 278 279
4 280 281 282 283
4 265 284 285 266
4 284 286 287 285
4 288 289 290 291
4 292 268 271 293
4 294 295 296 297
4 298 280 283 299
4 300 301 302 303
4 269 288 291 270
4 304 305 306 307
4 281 294 297 282
4 301 264 267 302
4 289 300 303 290
4 308 309 310 311
4 295 304 307 296
4 312 313 314 315
4 305 308 311 306
4 316 317 318 319
4 309 320 321 310
4 322 323 324 325
4 326 276 279 327
4 313 316 319 314
4 328 192 195 329
4 277 292 293 278
4 317 322 325 318
4 193 326 327 194
4 286 298 299 287
4 323 328 329 324
4 205 204 330 331
4 332 333 334 335
4 335 334 170 196
4 213 205 331 336
4 337 332 335 338
4 338 335 196 179
4 219 213 336 339
4 340 337 338 341
4 341 338 179 178
4 225 219 339 342
4 343 340 341 344
4 344 341 178 186
4 231 225 342 345
4 346 343 344 347
4 347 344 186 190
4 237 231 345 348
4 349 346 347 350
4 350 347 190 135
4 241 237 348 351
4 352 349 350 353
4 353 350 135 134
4 245 241 351 354
4 355 352 353 356
4 356 353 134 140
4 249 245 354 357
4 358 355 356 359
4 359 356 140 144
4 253 249 357 360
4 361 358 359 362
4 362 359 144 148
4 257 253 360 363
4 364 361 362 365
4 365 362 148 152
4 261 257 363 366
4 367 364 365 368
4 368 365 152 156
4 200 261 366 369
4 370 367 368 371
4 371 368 156 160
4 201 200 369 372
4 373 370 371 374
4 374 371 160 164
4 211 201 372 375
4 376 373 374 377
4 377 374 164 168
4 217 211 375 378
4 379 376 377 380
4 380 377 168 176
4 223 217 378 381
4 382 379 380 383
4 383 380 176 184
4 229 223 381 384
4 385 382 383 386
4 386 383 184 188
4 235 234 387 388
4 389 385 386 390
4 390 386 188 131
4 239 235 388 391
4 392 389 390 393
4 393 390 131 130
4 243 239 391 394
4 395 392 393 396
4 396 393 130 138
4 247 243 394 397
4 398 395 396 399
4 399 396 138 142
4 251 247 397 400
4 401 398 399 402
4 402 399 142 146
4 255 251 400 403
4 404 401 402 405
4 405 402 146 150
4 259 255 403 406
4 407 404 405 408
4 408 405 150 154
4 263 259 406 409
4 410 407 408 411
4 411 408 154 158
4 208 263 409 412
4 413 410 411 414
4 414 411 158 162
4 209 208 412 415
4 416 413 414 417
4 417 414 162 166
4 215 209 415 418
4 419 416 417 420
4 420 417 166 174
4 221 215 418 421
4 422 419 420 423
4 423 420 174 182
4 227 221 421 424
4 425 422 423 426
4 426 423 182 171
4 204 227 424 330
4 333 425 426 334
4 334 426 171 170
4 197 173 427 428
4 428 427 429 430
4 430 429 431 432
4 180 197 428 433
4 433 428 430 434
4 434 430 432 435
4 181 180 433 436
4 436 433 434 437
4 437 434 435 438
4 187 181 436 439
4 439 436 437 440
4 440 437 438 441
4 191 187 439 442
4 442 439 440 443
4 443 440 441 444
4 136 191 442 445
4 445 442 443 446
4 446 443 444 447
4 137 136 445 448
4 448 445 446 449
4 449 446 447 450
4 141 137 448 451
4 451 448 449 452
4 452 449 450 453
4 145 141 451 454
4 454 451 452 455
4 455 452 453 456
4 149 145 454 457
4 457 454 455 458
4 458 455 456 459
4 153 149 457 460
4 460 457 458 461
4 461 458 459 462
4 157 153 460 463
4 463 460 461 464
4 464 461 462 465
4 161 157 463 466
4 466 463 464 467
4 467 464 465 468
4 165 161 466 469
4 469 466 467 470
4 470 467 468 471
4 169 165 469 472
4 472 469 470 473
4 473 470 471 474
4 177 169 472 475
4 475 472 473 476
4 476 473 474 477
4 185 177 475 478
4 478 475 476 479
4 479 476 477 480
4 189 185 478 481
4 481 478 479 482
4 482 479 480 483
4 132 189 481 484
4 484 481 482 485
4 485 482 483 486
4 133 132 484 487
4 487 484 485 488
4 488 485 486 489
4 139 133 487 490
4 490 487 488 491
4 491 488 489 492
4 143 139 490 493
4 493 490 491 494
4 494 491 492 495
4 147 143 493 496
4 496 493 494 497
4 497 494 495 498
4 151 147 496 499
4 499 496 497 500
4 500 497 498 501
4 155 151 499 502
4 502 499 500 503
4 503 500 501 504
4 159 155 502 505
4 505 502 503 506
4 506 503 504 507
4 163 159 505 508
4 508 505 506 509
4 509 506 507 510
4 167 163 508 511
4 511 508 509 512
4 512 509 510 513
4 175 167 511 514
4 514 511 512 515
4 515 512 513 516
4 183 175 514 517
4 517 514 515 518
4 518 515 516 519
4 172 183 517 520
4 520 517 518 521
4 521 518 519 522
4 173 172 520 427
4 427 520 521 429
4 429 521 522 431
4 196 170 173 197
4 523 524 525 526
4 273 527 528 274
4 524 529 530 525
4 527 531 532 528
4 529 533 534 530
4 531 535 536 532
4 533 537 538 534
4 535 539 540 536
4 537 541 542 538
4 539 543 544 540
4 541 545 546 542
4 543 547 548 544
4 545 549 550 546
4 547 551 552 548
4 549 553 554 550
4 551 555 556 552
4 557 558 559 560
4 553 561 562 554
4 555 563 564 556
4 565 566 567 568
4 561 569 570 562
4 563 571 572 564
4 573 574 575 576
4 569 557 560 570
4 571 577 578 572
4 579 580 581 582
4 558 583 584 559
4 577 585 586 578
4 580 272 275 581
4 585 523 526 586
4 587 588 589 590
4 591 592 593 594
4 588 595 596 589
4 592 597 598 593
4 595 599 600 596
4 597 601 602 598
4 599 603 604 600
4 601 605 606 602
4 603 607 608 604
4 605 609 610 606
4 607 611 612 608
4 609 613 614 610
4 611 615 616 612
4 613 617 618 614
4 615 619 620 616
4 617 621 622 618
4 619 623 624 620
4 625 573 576 626
4 621 627 628 622
4 629 630 631 632
4 574 633 634 575
4 627 635 636 628
4 630 637 638 631
4 566 579 582 567
4 635 639 640 636
4 637 641 642 638
4 633 643 644 634
4 639 645 646 640
4 641 647 648 642
4 643 587 590 644
4 645 625 626 646
4 647 591 594 648
4 585 577 649 650
4 651 652 648 594
4 577 571 653 649
4 652 654 642 648
4 579 566 655 656
4 657 658 634 644
4 569 561 659 660
4 661 662 636 640
4 563 555 663 664
4 665 666 631 638
4 565 583 667 668
4 669 670 576 575
4 553 549 671 672
4 673 674 622 628
4 551 547 675 676
4 677 678 620 624
4 547 543 679 675
4 678 680 616 620
4 543 539 681 679
4 680 682 612 616
4 539 535 683 681
4 682 684 608 612
4 535 531 685 683
4 684 686 604 608
4 531 527 687 685
4 686 688 600 604
4 527 273 689 687
4 688 690 596 600
4 273 272 691 689
4 690 692 589 596
4 272 580 693 691
4 692 694 590 589
4 558 557 695 696
4 697 698 646 626
4 566 565 668 655
4 658 669 575 634
4 561 553 672 659
4 662 673 628 636
4 555 551 676 663
4 666 699 632 631
4 580 579 656 693
4 694 657 644 590
4 583 558 696 667
4 670 697 626 576
4 549 545 700 671
4 674 701 618 622
4 545 541 702 700
4 701 703 614 618
4 541 537 704 702
4 703 705 610 614
4 537 533 706 704
4 705 707 606 610
4 533 529 708 706
4 707 709 602 606
4 529 524 710 708
4 709 711 598 602
4 524 523 712 710
4 711 713 593 598
4 523 585 650 712
4 713 651 594 593
4 557 569 660 695
4 698 661 640 646
4 571 563 664 653
4 654 665 638 642
4 583 565 568 584
