{
  "accessors": [
    {
      "bufferView": 2,
      "componentType": 5126,
      "count": 277,
      "max": [
        0.5805950164794922,
        1.7184510231018066,
        -1.26044499874115
      ],
      "min": [
        -1.2640650272369385,
        -3.999999989900971e-06,
        -2.670403003692627
      ],
      "type": "VEC3"
    },
    {
      "bufferView": 2,
      "byteOffset": 3324,
      "componentType": 5126,
      "count": 277,
      "max": [
        0.9999688267707825,
        0.9945959448814392,
        0.9997217059135437
      ],
      "min": [
        -0.9999688267707825,
        -1.0,
        -0.9999691843986511
      ],
      "type": "VEC3"
    },
    {
      "bufferView": 1,
      "componentType": 5126,
      "count": 277,
      "max": [
        1.0,
        0.9628909826278687
      ],
      "min": [
        3.099999958067201e-05,
        0.0
      ],
      "type": "VEC2"
    },
    {
      "bufferView": 0,
      "componentType": 5125,
      "count": 720,
      "type": "SCALAR"
    },
    {
      "bufferView": 2,
      "byteOffset": 6648,
      "componentType": 5126,
      "count": 4770,
      "max": [
        -2.662385940551758,
        1.7242380380630493,
        0.7124720215797424
      ],
      "min": [
        -6.5885210037231445,
        -4.999999873689376e-06,
        -0.8716340065002441
      ],
      "type": "VEC3"
    },
    {
      "bufferView": 2,
      "byteOffset": 63888,
      "componentType": 5126,
      "count": 4770,
      "max": [
        1.0,
        1.0,
        1.0
      ],
      "min": [
        -1.0,
        -1.0,
        -1.0
      ],
      "type": "VEC3"
    },
    {
      "bufferView": 1,
      "byteOffset": 2216,
      "componentType": 5126,
      "count": 4770,
      "max": [
        0.9980469942092896,
        0.9999690055847168
      ],
      "min": [
        3.099999958067201e-05,
        0.0
      ],
      "type": "VEC2"
    },
    {
      "bufferView": 0,
      "byteOffset": 2880,
      "componentType": 5125,
      "count": 15270,
      "type": "SCALAR"
    },
    {
      "bufferView": 2,
      "byteOffset": 121128,
      "componentType": 5126,
      "count": 11504,
      "max": [
        1.949254035949707,
        1.0348939895629883,
        2.8860630989074707
      ],
      "min": [
        -1.949254035949707,
        0.00018200000340584666,
        1.7781100273132324
      ],
      "type": "VEC3"
    },
    {
      "bufferView": 2,
      "byteOffset": 259176,
      "componentType": 5126,
      "count": 11504,
      "max": [
        1.0,
        1.0,
        1.0
      ],
      "min": [
        -1.0,
        -1.0,
        -1.0
      ],
      "type": "VEC3"
    },
    {
      "bufferView": 1,
      "byteOffset": 40376,
      "componentType": 5126,
      "count": 11504,
      "max": [
        0.9990230202674866,
        0.9164429903030396
      ],
      "min": [
        3.099999958067201e-05,
        0.0
      ],
      "type": "VEC2"
    },
    {
      "bufferView": 0,
      "byteOffset": 63960,
      "componentType": 5125,
      "count": 43992,
      "type": "SCALAR"
    },
    {
      "bufferView": 2,
      "byteOffset": 397224,
      "componentType": 5126,
      "count": 2944,
      "max": [
        -0.47708800435066223,
        1.2480939626693726,
        0.36697301268577576
      ],
      "min": [
        -2.2095630168914795,
        -0.0008149999775923789,
        -0.5633249878883362
      ],
      "type": "VEC3"
    },
    {
      "bufferView": 2,
      "byteOffset": 432552,
      "componentType": 5126,
      "count": 2944,
      "max": [
        1.0,
        1.0,
        1.0
      ],
      "min": [
        -1.0,
        -1.0,
        -1.0
      ],
      "type": "VEC3"
    },
    {
      "bufferView": 1,
      "byteOffset": 132408,
      "componentType": 5126,
      "count": 2944,
      "max": [
        0.9995120167732239,
        0.9504389762878418
      ],
      "min": [
        3.099999958067201e-05,
        0.0004879999905824661
      ],
      "type": "VEC2"
    },
    {
      "bufferView": 0,
      "byteOffset": 239928,
      "componentType": 5125,
      "count": 7812,
      "type": "SCALAR"
    },
    {
      "bufferView": 2,
      "byteOffset": 467880,
      "componentType": 5126,
      "count": 1143,
      "max": [
        5.81948184967041,
        1.8427250385284424,
        0.9201189875602722
      ],
      "min": [
        2.6157729625701904,
        -0.005504999775439501,
        -0.49673599004745483
      ],
      "type": "VEC3"
    },
    {
      "bufferView": 2,
      "byteOffset": 481596,
      "componentType": 5126,
      "count": 1143,
      "max": [
        1.0,
        1.0,
        1.0
      ],
      "min": [
        -1.0,
        -1.0,
        -1.0
      ],
      "type": "VEC3"
    },
    {
      "bufferView": 1,
      "byteOffset": 155960,
      "componentType": 5126,
      "count": 1143,
      "max": [
        0.9946290254592896,
        0.9999690055847168
      ],
      "min": [
        3.099999958067201e-05,
        0.0
      ],
      "type": "VEC2"
    },
    {
      "bufferView": 0,
      "byteOffset": 271176,
      "componentType": 5125,
      "count": 3120,
      "type": "SCALAR"
    },
    {
      "bufferView": 2,
      "byteOffset": 495312,
      "componentType": 5126,
      "count": 6393,
      "max": [
        2.535701036453247,
        0.5263379812240601,
        0.6102110147476196
      ],
      "min": [
        0.18479399383068085,
        0.0,
        -0.6071670055389404
      ],
      "type": "VEC3"
    },
    {
      "bufferView": 2,
      "byteOffset": 572028,
      "componentType": 5126,
      "count": 6393,
      "max": [
        1.0,
        1.0,
        1.0
      ],
      "min": [
        -1.0,
        -1.0,
        -1.0
      ],
      "type": "VEC3"
    },
    {
      "bufferView": 1,
      "byteOffset": 165104,
      "componentType": 5126,
      "count": 6393,
      "max": [
        0.9970700144767761,
        0.9927859902381897
      ],
      "min": [
        -3.099999958067201e-05,
        0.0
      ],
      "type": "VEC2"
    },
    {
      "bufferView": 0,
      "byteOffset": 283656,
      "componentType": 5125,
      "count": 26742,
      "type": "SCALAR"
    }
  ],
  "asset": {
    "extras": {
      "author": "Xoffly (https://sketchfab.com/Xoffly)",
      "license": "CC-BY-4.0 (http://creativecommons.org/licenses/by/4.0/)",
      "source": "https://sketchfab.com/3d-models/poppy-playtime-control-panels-957c300192194d34abd8617f15e05723",
      "title": "Poppy Playtime | Control Panels"
    },
    "generator": "Sketchfab-13.37.1",
    "version": "2.0"
  },
  "bufferViews": [
    {
      "buffer": 0,
      "byteLength": 390624,
      "name": "floatBufferViews",
      "target": 34963
    },
    {
      "buffer": 0,
      "byteLength": 216248,
      "byteOffset": 390624,
      "byteStride": 8,
      "name": "floatBufferViews",
      "target": 34962
    },
    {
      "buffer": 0,
      "byteLength": 648744,
      "byteOffset": 606872,
      "byteStride": 12,
      "name": "floatBufferViews",
      "target": 34962
    }
  ],
  "buffers": [
    {
      "byteLength": 1255616,
      "uri": "scene.bin"
    }
  ],
  "images": [
    {
      "uri": "textures/emergency_exit_control_panel_MAT.001_baseColor.png"
    },
    {
      "uri": "textures/hub_control_panel_MAT.001_baseColor.png"
    },
    {
      "uri": "textures/molding_control_panel_MAT.001_baseColor.png"
    },
    {
      "uri": "textures/power_control_panel_MAT.001_baseColor.png"
    },
    {
      "uri": "textures/train_code_control_panel_MAT.001_baseColor.png"
    },
    {
      "uri": "textures/WT_control_panel_MAT.001_baseColor.png"
    }
  ],
  "materials": [
    {
      "doubleSided": true,
      "name": "emergency_exit_control_panel_MAT.001",
      "pbrMetallicRoughness": {
        "baseColorTexture": {
          "index": 0
        },
        "metallicFactor": 0.0,
        "roughnessFactor": 0.1788854381999832
      }
    },
    {
      "doubleSided": true,
      "name": "hub_control_panel_MAT.001",
      "pbrMetallicRoughness": {
        "baseColorTexture": {
          "index": 1
        },
        "metallicFactor": 0.0,
        "roughnessFactor": 0.1788854381999832
      }
    },
    {
      "doubleSided": true,
      "name": "molding_control_panel_MAT.001",
      "pbrMetallicRoughness": {
        "baseColorTexture": {
          "index": 2
        },
        "metallicFactor": 0.0,
        "roughnessFactor": 0.0670820393249937
      }
    },
    {
      "doubleSided": true,
      "name": "power_control_panel_MAT.001",
      "pbrMetallicRoughness": {
        "baseColorTexture": {
          "index": 3
        },
        "metallicFactor": 0.0,
        "roughnessFactor": 0.0670820393249937
      }
    },
    {
      "doubleSided": true,
      "name": "train_code_control_panel_MAT.001",
      "pbrMetallicRoughness": {
        "baseColorTexture": {
          "index": 4
        },
        "metallicFactor": 0.0,
        "roughnessFactor": 0.1788854381999832
      }
    },
    {
      "doubleSided": true,
      "name": "WT_control_panel_MAT.001",
      "pbrMetallicRoughness": {
        "baseColorTexture": {
          "index": 5
        },
        "metallicFactor": 0.0,
        "roughnessFactor": 0.9329179606750063
      }
    }
  ],
  "meshes": [
    {
      "name": "emergency_exit_control_panel.001_emergency_exit_control_panel_MAT.001_0",
      "primitives": [
        {
          "attributes": {
            "NORMAL": 1,
            "POSITION": 0,
            "TEXCOORD_0": 2
          },
          "indices": 3,
          "material": 0,
          "mode": 4
        }
      ]
    },
    {
      "name": "hub_control_panel.001_hub_control_panel_MAT.001_0",
      "primitives": [
        {
          "attributes": {
            "NORMAL": 5,
            "POSITION": 4,
            "TEXCOORD_0": 6
          },
          "indices": 7,
          "material": 1,
          "mode": 4
        }
      ]
    },
    {
      "name": "molding_control_panel.001_molding_control_panel_MAT.001_0",
      "primitives": [
        {
          "attributes": {
            "NORMAL": 9,
            "POSITION": 8,
            "TEXCOORD_0": 10
          },
          "indices": 11,
          "material": 2,
          "mode": 4
        }
      ]
    },
    {
      "name": "power_control_panel.001_power_control_panel_MAT.001_0",
      "primitives": [
        {
          "attributes": {
            "NORMAL": 13,
            "POSITION": 12,
            "TEXCOORD_0": 14
          },
          "indices": 15,
          "material": 3,
          "mode": 4
        }
      ]
    },
    {
      "name": "train_code_control_panel.001_train_code_control_panel_MAT.001_0",
      "primitives": [
        {
          "attributes": {
            "NORMAL": 17,
            "POSITION": 16,
            "TEXCOORD_0": 18
          },
          "indices": 19,
          "material": 4,
          "mode": 4
        }
      ]
    },
    {
      "name": "WT_control_panel.001_WT_control_panel_MAT.001_0",
      "primitives": [
        {
          "attributes": {
            "NORMAL": 21,
            "POSITION": 20,
            "TEXCOORD_0": 22
          },
          "indices": 23,
          "material": 5,
          "mode": 4
        }
      ]
    }
  ],
  "nodes": [
    {
      "children": [
        1
      ],
      "matrix": [
        1.0,
        0.0,
        0.0,
        0.0,
        0.0,
        2.220446049250313e-16,
        -1.0,
        0.0,
        0.0,
        1.0,
        2.220446049250313e-16,
        0.0,
        0.0,
        0.0,
        0.0,
        1.0
      ],
      "name": "Sketchfab_model"
    },
    {
      "children": [
        2
      ],
      "matrix": [
        0.009999999776482582,
        0.0,
        0.0,
        0.0,
        0.0,
        0.0,
        0.009999999776482582,
        0.0,
        0.0,
        -0.009999999776482582,
        0.0,
        0.0,
        0.0,
        0.0,
        0.0,
        1.0
      ],
      "name": "CantrolPanels.fbx"
    },
    {
      "children": [
        3,
        5,
        7,
        9,
        11,
        13
      ],
      "name": "RootNode"
    },
    {
      "children": [
        4
      ],
      "matrix": [
        100.0,
        0.0,
        0.0,
        0.0,
        0.0,
        99.99999999999866,
        1.6292067073209114e-05,
        0.0,
        0.0,
        -1.6292067073209114e-05,
        99.99999999999866,
        0.0,
        0.0,
        0.0,
        0.0,
        1.0
      ],
      "name": "emergency_exit_control_panel.001"
    },
    {
      "mesh": 0,
      "name": "emergency_exit_control_panel.001_emergency_exit_control_panel_MAT.001_0"
    },
    {
      "children": [
        6
      ],
      "matrix": [
        100.0,
        0.0,
        0.0,
        0.0,
        0.0,
        99.99999999999866,
        1.6292067073209114e-05,
        0.0,
        0.0,
        -1.6292067073209114e-05,
        99.99999999999866,
        0.0,
        0.0,
        0.0,
        0.0,
        1.0
      ],
      "name": "hub_control_panel.001"
    },
    {
      "mesh": 1,
      "name": "hub_control_panel.001_hub_control_panel_MAT.001_0"
    },
    {
      "children": [
        8
      ],
      "matrix": [
        100.0,
        0.0,
        0.0,
        0.0,
        0.0,
        99.99999999999866,
        1.6292067073209114e-05,
        0.0,
        0.0,
        -1.6292067073209114e-05,
        99.99999999999866,
        0.0,
        0.0,
        0.0,
        0.0,
        1.0
      ],
      "name": "molding_control_panel.001"
    },
    {
      "mesh": 2,
      "name": "molding_control_panel.001_molding_control_panel_MAT.001_0"
    },
    {
      "children": [
        10
      ],
      "matrix": [
        100.0,
        0.0,
        0.0,
        0.0,
        0.0,
        99.99999999999866,
        1.6292067073209114e-05,
        0.0,
        0.0,
        -1.6292067073209114e-05,
        99.99999999999866,
        0.0,
        0.0,
        0.0,
        0.0,
        1.0
      ],
      "name": "power_control_panel.001"
    },
    {
      "mesh": 3,
      "name": "power_control_panel.001_power_control_panel_MAT.001_0"
    },
    {
      "children": [
        12
      ],
      "matrix": [
        100.0,
        0.0,
        0.0,
        0.0,
        0.0,
        99.99999999999866,
        1.6292067073209114e-05,
        0.0,
        0.0,
        -1.6292067073209114e-05,
        99.99999999999866,
        0.0,
        0.0,
        0.0,
        0.0,
        1.0
      ],
      "name": "train_code_control_panel.001"
    },
    {
      "mesh": 4,
      "name": "train_code_control_panel.001_train_code_control_panel_MAT.001_0"
    },
    {
      "children": [
        14
      ],
      "matrix": [
        100.0,
        0.0,
        0.0,
        0.0,
        0.0,
        99.99999999999866,
        1.6292067073209114e-05,
        0.0,
        0.0,
        -1.6292067073209114e-05,
        99.99999999999866,
        0.0,
        0.0,
        0.0,
        0.0,
        1.0
      ],
      "name": "WT_control_panel.001"
    },
    {
      "mesh": 5,
      "name": "WT_control_panel.001_WT_control_panel_MAT.001_0"
    }
  ],
  "samplers": [
    {
      "magFilter": 9729,
      "minFilter": 9987,
      "wrapS": 10497,
      "wrapT": 10497
    }
  ],
  "scene": 0,
  "scenes": [
    {
      "name": "Sketchfab_Scene",
      "nodes": [
        0
      ]
    }
  ],
  "textures": [
    {
      "sampler": 0,
      "source": 0
    },
    {
      "sampler": 0,
      "source": 1
    },
    {
      "sampler": 0,
      "source": 2
    },
    {
      "sampler": 0,
      "source": 3
    },
    {
      "sampler": 0,
      "source": 4
    },
    {
      "sampler": 0,
      "source": 5
    }
  ]
}
