ply
format ascii 1.0
comment Created in Blender version 4.1.1
element vertex 277
property float x
property float y
property float z
property float s
property float t
element face 240
property list uchar uint vertex_indices
end_header
-0.365735 2.285271 1.5901676 0.629883 0.769531
-1.058977 2.285271 1.5901676 0.629883 0.906738
-1.058977 1.38873 0.6936263 0.880371 0.907227
-0.365735 2.285271 1.5901676 0.629883 0.769531
-1.058977 1.38873 0.6936263 0.880371 0.907227
-0.365735 1.38873 0.6936263 0.880371 0.77002
-1.058977 1.38873 0.6936263 0.880371 0.907227
-1.082977 2.325576 1.5838037 0.623047 0.914062
-1.082977 1.395094 0.6533213 0.887207 0.914062
-1.082977 2.325576 1.5838037 0.623047 0.914062
-1.058977 1.38873 0.6936263 0.880371 0.907227
-1.058977 2.285271 1.5901676 0.629883 0.906738
-0.365735 1.38873 0.6936263 0.880371 0.77002
-0.341735 2.325576 1.5838037 0.623047 0.762695
-0.365735 2.285271 1.5901676 0.629883 0.769531
-1.077955 2.6337593 4.429094e-06 0.86377 0.541016
-1.183338 2.5283732 3.4119248e-06 0.884277 0.56152296
-1.152472 2.6028922 4.4240655e-06 0.878418 0.546875
-0.341735 2.6337593 4.429094e-06 0.719238 0.541016
-1.183338 2.5283732 3.4119248e-06 0.884277 0.56152296
-1.077955 2.6337593 4.429094e-06 0.86377 0.541016
-0.341735 2.6337593 4.429094e-06 0.719238 0.541016
-1.183338 1.6852223 -2.725443e-06 0.884277 0.727051
-1.183338 2.5283732 3.4119248e-06 0.884277 0.56152296
-1.183338 1.6852223 -2.725443e-06 0.884277 0.727051
-1.077955 1.5798032 -3.7426178e-06 0.86377 0.748047
-1.152472 1.6106793 -3.7375876e-06 0.878418 0.741699
-1.183338 1.6852223 -2.725443e-06 0.884277 0.727051
-0.341735 1.5798032 -3.7426178e-06 0.719238 0.748047
-1.077955 1.5798032 -3.7426178e-06 0.86377 0.748047
-1.183338 1.6852223 -2.725443e-06 0.884277 0.727051
-0.341735 2.6337593 4.429094e-06 0.719238 0.541016
-0.341735 1.5798032 -3.7426178e-06 0.719238 0.748047
-0.341735 2.6337593 4.429094e-06 0.719238 0.541016
0.499868 1.6852223 -2.725443e-06 0.554199 0.727051
-0.341735 1.5798032 -3.7426178e-06 0.719238 0.748047
-0.341735 1.5798032 -3.7426178e-06 0.719238 0.748047
0.499868 1.6852223 -2.725443e-06 0.554199 0.727051
0.394485 1.5798032 -3.7426178e-06 0.574707 0.748047
0.394485 1.5798032 -3.7426178e-06 0.574707 0.748047
0.499868 1.6852223 -2.725443e-06 0.554199 0.727051
0.469002 1.6106793 -3.7375876e-06 0.560059 0.741699
-0.341735 2.6337593 4.429094e-06 0.719238 0.541016
0.499868 2.5283732 3.4119248e-06 0.554199 0.56152296
0.499868 1.6852223 -2.725443e-06 0.554199 0.727051
0.499868 2.5283732 3.4119248e-06 0.554199 0.56152296
-0.341735 2.6337593 4.429094e-06 0.719238 0.541016
0.394485 2.6337593 4.429094e-06 0.574707 0.541016
0.499868 2.5283732 3.4119248e-06 0.554199 0.56152296
0.394485 2.6337593 4.429094e-06 0.574707 0.541016
0.469002 2.6028922 4.4240655e-06 0.560059 0.546875
-1.157749 2.378093 1.6363206 0.862305 0.46899402
-1.082977 2.325576 1.5838037 0.847656 0.454346
-1.082978 2.399846 1.6580735 0.847656 0.475098
-1.082977 2.325576 1.5838037 0.847656 0.454346
-1.157749 2.378093 1.6363206 0.862305 0.46899402
-1.18872 2.325576 1.5838037 0.868164 0.454346
-1.082977 2.325576 1.5838037 0.847656 0.454346
-0.341735 2.399846 1.6580735 0.702148 0.475098
-1.082978 2.399846 1.6580735 0.847656 0.475098
-1.082977 1.395094 0.6533213 0.847656 0.19616699
-1.082977 2.325576 1.5838037 0.847656 0.454346
-1.18872 2.325576 1.5838037 0.868164 0.454346
-1.082977 2.325576 1.5838037 0.847656 0.454346
-0.341735 2.325576 1.5838037 0.702148 0.454346
-0.341735 2.399846 1.6580735 0.702148 0.475098
-1.18872 2.325576 1.5838037 0.868164 0.454346
-1.18872 1.395094 0.6533213 0.868164 0.19616699
-1.082977 1.395094 0.6533213 0.847656 0.19616699
-0.341735 2.325576 1.5838037 0.702148 0.454346
0.399508 2.399846 1.6580735 0.556641 0.475098
-1.157749 1.342577 0.6008033 0.862305 0.18164098
-1.082977 1.395094 0.6533213 0.847656 0.19616699
-1.18872 1.395094 0.6533213 0.868164 0.19616699
-1.082977 1.395094 0.6533213 0.847656 0.19616699
-1.157749 1.342577 0.6008033 0.862305 0.18164098
-1.082978 1.320824 0.5790503 0.847656 0.175659
-0.341735 1.320824 0.5790503 0.702148 0.175659
-1.082977 1.395094 0.6533213 0.847656 0.19616699
-1.082978 1.320824 0.5790503 0.847656 0.175659
-1.082977 1.395094 0.6533213 0.847656 0.19616699
-0.341735 1.320824 0.5790503 0.702148 0.175659
-0.341735 1.395094 0.6533213 0.702148 0.19616699
0.399508 1.320824 0.5790503 0.556641 0.175659
-0.341735 1.395094 0.6533213 0.702148 0.19616699
-0.341735 1.320824 0.5790503 0.702148 0.175659
0.399508 2.325576 1.5838037 0.556641 0.454346
0.399508 2.325576 1.5838037 0.556641 0.454346
-0.341735 2.325576 1.5838037 0.702148 0.454346
-0.341735 1.395094 0.6533213 0.702148 0.19616699
0.399508 2.325576 1.5838037 0.556641 0.454346
0.474279 2.378093 1.6363206 0.541992 0.46899402
0.399508 2.399846 1.6580735 0.556641 0.475098
0.399508 2.325576 1.5838037 0.556641 0.454346
0.50525 2.325576 1.5838037 0.535645 0.454346
0.474279 2.378093 1.6363206 0.541992 0.46899402
-0.341735 1.395094 0.6533213 0.702148 0.19616699
0.399508 1.320824 0.5790503 0.556641 0.175659
0.399508 1.395094 0.6533213 0.556641 0.19616699
0.399508 2.325576 1.5838037 0.556641 0.454346
-0.341735 1.395094 0.6533213 0.702148 0.19616699
0.399508 1.395094 0.6533213 0.556641 0.19616699
0.399508 2.325576 1.5838037 0.556641 0.454346
0.399508 1.395094 0.6533213 0.556641 0.19616699
0.50525 2.325576 1.5838037 0.535645 0.454346
0.474279 1.342577 0.6008033 0.541992 0.18164098
0.399508 1.395094 0.6533213 0.556641 0.19616699
0.399508 1.320824 0.5790503 0.556641 0.175659
0.50525 2.325576 1.5838037 0.535645 0.454346
0.399508 1.395094 0.6533213 0.556641 0.19616699
0.50525 1.395094 0.6533213 0.535645 0.19616699
0.399508 1.395094 0.6533213 0.556641 0.19616699
0.474279 1.342577 0.6008033 0.541992 0.18164098
0.50525 1.395094 0.6533213 0.535645 0.19616699
-1.082977 2.325576 1.5838037 0.623047 0.914062
-0.365735 2.285271 1.5901676 0.629883 0.769531
-0.341735 2.325576 1.5838037 0.623047 0.762695
-1.058977 2.285271 1.5901676 0.629883 0.906738
-0.341735 1.395094 0.6533213 0.887207 0.762695
-0.341735 2.325576 1.5838037 0.623047 0.762695
-0.365735 1.38873 0.6936263 0.880371 0.77002
-0.341735 1.395094 0.6533213 0.887207 0.762695
-1.058977 1.38873 0.6936263 0.880371 0.907227
-1.082977 1.395094 0.6533213 0.887207 0.914062
-0.365735 1.38873 0.6936263 0.880371 0.77002
0.402957 1.5709783 0.3363143 0.032043 0.68408203
0.394485 1.5798032 -3.7426178e-06 0.033142 0.75
0.469002 1.6106793 -3.7375876e-06 0.04895 0.74951196
0.471484 1.5986472 0.3639823 0.046387 0.678223
0.499868 1.6852223 -2.725443e-06 0.064758 0.74951196
0.499868 1.6654441 0.43077934 0.060516 0.665039
0.499868 2.5283732 3.4119248e-06 0.230225 0.74902296
0.499868 2.54673 1.3120655 0.232666 0.49145502
0.469002 2.6028922 4.4240655e-06 0.245972 0.74853504
0.471436 2.614508 1.3798436 0.246948 0.478027
0.394485 2.6337593 4.429094e-06 0.261719 0.74902296
0.402793 2.642583 1.4079186 0.261475 0.472656
-0.341735 2.642583 1.4079186 0.407471 0.47338903
-0.341735 2.6337593 4.429094e-06 0.40625 0.74951196
-1.077955 2.6337593 4.429094e-06 0.550781 0.75
-1.086263 2.642583 1.4079186 0.553711 0.47412097
-1.077955 2.6337593 4.429094e-06 0.108948 1
-1.154906 2.614508 1.3798436 0.015541 0.745117
-1.086263 2.642583 1.4079186 3.1e-05 0.746094
-1.152472 2.6028922 4.4240655e-06 0.123474 0.993652
-1.183338 2.54673 1.3120655 0.034027 0.751953
-1.183338 2.5283732 3.4119248e-06 0.138062 0.987305
-1.183338 1.6654441 0.43077934 0.260742 0.843262
-1.183338 1.6852223 -2.725443e-06 0.290283 0.922363
-1.154954 1.5986472 0.3639823 0.279053 0.849609
-1.152472 1.6106793 -3.7375876e-06 0.304932 0.916504
-1.086427 1.5709783 0.3363143 0.294434 0.849609
-1.077955 1.5798032 -3.7426178e-06 0.31958 0.910645
-0.341735 1.5709783 0.3363143 0.430908 0.797363
-0.341735 1.5798032 -3.7426178e-06 0.45459 0.858887
0.394485 1.5798032 -3.7426178e-06 0.589355 0.807617
0.402957 1.5709783 0.3363143 0.567383 0.745117
0.499868 2.54673 1.3120655 0.591309 0.994141
0.541258 1.5953982 0.36073428 0.317627 0.986328
0.499868 1.6654441 0.43077934 0.337891 0.994629
0.541258 2.618163 1.3834985 0.611328 0.985352
0.471436 2.614508 1.3798436 0.621094 0.999512
0.580595 2.595881 1.4168466 0.612305 0.974121
0.580595 1.5620501 0.38301632 0.315918 0.975098
0.580595 1.343416 0.6016433 0.316162 0.912598
0.580595 2.377254 1.6354806 0.61084 0.913086
0.519619 2.655103 1.4204386 0.624023 0.98291
0.549726 2.648576 1.4695426 0.624512 0.974121
0.549728 2.429947 1.6881746 0.625 0.914551
0.467379 2.670403 1.4357396 0.636719 0.984863
0.402793 2.642583 1.4079186 0.648926 0.993164
0.475204 2.670403 1.4913696 0.636719 0.974121
0.475208 2.451773 1.7100006 0.638672 0.914551
-0.341735 2.451773 1.7100006 0.796387 0.914551
-0.341735 2.670403 1.4357396 0.796387 0.984375
-0.341735 2.642583 1.4079186 0.796387 0.992188
-1.086263 2.642583 1.4079186 0.942871 0.992188
-0.341735 2.670403 1.4913696 0.796387 0.973633
-1.150848 2.670403 1.4357396 0.955078 0.983398
-1.154906 2.614508 1.3798436 0.970215 0.998047
-1.158673 2.670403 1.4913696 0.955078 0.972656
-1.158678 2.451773 1.7100006 0.952637 0.914062
-1.233198 2.429947 1.6881746 0.96582 0.914062
-1.224728 2.618163 1.3834985 0.979492 0.983887
-1.183338 2.54673 1.3120655 1 0.992188
-1.233196 2.648576 1.4695426 0.967285 0.972656
-1.264065 2.377254 1.6354806 0.97998 0.912598
-1.264065 2.595881 1.4168466 0.979004 0.972656
-1.203089 2.655103 1.4204386 0.967285 0.981445
0.541258 1.5953982 0.36073428 0.011078 0.05407703
0.471484 1.5986472 0.3639823 0.024689 0.049346983
0.499868 1.6654441 0.43077934 0.014313 0.037109017
0.519619 1.5584593 0.3237943 0.020477 0.06063801
0.580595 1.5620501 0.38301632 0.001266 0.070007026
0.467379 1.5431583 0.30849326 0.032288 0.059783995
0.402957 1.5709783 0.3363143 0.0448 0.051787972
0.549726 1.5093552 0.33032027 0.0168 0.070068
0.580595 1.343416 0.6016433 3.1e-05 0.13208002
0.549728 1.290723 0.5489503 0.016098 0.13159198
0.475204 1.4875271 0.30849326 0.031677 0.07012898
0.475208 1.268897 0.5271232 0.032043 0.13147002
-0.341735 1.268897 0.5271232 0.194946 0.130737
-0.341735 1.4875271 0.30849326 0.195068 0.070617974
-0.341735 1.5431583 0.30849326 0.195068 0.059448004
-0.341735 1.5709783 0.3363143 0.195068 0.051575005
-1.086427 1.5709783 0.3363143 0.342773 0.051909983
-1.150848 1.5431583 0.30849326 0.35498 0.060088992
-1.154954 1.5986472 0.3639823 0.370117 0.04589802
-1.158673 1.4875271 0.30849326 0.35498 0.07110602
-1.158678 1.268897 0.5271232 0.352539 0.12988299
-1.233198 1.290723 0.5489503 0.366211 0.12988299
-1.203089 1.5584593 0.3237943 0.367432 0.0625
-1.233196 1.5093552 0.33032027 0.366943 0.07116699
-1.264065 1.343416 0.6016433 0.380127 0.131226
-1.264065 1.5620501 0.38301632 0.378906 0.07116699
-1.224728 1.5953982 0.36073428 0.379639 0.060119987
-1.183338 1.6654441 0.43077934 0.399414 0.051575005
-1.183338 2.54673 1.3120655 0.648926 0.05239898
-1.224728 2.618163 1.3834985 0.668945 0.06106597
-1.264065 2.595881 1.4168466 0.669922 0.072083
-1.264065 2.377254 1.6354806 0.668457 0.13208002
-1.082978 1.320824 0.5790503 0.048096 0.455566
-0.341739 1.288263 0.5875023 0.19519 0.46166998
-0.341735 1.320824 0.5790503 0.195068 0.455078
0.399508 1.320824 0.5790503 0.340088 0.44775403
-1.100469 1.288263 0.5875023 0.043976 0.46215802
-1.157749 1.342577 0.6008033 0.033691 0.449951
0.41699 1.288263 0.5875023 0.344482 0.453857
0.474279 1.342577 0.6008033 0.35376 0.441162
-0.341731 1.260445 0.5596842 0.195435 0.469482
-1.175239 1.310017 0.6092553 0.028442 0.455078
-1.140824 1.260445 0.5596842 0.035492 0.46972698
0.457362 1.260445 0.5596842 0.353271 0.46093798
-0.341735 1.268897 0.5271232 0.195557 0.47607398
-1.158678 1.268897 0.5271232 0.03125 0.47607398
0.475208 1.268897 0.5271232 0.357666 0.46728498
-1.2156 1.2822 0.5814393 0.020493 0.462646
-1.233198 1.290723 0.5489503 0.015228 0.46777302
-1.264065 1.343416 0.6016433 0.006767 0.451904
-1.246574 1.334721 0.6339603 0.013252 0.447998
-1.264065 2.377254 1.6354806 3.1e-05 0.16540498
-1.20621 1.362534 0.6617723 0.020905 0.43969703
-1.18872 1.395094 0.6533213 0.027359 0.43579102
-1.18872 2.325576 1.5838037 0.021454 0.18017602
-1.20621 2.317124 1.6163636 0.014778 0.17663598
-1.157749 2.378093 1.6363206 0.026443 0.16577101
-1.246574 2.344936 1.6441766 0.006702 0.16906703
-1.2156 2.397458 1.6966966 0.012695 0.153687
-1.233198 2.429947 1.6881746 0.007156 0.14892602
-1.158678 2.451773 1.7100006 0.022614 0.13964802
-1.175239 2.369641 1.6688806 0.020996 0.16101098
-1.140824 2.419213 1.7184516 0.027145 0.14587402
-0.341735 2.451773 1.7100006 0.184692 0.130737
-1.100468 2.391395 1.6906346 0.035858 0.15295398
-1.082978 2.399846 1.6580735 0.040222 0.15917999
-0.341735 2.419213 1.7184516 0.184937 0.13732898
-0.341735 2.391395 1.6906346 0.185059 0.14514202
-0.341735 2.399846 1.6580735 0.185181 0.15185499
0.399508 2.399846 1.6580735 0.332275 0.151245
0.416999 2.391395 1.6906346 0.336426 0.14477497
0.474279 2.378093 1.6363206 0.34668 0.156982
0.457354 2.419213 1.7184516 0.344727 0.13720697
0.475208 2.451773 1.7100006 0.349121 0.130737
0.491769 2.369641 1.6688806 0.351807 0.15185499
0.53213 2.397458 1.6966976 0.359863 0.14416498
0.549728 2.429947 1.6881746 0.36499 0.13903803
0.580595 2.377254 1.6354806 0.373535 0.15490699
0.522741 2.317124 1.6163636 0.359375 0.16711402
0.50525 2.325576 1.5838037 0.353027 0.17102098
0.563104 2.344937 1.6441756 0.367188 0.15893602
0.580595 1.343416 0.6016433 0.380371 0.441406
0.522741 1.362539 0.6617783 0.365479 0.43017602
0.50525 1.395094 0.6533213 0.358887 0.426758
0.563104 1.334716 0.6339543 0.373535 0.43798798
0.491767 1.310018 0.6092573 0.359375 0.44580102
0.532133 1.282198 0.5814373 0.367676 0.453125
0.549728 1.290723 0.5489503 0.373047 0.458008
3 0 1 2
3 3 4 5
3 6 7 8
3 9 10 11
3 12 13 14
3 15 16 17
3 18 19 20
3 21 22 23
3 24 25 26
3 27 28 29
3 30 31 32
3 33 34 35
3 36 37 38
3 39 40 41
3 42 43 44
3 45 46 47
3 48 49 50
3 51 52 53
3 54 55 56
3 57 58 59
3 60 61 62
3 63 64 65
3 66 67 68
3 69 70 58
3 71 72 73
3 74 75 76
3 77 78 79
3 80 81 82
3 83 84 85
3 69 86 70
3 87 88 89
3 90 91 92
3 93 94 95
3 96 97 98
3 99 100 101
3 102 103 104
3 105 106 107
3 108 109 110
3 111 112 113
3 114 115 116
3 115 114 117
3 118 119 120
3 121 122 123
3 122 121 124
3 125 126 127
3 127 128 125
3 128 127 129
3 128 129 130
3 129 131 130
3 130 131 132
3 132 131 133
3 132 133 134
3 135 134 133
3 135 136 134
3 135 137 136
3 137 135 138
3 139 137 138
3 137 139 140
3 141 142 143
3 142 141 144
3 144 145 142
3 145 144 146
3 146 147 145
3 147 146 148
3 148 149 147
3 149 148 150
3 150 151 149
3 151 150 152
3 152 153 151
3 153 152 154
3 155 153 154
3 153 155 156
3 157 158 159
3 160 158 157
3 160 157 161
3 162 158 160
3 158 162 163
3 162 164 163
3 165 164 162
3 161 166 160
3 162 160 166
3 167 165 162
3 167 162 166
3 165 167 168
3 161 169 166
3 169 161 170
3 166 171 167
3 171 168 167
3 171 166 169
3 168 171 172
3 171 173 172
3 170 174 169
3 174 170 175
3 176 174 175
3 169 177 171
3 177 169 174
3 173 171 177
3 174 176 178
3 174 178 177
3 176 179 178
3 180 173 177
3 180 177 178
3 173 180 181
3 180 182 181
3 183 179 184
3 182 180 185
3 185 186 182
3 186 185 187
3 179 183 188
3 187 188 183
3 188 187 185
3 180 188 185
3 178 179 188
3 188 180 178
3 189 190 191
3 190 189 192
3 193 192 189
3 190 192 194
3 194 195 190
3 192 193 196
3 197 196 193
3 196 197 198
3 196 199 192
3 198 199 196
3 192 199 194
3 199 198 200
3 201 199 200
3 202 194 199
3 199 201 202
3 194 203 195
3 194 202 203
3 195 203 204
3 203 205 204
3 203 206 205
3 202 206 203
3 206 207 205
3 201 208 202
3 206 202 208
3 201 209 208
3 210 208 209
3 207 206 211
3 208 211 206
3 208 210 212
3 211 208 212
3 212 210 213
3 211 212 214
3 213 214 212
3 215 207 211
3 215 211 214
3 216 207 215
3 215 217 216
3 217 215 218
3 218 215 219
3 214 219 215
3 213 219 214
3 219 213 220
3 221 222 223
3 222 224 223
3 222 221 225
3 226 225 221
3 224 222 227
3 227 228 224
3 225 229 222
3 229 227 222
3 230 225 226
3 229 225 231
3 231 225 230
3 227 229 232
3 231 233 229
3 233 232 229
3 233 231 234
3 232 233 235
3 231 236 234
3 236 231 230
3 234 236 237
3 236 238 237
3 238 236 239
3 230 239 236
3 239 240 238
3 226 241 230
3 239 230 241
3 241 226 242
3 243 241 242
3 241 243 244
3 244 239 241
3 243 245 244
3 240 239 246
3 246 239 244
3 240 246 247
3 248 240 247
3 247 249 248
3 250 246 244
3 246 250 247
3 250 244 245
3 249 247 251
3 250 251 247
3 251 252 249
3 245 253 250
3 251 250 253
3 253 245 254
3 252 251 255
3 253 255 251
3 256 253 254
3 255 253 256
3 256 254 257
3 258 256 257
3 256 258 259
3 259 255 256
3 260 259 258
3 261 252 255
3 255 259 261
3 252 261 262
3 263 259 260
3 261 259 263
3 261 264 262
3 264 261 263
3 262 264 265
3 264 266 265
3 260 267 263
3 267 260 268
3 263 269 264
3 266 264 269
3 269 263 267
3 269 270 266
3 271 267 268
3 271 269 267
3 271 268 272
3 272 228 271
3 270 269 273
3 273 269 271
3 228 274 271
3 274 273 271
3 228 227 274
3 232 274 227
3 273 275 270
3 273 274 275
3 274 232 275
3 276 270 275
3 235 275 232
3 275 235 276
